<svg xmlns="http://www.w3.org/2000/svg" viewBox="0 0 73 73"><defs><style>.cls-1{fill:#edc16b;}.cls-2{fill:#f29e8c;}.cls-3{fill:#1b3249;}.cls-4{fill:#fff;}</style></defs><title>Asset 111</title><g id="Layer_2" data-name="Layer 2"><g id="_1" data-name="1"><circle class="cls-1" cx="36.5" cy="36.5" r="36"/><path class="cls-2" d="M36.5,15.5c-16.6,0-20.65,10.62-16.82,16.13H53.37C57,26.18,53.1,15.5,36.5,15.5Z"/><path class="cls-3" d="M53.37,32.13a.53.53,0,0,1-.27-.08.5.5,0,0,1-.15-.69A8,8,0,0,0,53,23.21C50.53,18.63,44.52,16,36.5,16s-14.22,2.67-16.65,7.32a7.75,7.75,0,0,0,.24,8,.5.5,0,1,1-.82.58A8.79,8.79,0,0,1,19,22.85c2.61-5,9-7.85,17.54-7.85s14.73,2.82,17.39,7.74a9,9,0,0,1-.1,9.16A.51.51,0,0,1,53.37,32.13Z"/><path class="cls-2" d="M61.39,62.49c-2.93-.57-6.34-1.06-8.36-1.6l-6.15-1.66H26.1L20,60.89c-2,.54-5.43,1-8.36,1.6a36,36,0,0,0,49.79,0Z"/><path class="cls-3" d="M36.5,73A36.29,36.29,0,0,1,11.26,62.85a.47.47,0,0,1-.13-.5.5.5,0,0,1,.38-.35c1.08-.21,2.24-.42,3.36-.61,1.91-.33,3.71-.65,5-1L26,58.75l.13,0H46.88l.13,0,6.14,1.66c1.25.33,3.05.64,5,1,1.13.19,2.29.4,3.38.61a.5.5,0,0,1,.38.35.47.47,0,0,1-.13.5A36.29,36.29,0,0,1,36.5,73ZM12.67,62.8a35.46,35.46,0,0,0,47.66,0l-2.39-.43c-1.93-.33-3.75-.65-5-1l-6.08-1.64H26.17l-6.08,1.64c-1.29.35-3.12.67-5.05,1Z"/><path class="cls-4" d="M44.25,41.15l2.63,18.08a17.45,17.45,0,0,1-20.78,0l2.63-18.08Z"/><path class="cls-3" d="M36.5,63.16a17.62,17.62,0,0,1-10.72-3.54.51.51,0,0,1-.17-.46l2.62-18.08a.51.51,0,0,1,.5-.43H44.25a.51.51,0,0,1,.5.42l2.63,18.09a.51.51,0,0,1-.17.45A17.51,17.51,0,0,1,36.5,63.16ZM26.64,59a17,17,0,0,0,19.71,0L43.82,41.65H29.16Z"/><path class="cls-4" d="M53.37,31.63a3.16,3.16,0,0,0-2.45.41s.4-4.46-3.42-6.43c-2.35,0-6.56,2-11,2s-9-2-12-2A6.38,6.38,0,0,0,22.05,32a3.15,3.15,0,0,0-2.45-.41c-1.43.39-2.48,2.39-2.25,5s1.62,4.62,3.1,4.47A1.68,1.68,0,0,0,21,41c0,5.2,3,15.54,15.51,15.54S52,46.23,52,41a1.56,1.56,0,0,0,.52.15c1.48.15,2.86-1.86,3.1-4.47S54.8,32,53.37,31.63Z"/><path class="cls-3" d="M36.49,57c-12.19,0-15.75-9.72-16-15.39A2.36,2.36,0,0,1,18.76,41a6.42,6.42,0,0,1-1.9-4.34c-.25-2.72.85-5.05,2.61-5.53a3.22,3.22,0,0,1,2,.06,6.66,6.66,0,0,1,2.76-6,.6.6,0,0,1,.29-.09,23,23,0,0,1,4.92.88,30.54,30.54,0,0,0,7.08,1.15,27.18,27.18,0,0,0,7-1.22,17.24,17.24,0,0,1,4-.79.46.46,0,0,1,.23.06,7,7,0,0,1,3.69,6.08,3.27,3.27,0,0,1,2.08-.1c1.76.48,2.86,2.8,2.62,5.53A6.43,6.43,0,0,1,54.21,41a2.35,2.35,0,0,1-1.73.59C52.25,47.62,48.68,57,36.49,57ZM21,40.46a.42.42,0,0,1,.26.08.49.49,0,0,1,.24.42c0,5.59,3.16,15,15,15s15-9.45,15-15a.48.48,0,0,1,.23-.42.46.46,0,0,1,.48,0,1.21,1.21,0,0,0,.36.1,1.38,1.38,0,0,0,1-.36,5.52,5.52,0,0,0,1.55-3.66c.22-2.51-.8-4.18-1.88-4.48h0a2.45,2.45,0,0,0-1.92.29l-.25.12a.51.51,0,0,1-.65-.52c0-.17.31-4.07-3-5.88a17.32,17.32,0,0,0-3.59.75,28.78,28.78,0,0,1-7.29,1.25,31.37,31.37,0,0,1-7.32-1.18,25.59,25.59,0,0,0-4.52-.85,5.82,5.82,0,0,0-2.12,5.83.53.53,0,0,1-.15.49.51.51,0,0,1-.49.11l-.25-.12a2.43,2.43,0,0,0-1.92-.29c-1.08.3-2.1,2-1.88,4.48a5.56,5.56,0,0,0,1.55,3.66,1.39,1.39,0,0,0,1,.36,1.21,1.21,0,0,0,.36-.1A.42.42,0,0,1,21,40.46Z"/><path class="cls-3" d="M36.5,73A36.5,36.5,0,1,1,73,36.5,36.54,36.54,0,0,1,36.5,73Zm0-72A35.5,35.5,0,1,0,72,36.5,35.53,35.53,0,0,0,36.5,1Z"/><path class="cls-4" d="M61.11,57.46a.56.56,0,0,1-.32-.11.51.51,0,0,1-.06-.71,31.63,31.63,0,0,0,3.88-5.92A31.26,31.26,0,0,0,66.3,26.28a.5.5,0,0,1,.31-.64.49.49,0,0,1,.63.32A32.25,32.25,0,0,1,65.5,51.17a32.64,32.64,0,0,1-4,6.11A.5.5,0,0,1,61.11,57.46Z"/><path class="cls-4" d="M64.8,22.05a.5.5,0,0,1-.45-.26,31.27,31.27,0,0,0-5.27-7.27.5.5,0,0,1,0-.71.5.5,0,0,1,.7,0,32.21,32.21,0,0,1,5.45,7.5A.5.5,0,0,1,65,22,.46.46,0,0,1,64.8,22.05Z"/><path class="cls-2" d="M53.1,14s-5.55-4.79-16.67-3.83C18.82,11.7,22.61,21.74,22.61,21.74l27.71.39A6.67,6.67,0,0,1,53.1,14Z"/><path class="cls-3" d="M50.32,22.63a.49.49,0,0,1-.47-.35A7.14,7.14,0,0,1,52.24,14c-1.62-1.11-6.9-4.08-15.76-3.32C29.92,11.24,25.64,13,23.77,16a6.77,6.77,0,0,0-.69,5.56.5.5,0,0,1-.29.64.49.49,0,0,1-.64-.29,7.7,7.7,0,0,1,.77-6.45c2-3.25,6.58-5.2,13.47-5.8,11.19-1,16.8,3.75,17,3.95a.51.51,0,0,1-.08.82c-.18.09-4.19,2.37-2.54,7.54a.51.51,0,0,1-.33.63Z"/></g></g></svg>