<svg xmlns="http://www.w3.org/2000/svg" viewBox="0 0 73 73"><defs><style>.cls-1{fill:#fff;}.cls-2{fill:#1b3249;}.cls-3{fill:#edc16b;}.cls-4{fill:#f29e8c;}</style></defs><title>Asset 161</title><g id="Layer_2" data-name="Layer 2"><g id="_1" data-name="1"><path class="cls-1" d="M6.5.5h22a6,6,0,0,1,6,6v14a2,2,0,0,1-2,2H2.5a2,2,0,0,1-2-2V6.5A6,6,0,0,1,6.5.5Z"/><path class="cls-2" d="M32.5,23H2.5A2.5,2.5,0,0,1,0,20.5V6.5A6.51,6.51,0,0,1,6.5,0h22A6.51,6.51,0,0,1,35,6.5v14A2.5,2.5,0,0,1,32.5,23ZM6.5,1A5.51,5.51,0,0,0,1,6.5v14A1.5,1.5,0,0,0,2.5,22h30A1.5,1.5,0,0,0,34,20.5V6.5A5.51,5.51,0,0,0,28.5,1Z"/><rect class="cls-3" x="0.5" y="22.5" width="34" height="50" rx="2"/><path class="cls-2" d="M32.5,73H2.5A2.5,2.5,0,0,1,0,70.5v-46A2.5,2.5,0,0,1,2.5,22h30A2.5,2.5,0,0,1,35,24.5v46A2.5,2.5,0,0,1,32.5,73ZM2.5,23A1.5,1.5,0,0,0,1,24.5v46A1.5,1.5,0,0,0,2.5,72h30A1.5,1.5,0,0,0,34,70.5v-46A1.5,1.5,0,0,0,32.5,23Z"/><path class="cls-3" d="M10.5,16.5h14a3,3,0,0,1,3,3v3a0,0,0,0,1,0,0H7.5a0,0,0,0,1,0,0v-3A3,3,0,0,1,10.5,16.5Z"/><path class="cls-2" d="M27.5,23H7.5a.5.5,0,0,1-.5-.5v-3A3.5,3.5,0,0,1,10.5,16h14A3.5,3.5,0,0,1,28,19.5v3A.5.5,0,0,1,27.5,23ZM8,22H27V19.5A2.5,2.5,0,0,0,24.5,17h-14A2.5,2.5,0,0,0,8,19.5Z"/><path class="cls-4" d="M14.5,6.5h6a2,2,0,0,1,2,2v8a0,0,0,0,1,0,0h-10a0,0,0,0,1,0,0v-8A2,2,0,0,1,14.5,6.5Z"/><path class="cls-2" d="M22.5,17h-10a.5.5,0,0,1-.5-.5v-8A2.5,2.5,0,0,1,14.5,6h6A2.5,2.5,0,0,1,23,8.5v8A.5.5,0,0,1,22.5,17ZM13,16h9V8.5A1.5,1.5,0,0,0,20.5,7h-6A1.5,1.5,0,0,0,13,8.5Z"/><circle class="cls-2" cx="17.5" cy="9.5" r="1.25"/><path class="cls-4" d="M57.34,46.33v0c-2.09-11.77-15-15.86-15-15.86s1,11-9.9,15.7c-15.9,6.77-13.5,26.3-.13,26.3H59.92c4.53,0,12.58-.63,12.58-10.22C72.5,48.79,57.34,46.33,57.34,46.33Z"/><path class="cls-2" d="M59.92,73H32.31a11,11,0,0,1-11.16-9.06c-1.22-6,1.73-14.22,11.1-18.2a15.39,15.39,0,0,0,9.59-15.19.5.5,0,0,1,.18-.44.53.53,0,0,1,.47-.09c.38.12,9.48,3.07,13.65,11.18a17.8,17.8,0,0,1,1.64,4.71C60.11,46.4,73,49.7,73,62.28,73,73,63.16,73,59.92,73ZM42.86,31.22A16.53,16.53,0,0,1,32.64,46.66C23.79,50.42,21,58.15,22.13,63.74A9.92,9.92,0,0,0,32.31,72H59.92C65.11,72,72,71,72,62.28,72,50.85,60.91,47.62,58,47a23.55,23.55,0,0,1-1.15,10.47.51.51,0,0,1-.63.32.49.49,0,0,1-.32-.63,22,22,0,0,0,1-10.63.7.7,0,0,1,0-.14,16.88,16.88,0,0,0-1.59-4.69C51.91,35.17,45,32.06,42.86,31.22Z"/><path class="cls-1" d="M29.71,66a.51.51,0,0,1-.39-.18,7,7,0,0,1-1.33-6c.76-3.62,3.91-7,8.85-9.47a18.83,18.83,0,0,0,5-3.51.5.5,0,0,1,.71.71,20.16,20.16,0,0,1-5.24,3.69C32.62,53.6,29.66,56.72,29,60a6,6,0,0,0,1.14,5.13.5.5,0,0,1-.07.7A.5.5,0,0,1,29.71,66Z"/><path class="cls-1" d="M44.69,44.31a.59.59,0,0,1-.23-.05.51.51,0,0,1-.21-.68,11.14,11.14,0,0,0,1.23-6.8.49.49,0,0,1,.38-.59.5.5,0,0,1,.6.38A12,12,0,0,1,45.13,44,.49.49,0,0,1,44.69,44.31Z"/><path class="cls-1" d="M6.5,68a.5.5,0,0,1-.5-.5v-23a.5.5,0,0,1,1,0v23A.5.5,0,0,1,6.5,68Z"/><path class="cls-1" d="M6.5,41a.5.5,0,0,1-.5-.5v-7a.5.5,0,0,1,1,0v7A.5.5,0,0,1,6.5,41Z"/></g></g></svg>