<svg xmlns="http://www.w3.org/2000/svg" viewBox="0 0 63 73"><defs><style>.cls-1{fill:#fff;}.cls-2{fill:#edc16b;}.cls-3{fill:#f29e8c;}.cls-4{fill:#1b3249;}</style></defs><title>Asset 91</title><g id="Layer_2" data-name="Layer 2"><g id="_1" data-name="1"><path class="cls-1" d="M37.22,49.65c8.93,0,9-1.38,18-1.38C51.17,35.85,39.5,30.5,39.5,30.5h-22S5.14,36.8,1.5,49.65c8.92,0,8.93-1.38,17.85-1.38S28.28,49.65,37.22,49.65Z"/><path class="cls-2" d="M55.17,48.27c-8.92,0-9,1.38-18,1.38s-8.94-1.38-17.87-1.38S10.42,49.65,1.5,49.65a26.29,26.29,0,0,0-1,7.22A39.17,39.17,0,0,0,2.66,70.48a3,3,0,0,0,2.84,2H51.08a3,3,0,0,0,2.84-2A41.14,41.14,0,0,0,56.5,56.87,28,28,0,0,0,55.17,48.27Z"/><path class="cls-2" d="M53.05,13C51,23.42,62.5,28.5,62.5,28.5s-12.6,2.56-15-10Z"/><path class="cls-3" d="M32.5.5h22v11l-7,7h-27a3,3,0,0,1-3-2.91A15,15,0,0,1,32.5.5Z"/><path class="cls-2" d="M58.5.5a4,4,0,0,1,0,8h-4V.5Z"/><rect class="cls-2" x="23.5" y="18.5" width="10" height="6"/><path class="cls-3" d="M20.5,24.5h16a3,3,0,0,1,3,3v3h-22v-3A3,3,0,0,1,20.5,24.5Z"/><path class="cls-4" d="M59.86,29.22a13.86,13.86,0,0,1-7.7-2.14c-2.69-1.8-4.42-4.66-5.15-8.49a.48.48,0,0,1,.14-.44l5.54-5.55a.5.5,0,0,1,.59-.09.5.5,0,0,1,.26.54C51.56,23,62.59,28,62.7,28a.5.5,0,0,1-.1.95A15,15,0,0,1,59.86,29.22ZM48,18.67a11.47,11.47,0,0,0,4.67,7.57,13.51,13.51,0,0,0,8.14,1.94c-2.92-1.72-9.14-6.3-8.51-13.82Z"/><path class="cls-4" d="M47.5,19h-27A3.47,3.47,0,0,1,17,15.59,15.5,15.5,0,0,1,32.5,0h22a.5.5,0,0,1,.5.5v11a.47.47,0,0,1-.15.35l-7,7A.47.47,0,0,1,47.5,19ZM32.5,1A14.51,14.51,0,0,0,18,15.59,2.47,2.47,0,0,0,20.5,18H47.29L54,11.29V1Z"/><path class="cls-1" d="M46.5,5H40.9a.5.5,0,0,1,0-1h5.6a.5.5,0,0,1,0,1Z"/><path class="cls-1" d="M22.23,13.5l-.16,0a.49.49,0,0,1-.31-.63A12.42,12.42,0,0,1,33.5,4h3.4a.5.5,0,0,1,0,1H33.5a11.43,11.43,0,0,0-10.79,8.16A.5.5,0,0,1,22.23,13.5Z"/><path class="cls-4" d="M58.5,9h-4a.5.5,0,0,1-.5-.5V.5a.5.5,0,0,1,.5-.5h4a4.5,4.5,0,0,1,0,9ZM55,8h3.5a3.5,3.5,0,0,0,0-7H55Z"/><path class="cls-4" d="M33.5,25h-10a.5.5,0,0,1-.5-.5v-6a.5.5,0,0,1,.5-.5h10a.5.5,0,0,1,.5.5v6A.5.5,0,0,1,33.5,25ZM24,24h9V19H24Z"/><path class="cls-4" d="M39.5,31h-22a.5.5,0,0,1-.5-.5v-3A3.5,3.5,0,0,1,20.5,24h16A3.5,3.5,0,0,1,40,27.5v3A.5.5,0,0,1,39.5,31ZM18,30H39V27.5A2.5,2.5,0,0,0,36.5,25h-16A2.5,2.5,0,0,0,18,27.5Z"/><path class="cls-4" d="M51.08,73H5.5a3.51,3.51,0,0,1-3.32-2.36A39.73,39.73,0,0,1,0,56.87C0,39.05,17.1,30.14,17.27,30.05A.59.59,0,0,1,17.5,30h22a.78.78,0,0,1,.21,0C39.88,30.12,57,38.17,57,56.87a41.72,41.72,0,0,1-2.61,13.78A3.52,3.52,0,0,1,51.08,73ZM17.62,31C16.22,31.76,1,40.39,1,56.87A38.79,38.79,0,0,0,3.13,70.31,2.51,2.51,0,0,0,5.5,72H51.08a2.52,2.52,0,0,0,2.37-1.68A40.81,40.81,0,0,0,56,56.87C56,39.53,40.74,31.66,39.39,31Z"/><path class="cls-4" d="M28.5,67a.5.5,0,0,1-.5-.5v-36a.5.5,0,0,1,1,0v36A.5.5,0,0,1,28.5,67Z"/><path class="cls-4" d="M37.22,50.15a51.12,51.12,0,0,1-9-.69,49.56,49.56,0,0,0-8.86-.69,49.33,49.33,0,0,0-8.85.69,51.3,51.3,0,0,1-9,.69.5.5,0,0,1-.5-.5.51.51,0,0,1,.5-.5,49.57,49.57,0,0,0,8.85-.68,51.07,51.07,0,0,1,9-.7,51.07,51.07,0,0,1,9,.7,49.79,49.79,0,0,0,8.86.68,50.6,50.6,0,0,0,8.9-.68,50.86,50.86,0,0,1,9.06-.7.5.5,0,0,1,0,1,50.5,50.5,0,0,0-8.91.69A51.94,51.94,0,0,1,37.22,50.15Z"/></g></g></svg>