<svg xmlns="http://www.w3.org/2000/svg" viewBox="0 0 73 73"><defs><style>.cls-1{fill:#edc16b;}.cls-2{fill:#1b3249;}.cls-3{fill:#f29e8c;}.cls-4{fill:#fff;}</style></defs><title>Asset 221</title><g id="Layer_2" data-name="Layer 2"><g id="_1" data-name="1"><path class="cls-1" d="M64.31,10.39l-1.7-1.7a4.82,4.82,0,0,0-6.81,0l8.51,8.51A4.82,4.82,0,0,0,64.31,10.39Z"/><path class="cls-2" d="M64.31,17.7a.5.5,0,0,1-.35-.15L55.45,9a.5.5,0,0,1,0-.71,5.32,5.32,0,0,1,7.51,0L64.67,10a5.32,5.32,0,0,1,0,7.51A.51.51,0,0,1,64.31,17.7Zm-7.78-9,7.76,7.76A4.33,4.33,0,0,0,64,10.74L62.26,9A4.32,4.32,0,0,0,56.53,8.71Z"/><path class="cls-1" d="M26,53.79,19.21,47,2.36,62.48a5.77,5.77,0,1,0,8.16,8.16Z"/><path class="cls-2" d="M6.27,73A6.27,6.27,0,0,1,2,62.11l16.84-15.5a.5.5,0,0,1,.69,0l6.81,6.81a.5.5,0,0,1,0,.69L10.89,71A6.24,6.24,0,0,1,6.4,73ZM19.2,47.67,2.7,62.85a5.27,5.27,0,1,0,7.45,7.45L25.33,53.8Z"/><path class="cls-3" d="M68.14,21,52,4.86a2.4,2.4,0,0,0-3.4,0l-34,34a2.4,2.4,0,0,0,0,3.4L30.7,58.47a2.4,2.4,0,0,0,3.4,0l34-34A2.4,2.4,0,0,0,68.14,21Z"/><path class="cls-2" d="M32.4,59.67a2.87,2.87,0,0,1-2-.85L14.18,42.65a2.85,2.85,0,0,1-.85-2,2.89,2.89,0,0,1,.85-2.06l34-34a3,3,0,0,1,4.11,0L68.5,20.67a2.93,2.93,0,0,1,.85,2.06,2.89,2.89,0,0,1-.85,2.05l-34,34A2.91,2.91,0,0,1,32.4,59.67Zm17.87-55a1.9,1.9,0,0,0-1.35.56l-34,34a1.93,1.93,0,0,0,0,2.7L31.05,58.12a1.92,1.92,0,0,0,2.7,0l34-34a1.91,1.91,0,0,0,0-2.7h0L51.62,5.21A1.9,1.9,0,0,0,50.27,4.65Z"/><path class="cls-1" d="M60.06,41.88,55.38,37.2l-2.56,2.55,4.69,4.68a1.8,1.8,0,0,0,2.55-2.55Z"/><path class="cls-2" d="M58.78,45.46a2.3,2.3,0,0,1-1.63-.68L52.47,40.1a.51.51,0,0,1-.15-.35.55.55,0,0,1,.15-.36L55,36.84a.51.51,0,0,1,.71,0l4.68,4.68h0a2.29,2.29,0,0,1,.68,1.63,2.26,2.26,0,0,1-.68,1.63A2.3,2.3,0,0,1,58.78,45.46Zm-5.25-5.71,4.33,4.32a1.3,1.3,0,0,0,1.84,0,1.27,1.27,0,0,0,.39-.92,1.29,1.29,0,0,0-.39-.92L55.38,37.9Z"/><path class="cls-1" d="M66,35.92l-4.69-4.68-2.55,2.55,4.68,4.68A1.81,1.81,0,0,0,66,35.92Z"/><path class="cls-2" d="M64.74,39.5a2.29,2.29,0,0,1-1.63-.67l-4.68-4.69a.48.48,0,0,1,0-.7L61,30.88a.51.51,0,0,1,.71,0l4.68,4.69h0a2.3,2.3,0,0,1-1.63,3.93Zm-5.25-5.71,4.32,4.33a1.35,1.35,0,0,0,1.85,0,1.32,1.32,0,0,0,0-1.85L61.33,32Z"/><path class="cls-1" d="M48.14,53.79l-4.68-4.68-2.55,2.55,4.68,4.68a1.8,1.8,0,0,0,2.55-2.55Z"/><path class="cls-2" d="M46.87,57.37a2.29,2.29,0,0,1-1.63-.67L40.56,52a.5.5,0,0,1,0-.71l2.55-2.55a.5.5,0,0,1,.71,0l4.68,4.68h0a2.3,2.3,0,0,1-1.63,3.93Zm-5.25-5.71L45.94,56a1.35,1.35,0,0,0,1.85,0,1.32,1.32,0,0,0,0-1.85l-4.33-4.32Z"/><path class="cls-1" d="M54.1,47.83l-4.68-4.68-2.55,2.56,4.68,4.68a1.81,1.81,0,1,0,2.55-2.56Z"/><path class="cls-2" d="M52.82,51.41a2.29,2.29,0,0,1-1.63-.67l-4.68-4.68a.51.51,0,0,1,0-.71l2.56-2.55a.5.5,0,0,1,.7,0l4.68,4.68a2.31,2.31,0,0,1,0,3.26A2.28,2.28,0,0,1,52.82,51.41Zm-5.25-5.7L51.9,50a1.33,1.33,0,0,0,1.85,0,1.3,1.3,0,0,0,0-1.84l-4.33-4.33Z"/><path class="cls-1" d="M72,32.51A1.79,1.79,0,0,0,72,30l-4.68-4.68-2.55,2.55,4.68,4.68A1.79,1.79,0,0,0,72,32.51Z"/><path class="cls-2" d="M70.69,33.54a2.29,2.29,0,0,1-1.63-.67l-4.67-4.68a.5.5,0,0,1,0-.71l2.55-2.55a.5.5,0,0,1,.7,0l4.69,4.68a2.32,2.32,0,0,1,0,3.26h0A2.3,2.3,0,0,1,70.69,33.54Zm-5.24-5.71,4.32,4.33a1.35,1.35,0,0,0,1.85,0h0a1.3,1.3,0,0,0,0-1.84L67.29,26ZM72,32.51h0Z"/><path class="cls-1" d="M28.57,12.94a1.82,1.82,0,0,0,0,2.56l4.68,4.68,2.56-2.56-4.69-4.68A1.81,1.81,0,0,0,28.57,12.94Z"/><path class="cls-2" d="M33.25,20.68a.49.49,0,0,1-.35-.15l-4.68-4.68a2.31,2.31,0,0,1,3.26-3.26l4.68,4.68a.51.51,0,0,1,0,.71l-2.55,2.55A.51.51,0,0,1,33.25,20.68Zm-3.4-7.77a1.3,1.3,0,0,0-.92,2.23l4.32,4.33,1.85-1.85L30.77,13.3A1.29,1.29,0,0,0,29.85,12.91Z"/><path class="cls-1" d="M34.53,7a1.79,1.79,0,0,0,0,2.55l4.68,4.68,2.55-2.55L37.08,7A1.79,1.79,0,0,0,34.53,7Z"/><path class="cls-2" d="M39.21,14.72a.51.51,0,0,1-.36-.15L34.18,9.89a2.26,2.26,0,0,1-.68-1.63,2.31,2.31,0,0,1,3.94-1.63l4.68,4.68a.52.52,0,0,1,.14.36.5.5,0,0,1-.14.35l-2.56,2.55A.49.49,0,0,1,39.21,14.72ZM35.81,7a1.3,1.3,0,0,0-.93.38h0a1.32,1.32,0,0,0-.38.92,1.3,1.3,0,0,0,.38.92l4.33,4.33,1.85-1.84L36.73,7.34A1.29,1.29,0,0,0,35.81,7ZM34.53,7h0Z"/><path class="cls-1" d="M16.66,24.86a1.79,1.79,0,0,0,0,2.55l4.68,4.68,2.55-2.55-4.68-4.68A1.79,1.79,0,0,0,16.66,24.86Z"/><path class="cls-2" d="M21.34,32.59a.51.51,0,0,1-.36-.15L16.3,27.76a2.29,2.29,0,0,1-.67-1.63,2.3,2.3,0,0,1,3.93-1.63l4.68,4.68a.5.5,0,0,1,0,.71l-2.55,2.55A.47.47,0,0,1,21.34,32.59Zm-3.41-7.76a1.29,1.29,0,0,0-.92.38h0a1.32,1.32,0,0,0-.38.92,1.34,1.34,0,0,0,.38.93l4.33,4.32,1.84-1.84-4.32-4.33A1.3,1.3,0,0,0,17.93,24.83Zm-1.27,0h0Z"/><path class="cls-1" d="M42.19,59.75l-4.68-4.68L35,57.62l4.68,4.68a1.81,1.81,0,0,0,2.56-2.55Z"/><path class="cls-2" d="M40.91,63.33a2.3,2.3,0,0,1-1.63-.68L34.6,58a.48.48,0,0,1,0-.7l2.55-2.56a.51.51,0,0,1,.71,0l4.68,4.68a2.31,2.31,0,0,1-1.63,3.94Zm-5.25-5.71L40,62a1.3,1.3,0,1,0,1.84-1.85h0l-4.32-4.33Z"/><path class="cls-1" d="M10.7,30.81a1.82,1.82,0,0,0,0,2.56l4.68,4.68,2.55-2.56-4.68-4.68A1.81,1.81,0,0,0,10.7,30.81Z"/><path class="cls-2" d="M15.38,38.55A.49.49,0,0,1,15,38.4l-4.68-4.68a2.31,2.31,0,0,1,0-3.26h0a2.36,2.36,0,0,1,3.26,0l4.68,4.68a.51.51,0,0,1,0,.71L15.73,38.4A.47.47,0,0,1,15.38,38.55Zm-4.33-7.38a1.3,1.3,0,0,0,0,1.84l4.33,4.33,1.85-1.85L12.9,31.17a1.33,1.33,0,0,0-1.85,0Z"/><path class="cls-1" d="M22.61,18.9a1.81,1.81,0,0,0,0,2.55l4.69,4.68,2.55-2.55L25.17,18.9A1.8,1.8,0,0,0,22.61,18.9Z"/><path class="cls-2" d="M27.3,26.63a.52.52,0,0,1-.36-.14l-4.68-4.68a2.33,2.33,0,0,1-.67-1.63,2.3,2.3,0,0,1,3.93-1.63l4.68,4.68a.48.48,0,0,1,0,.7l-2.55,2.56A.5.5,0,0,1,27.3,26.63Zm-3.41-7.76a1.32,1.32,0,0,0-.92.38,1.32,1.32,0,0,0,0,1.85l4.33,4.33,1.84-1.85-4.33-4.33A1.3,1.3,0,0,0,23.89,18.87Z"/><path class="cls-1" d="M40.48,1a1.81,1.81,0,0,0,0,2.55l4.69,4.68,2.55-2.55L43,1A1.8,1.8,0,0,0,40.48,1Z"/><path class="cls-2" d="M45.17,8.76a.52.52,0,0,1-.36-.14L40.13,3.93a2.31,2.31,0,0,1,0-3.26h0a2.31,2.31,0,0,1,3.26,0l4.68,4.69a.48.48,0,0,1,0,.7L45.52,8.62A.5.5,0,0,1,45.17,8.76ZM40.84,1.38a1.31,1.31,0,0,0,0,1.85l4.33,4.32L47,5.71,42.69,1.38a1.35,1.35,0,0,0-1.85,0Z"/><path class="cls-1" d="M27.72,47.83a1.8,1.8,0,1,1,0-2.55A1.79,1.79,0,0,1,27.72,47.83Z"/><path class="cls-2" d="M26.44,48.86a2.29,2.29,0,0,1-1.63-.67,2.31,2.31,0,1,1,3.26,0A2.29,2.29,0,0,1,26.44,48.86Zm0-3.61a1.33,1.33,0,0,0-.92.38,1.31,1.31,0,1,0,1.85,0A1.33,1.33,0,0,0,26.44,45.25Z"/><path class="cls-1" d="M33.68,41.88a1.81,1.81,0,1,1,0-2.56A1.82,1.82,0,0,1,33.68,41.88Z"/><path class="cls-2" d="M32.4,42.9a2.29,2.29,0,0,1-1.63-.67,2.33,2.33,0,0,1-.67-1.63A2.3,2.3,0,0,1,34,39a2.26,2.26,0,0,1,.68,1.63,2.3,2.3,0,0,1-2.31,2.3Zm0-3.6a1.3,1.3,0,0,0-.92,2.22,1.3,1.3,0,0,0,1.84,0,1.3,1.3,0,0,0-.92-2.22Z"/><path class="cls-1" d="M21.76,41.88a1.81,1.81,0,1,1,0-2.56A1.81,1.81,0,0,1,21.76,41.88Z"/><path class="cls-2" d="M20.49,42.9a2.3,2.3,0,0,1-2.31-2.3A2.26,2.26,0,0,1,18.86,39a2.31,2.31,0,1,1,3.26,3.26h0A2.29,2.29,0,0,1,20.49,42.9Zm0-3.61a1.31,1.31,0,1,0,.92.39A1.28,1.28,0,0,0,20.49,39.29Zm1.27,2.59h0Z"/><path class="cls-1" d="M27.72,35.92a1.81,1.81,0,0,1-2.55,0,1.8,1.8,0,1,1,2.55,0Z"/><path class="cls-2" d="M26.44,37a2.31,2.31,0,1,1,1.63-.68A2.3,2.3,0,0,1,26.44,37Zm0-3.61a1.29,1.29,0,0,0-.92.38,1.31,1.31,0,0,0,0,1.85,1.33,1.33,0,0,0,1.85,0,1.31,1.31,0,0,0,0-1.85A1.29,1.29,0,0,0,26.44,33.34Z"/><path class="cls-1" d="M33.68,30a1.81,1.81,0,1,1,0-2.55A1.8,1.8,0,0,1,33.68,30Z"/><path class="cls-2" d="M32.4,31a2.34,2.34,0,0,1-1.63-.67,2.31,2.31,0,1,1,3.26,0h0A2.34,2.34,0,0,1,32.4,31Zm0-3.61a1.31,1.31,0,0,0-.92,2.23,1.3,1.3,0,0,0,1.84,0h0a1.31,1.31,0,0,0-.92-2.23ZM33.68,30h0Z"/><path class="cls-1" d="M39.63,24a1.81,1.81,0,1,1,0-2.56A1.81,1.81,0,0,1,39.63,24Z"/><path class="cls-2" d="M38.36,25A2.3,2.3,0,1,1,40,24.36,2.29,2.29,0,0,1,38.36,25Zm0-3.61a1.26,1.26,0,0,0-.92.39,1.3,1.3,0,1,0,1.84,0A1.28,1.28,0,0,0,38.36,21.42Z"/><path class="cls-1" d="M45.59,18.05a1.81,1.81,0,0,1-2.55,0,1.8,1.8,0,1,1,2.55,0Z"/><path class="cls-2" d="M44.31,19.08a2.28,2.28,0,0,1-1.62-.68,2.28,2.28,0,1,1,1.62.68Zm0-3.61a1.3,1.3,0,0,0-.92,2.22,1.3,1.3,0,0,0,1.85-1.84A1.29,1.29,0,0,0,44.31,15.47Z"/><path class="cls-1" d="M51.55,12.09a1.8,1.8,0,1,1,0-2.55A1.81,1.81,0,0,1,51.55,12.09Z"/><path class="cls-2" d="M50.27,13.12A2.3,2.3,0,0,1,48,10.81a2.33,2.33,0,0,1,.67-1.63,2.36,2.36,0,0,1,3.26,0,2.29,2.29,0,0,1,.68,1.63,2.26,2.26,0,0,1-.68,1.63h0A2.26,2.26,0,0,1,50.27,13.12Zm0-3.61a1.32,1.32,0,0,0-.92.38,1.32,1.32,0,0,0,0,1.85,1.34,1.34,0,0,0,1.84,0h0a1.31,1.31,0,0,0-.92-2.23Z"/><path class="cls-1" d="M33.68,53.79a1.81,1.81,0,1,1-2.56-2.55,1.81,1.81,0,0,1,2.56,2.55Z"/><path class="cls-2" d="M32.4,54.82a2.31,2.31,0,1,1,2.31-2.31A2.26,2.26,0,0,1,34,54.14h0A2.3,2.3,0,0,1,32.4,54.82Zm0-3.61a1.31,1.31,0,0,0-.92.38,1.28,1.28,0,0,0-.38.92,1.3,1.3,0,0,0,.38.93,1.32,1.32,0,0,0,1.84,0h0a1.31,1.31,0,0,0,.39-.93,1.29,1.29,0,0,0-.39-.92A1.31,1.31,0,0,0,32.4,51.21Z"/><path class="cls-1" d="M39.63,47.83a1.79,1.79,0,0,1-2.55,0,1.81,1.81,0,0,1,0-2.55,1.8,1.8,0,1,1,2.55,2.55Z"/><path class="cls-2" d="M38.36,48.86A2.3,2.3,0,1,1,40,48.19,2.29,2.29,0,0,1,38.36,48.86Zm0-3.61a1.29,1.29,0,0,0-.92.38,1.3,1.3,0,1,0,.92-.38Z"/><path class="cls-1" d="M45.59,41.88a1.81,1.81,0,1,1,0-2.56A1.81,1.81,0,0,1,45.59,41.88Z"/><path class="cls-2" d="M44.31,42.9a2.27,2.27,0,0,1-1.62-.67A2.29,2.29,0,0,1,42,40.6,2.26,2.26,0,0,1,42.69,39a2.29,2.29,0,0,1,3.25,0,2.26,2.26,0,0,1,.68,1.63,2.3,2.3,0,0,1-2.31,2.3Zm0-3.6a1.29,1.29,0,0,0-.92.38,1.32,1.32,0,1,0,.92-.38Z"/><path class="cls-1" d="M51.55,35.92a1.81,1.81,0,0,1-2.55,0,1.8,1.8,0,1,1,2.55-2.55A1.81,1.81,0,0,1,51.55,35.92Z"/><path class="cls-2" d="M50.27,37A2.31,2.31,0,0,1,48.64,33a2.36,2.36,0,0,1,3.26,0,2.31,2.31,0,0,1,0,3.26A2.26,2.26,0,0,1,50.27,37Zm0-3.61a1.28,1.28,0,0,0-.92.38,1.31,1.31,0,0,0,0,1.85,1.34,1.34,0,0,0,1.84,0,1.31,1.31,0,0,0,0-1.85A1.26,1.26,0,0,0,50.27,33.34Z"/><path class="cls-1" d="M57.51,30a1.81,1.81,0,1,1,0-2.55A1.8,1.8,0,0,1,57.51,30Z"/><path class="cls-2" d="M56.23,31a2.34,2.34,0,0,1-1.63-.67,2.31,2.31,0,1,1,3.26,0h0A2.34,2.34,0,0,1,56.23,31Zm0-3.61a1.29,1.29,0,0,0-.92.38,1.3,1.3,0,0,0,1.84,1.85h0a1.31,1.31,0,0,0-.92-2.23ZM57.51,30h0Z"/><path class="cls-1" d="M63.46,24a1.81,1.81,0,1,1,0-2.56A1.81,1.81,0,0,1,63.46,24Z"/><path class="cls-2" d="M62.19,25a2.3,2.3,0,0,1-1.63-3.93,2.35,2.35,0,0,1,3.25,0,2.31,2.31,0,0,1,0,3.26h0A2.29,2.29,0,0,1,62.19,25Zm0-3.61a1.31,1.31,0,0,0-.93,2.23,1.35,1.35,0,0,0,1.85,0h0a1.31,1.31,0,0,0-.92-2.23Z"/><path class="cls-1" d="M39.63,35.92a1.8,1.8,0,0,1-2.55-2.55,1.8,1.8,0,1,1,2.55,2.55Z"/><path class="cls-2" d="M38.36,37A2.31,2.31,0,1,1,40,36.27,2.3,2.3,0,0,1,38.36,37Zm0-3.61a1.25,1.25,0,0,0-.92.38,1.3,1.3,0,1,0,1.84,0A1.27,1.27,0,0,0,38.36,33.34Z"/><path class="cls-1" d="M45.59,30a1.8,1.8,0,1,1,0-2.55A1.79,1.79,0,0,1,45.59,30Z"/><path class="cls-2" d="M44.31,31a2.3,2.3,0,1,1,1.63-.67h0A2.32,2.32,0,0,1,44.31,31Zm0-3.61a1.33,1.33,0,0,0-.92.38,1.31,1.31,0,1,0,1.85,1.85h0a1.31,1.31,0,0,0,0-1.85A1.33,1.33,0,0,0,44.31,27.38ZM45.59,30h0Z"/><path class="cls-1" d="M51.55,24a1.81,1.81,0,1,1,0-2.56A1.81,1.81,0,0,1,51.55,24Z"/><path class="cls-2" d="M50.27,25a2.3,2.3,0,0,1-1.63-3.93,2.36,2.36,0,0,1,3.26,0A2.3,2.3,0,0,1,50.27,25Zm0-3.61a1.31,1.31,0,0,0-.92,2.23,1.34,1.34,0,0,0,1.84,0,1.3,1.3,0,0,0,0-1.84A1.27,1.27,0,0,0,50.27,21.42Z"/><path class="cls-1" d="M57.51,18.05A1.81,1.81,0,0,1,55,15.5a1.81,1.81,0,1,1,2.56,2.55Z"/><path class="cls-2" d="M56.23,19.08a2.31,2.31,0,1,1,1.63-.68A2.3,2.3,0,0,1,56.23,19.08Zm0-3.61a1.25,1.25,0,0,0-.92.38,1.3,1.3,0,1,0,1.84,0A1.27,1.27,0,0,0,56.23,15.47Z"/><path class="cls-4" d="M12.64,63.79a.45.45,0,0,1-.34-.14.49.49,0,0,1,0-.7l8.65-9a.5.5,0,0,1,.71,0,.49.49,0,0,1,0,.7l-8.64,9A.51.51,0,0,1,12.64,63.79Z"/><path class="cls-4" d="M8,68.6a.52.52,0,0,1-.35-.14.5.5,0,0,1,0-.71L10,65.31a.5.5,0,0,1,.72.69L8.38,68.44A.48.48,0,0,1,8,68.6Z"/></g></g></svg>