<svg xmlns="http://www.w3.org/2000/svg" viewBox="0 0 73 73"><defs><style>.cls-1{fill:#f29e8c;}.cls-2{fill:#fff;}.cls-3{fill:#1b3249;}.cls-4{fill:#edc16b;}</style></defs><title>Asset 301</title><g id="Layer_2" data-name="Layer 2"><g id="_1" data-name="1"><rect class="cls-1" x="10.5" y="28.5" width="52" height="4"/><rect class="cls-2" x="10.5" y="28.5" width="52" height="4"/><path class="cls-1" d="M4.5,66.5h64a4,4,0,0,1,4,4v2a0,0,0,0,1,0,0H.5a0,0,0,0,1,0,0v-2A4,4,0,0,1,4.5,66.5Z"/><path class="cls-1" d="M10.5,66.5h-6v-38a3,3,0,0,1,3-3h0a3,3,0,0,1,3,3Z"/><path class="cls-1" d="M68.5,66.5h-6v-38a3,3,0,0,1,3-3h0a3,3,0,0,1,3,3Z"/><path class="cls-3" d="M62.5,33h-52a.5.5,0,0,1-.5-.5v-4a.5.5,0,0,1,.5-.5h52a.5.5,0,0,1,.5.5v4A.5.5,0,0,1,62.5,33ZM11,32H62V29H11Z"/><path class="cls-3" d="M62.5,33h-52a.5.5,0,0,1-.5-.5v-4a.5.5,0,0,1,.5-.5h52a.5.5,0,0,1,.5.5v4A.5.5,0,0,1,62.5,33ZM11,32H62V29H11Z"/><path class="cls-3" d="M72.5,73H.5a.5.5,0,0,1-.5-.5v-2A4.51,4.51,0,0,1,4.5,66h2a.5.5,0,0,1,0,1h-2A3.5,3.5,0,0,0,1,70.5V72H72V70.5A3.5,3.5,0,0,0,68.5,67a.5.5,0,0,1,0-1A4.51,4.51,0,0,1,73,70.5v2A.5.5,0,0,1,72.5,73Z"/><path class="cls-3" d="M64.5,67h-54a.5.5,0,0,1,0-1h54a.5.5,0,0,1,0,1Z"/><path class="cls-3" d="M10.5,67a.5.5,0,0,1-.5-.5v-38a2.5,2.5,0,0,0-5,0v38a.5.5,0,0,1-1,0v-38a3.5,3.5,0,0,1,7,0v38A.5.5,0,0,1,10.5,67Z"/><path class="cls-3" d="M68.5,67a.5.5,0,0,1-.5-.5v-38a2.5,2.5,0,0,0-5,0v38a.5.5,0,0,1-1,0v-38a3.5,3.5,0,0,1,7,0v38A.5.5,0,0,1,68.5,67Z"/><path class="cls-4" d="M54.5,60.5h-36a2,2,0,0,1-2-2v-38a20,20,0,0,1,20-20h0a20,20,0,0,1,20,20v38A2,2,0,0,1,54.5,60.5Z"/><path class="cls-4" d="M54.5,60.5h-36a2,2,0,0,1-2-2v-38a20,20,0,0,1,20-20h0a20,20,0,0,1,20,20v38A2,2,0,0,1,54.5,60.5Z"/><path class="cls-3" d="M54.5,61h-36A2.5,2.5,0,0,1,16,58.5v-38a20.5,20.5,0,0,1,41,0v38A2.5,2.5,0,0,1,54.5,61ZM36.5,1A19.53,19.53,0,0,0,17,20.5v38A1.5,1.5,0,0,0,18.5,60h36A1.5,1.5,0,0,0,56,58.5v-38A19.53,19.53,0,0,0,36.5,1Z"/><path class="cls-3" d="M54.5,61h-36A2.5,2.5,0,0,1,16,58.5v-38a20.5,20.5,0,0,1,41,0v38A2.5,2.5,0,0,1,54.5,61ZM36.5,1A19.53,19.53,0,0,0,17,20.5v38A1.5,1.5,0,0,0,18.5,60h36A1.5,1.5,0,0,0,56,58.5v-38A19.53,19.53,0,0,0,36.5,1Z"/><path class="cls-2" d="M34.21,36.79a1,1,0,0,1-.71-.29,1,1,0,0,1,0-1.42L47.79,20.79a1,1,0,0,1,1.42,1.42L34.92,36.5A1,1,0,0,1,34.21,36.79Z"/><path class="cls-2" d="M24.5,46.5a1,1,0,0,1-.71-.29,1,1,0,0,1,0-1.42l5.71-5.71a1,1,0,0,1,1.42,1.42l-5.71,5.71A1,1,0,0,1,24.5,46.5Z"/><path class="cls-2" d="M24.5,34.5a1,1,0,0,1-.71-.29,1,1,0,0,1,0-1.42l16-16a1,1,0,0,1,1.42,1.42l-16,16A1,1,0,0,1,24.5,34.5Z"/><path class="cls-2" d="M34.5,48.5a1,1,0,0,1-.71-.29,1,1,0,0,1,0-1.42l14-14a1,1,0,0,1,1.42,1.42l-14,14A1,1,0,0,1,34.5,48.5Z"/></g></g></svg>