<svg xmlns="http://www.w3.org/2000/svg" viewBox="0 0 73 73"><defs><style>.cls-1{fill:#edc16b;}.cls-2{fill:#f29e8c;}.cls-3{fill:#1b3249;}.cls-4{fill:#fff;}</style></defs><title>Asset 81</title><g id="Layer_2" data-name="Layer 2"><g id="_1" data-name="1"><circle class="cls-1" cx="36.5" cy="36.5" r="36"/><path class="cls-2" d="M36.5,13.5c-19.18-7.28-22.37,12-16.82,18.13H53.37C58.13,25.77,56,6.22,36.5,13.5Z"/><path class="cls-3" d="M53.37,32.13a.5.5,0,0,1-.39-.82c2.56-3.14,3-10.34-.28-14.89-2.18-3-6.73-5.93-16-2.45a.53.53,0,0,1-.35,0C28.88,11.14,23,12.12,19.88,16.73s-2.55,11.54.17,14.57a.5.5,0,1,1-.74.66c-3.35-3.72-3.47-11.11-.25-15.8C21,13.27,25.93,9,36.5,13c10.29-3.78,15.07.16,17,2.86,3.53,4.91,3,12.69.25,16.12A.5.5,0,0,1,53.37,32.13Z"/><path class="cls-2" d="M61.39,62.49c-2.93-.57-6.34-1.06-8.37-1.6l-6.14-1.66H26.1L20,60.89c-2,.54-5.43,1-8.36,1.6a36,36,0,0,0,49.79,0Z"/><path class="cls-3" d="M36.5,73A36.29,36.29,0,0,1,11.26,62.85a.47.47,0,0,1-.13-.5.5.5,0,0,1,.38-.35c1.09-.21,2.24-.42,3.36-.61,1.91-.33,3.71-.65,5-1L26,58.75l.13,0H46.88l.13,0,6.14,1.66c1.25.33,3.05.64,5,1,1.13.19,2.29.4,3.38.61a.5.5,0,0,1,.38.35.47.47,0,0,1-.13.5A36.29,36.29,0,0,1,36.5,73ZM12.67,62.8a35.46,35.46,0,0,0,47.66,0l-2.39-.43c-1.93-.33-3.75-.65-5-1l-6.09-1.64H26.17l-6.08,1.64c-1.29.35-3.12.67-5,1Z"/><path class="cls-4" d="M44.25,41.15l2.63,18.08a17.45,17.45,0,0,1-20.78,0l2.63-18.08Z"/><path class="cls-3" d="M36.5,63.16a17.62,17.62,0,0,1-10.72-3.54.51.51,0,0,1-.17-.46l2.62-18.08a.51.51,0,0,1,.5-.43H44.25a.51.51,0,0,1,.5.42l2.63,18.09a.49.49,0,0,1-.18.45A17.43,17.43,0,0,1,36.5,63.16ZM26.64,59a17,17,0,0,0,19.7,0L43.82,41.65H29.16Z"/><path class="cls-4" d="M53.37,31.63a3.16,3.16,0,0,0-2.45.41,11.2,11.2,0,0,1-8.42-9.62c-4.74,3.1-9.07-.46-15.32,3.34A11.33,11.33,0,0,0,22.05,32a3.15,3.15,0,0,0-2.45-.41c-1.43.39-2.48,2.39-2.25,5s1.62,4.62,3.1,4.47A1.68,1.68,0,0,0,21,41C22.26,46,24,56.5,36.49,56.5S50.71,46,52,41a1.56,1.56,0,0,0,.52.15c1.48.15,2.86-1.86,3.1-4.47S54.8,32,53.37,31.63Z"/><path class="cls-3" d="M36.49,57C24.36,57,22,47.3,20.74,42.09l-.12-.5H20.5A2.36,2.36,0,0,1,18.76,41a6.42,6.42,0,0,1-1.9-4.34c-.25-2.73.85-5.05,2.61-5.53a3.36,3.36,0,0,1,2.29.18,12.16,12.16,0,0,1,5.16-6,14.92,14.92,0,0,1,8.87-2c2.32,0,4.32.06,6.44-1.33a.49.49,0,0,1,.77.39,10.61,10.61,0,0,0,7.87,9.11,3.43,3.43,0,0,1,2.63-.35h0c1.76.48,2.86,2.81,2.62,5.53A6.43,6.43,0,0,1,54.21,41a2.36,2.36,0,0,1-1.74.58h-.12l-.12.5C51,47.3,48.61,57,36.49,57ZM21,40.46a.52.52,0,0,1,.21,0,.55.55,0,0,1,.27.33c.08.32.17.66.25,1C23,47.14,25.15,56,36.49,56S50,47.14,51.26,41.85l.25-1a.55.55,0,0,1,.27-.33.5.5,0,0,1,.43,0,1.21,1.21,0,0,0,.36.1,1.38,1.38,0,0,0,1-.36,5.52,5.52,0,0,0,1.55-3.66c.23-2.51-.8-4.18-1.88-4.48h0a2.45,2.45,0,0,0-1.92.29l-.25.12a.57.57,0,0,1-.29,0,11.82,11.82,0,0,1-8.67-9.29c-2.13,1.15-4.18,1.13-6.33,1.1-2.55,0-5.18-.07-8.34,1.86a10.94,10.94,0,0,0-4.9,6,.5.5,0,0,1-.64.36l-.25-.12a2.43,2.43,0,0,0-1.92-.29c-1.08.3-2.1,2-1.88,4.48a5.56,5.56,0,0,0,1.55,3.66,1.39,1.39,0,0,0,1,.36,1.21,1.21,0,0,0,.36-.1A.42.42,0,0,1,21,40.46Z"/><path class="cls-3" d="M36.5,73A36.5,36.5,0,1,1,73,36.5,36.54,36.54,0,0,1,36.5,73Zm0-72A35.5,35.5,0,1,0,72,36.5,35.54,35.54,0,0,0,36.5,1Z"/><path class="cls-4" d="M64,53.3a.47.47,0,0,1-.25-.07.51.51,0,0,1-.18-.69,31.49,31.49,0,0,0-5.14-38.61.5.5,0,1,1,.7-.72,32.5,32.5,0,0,1,5.3,39.84A.5.5,0,0,1,64,53.3Z"/><path class="cls-4" d="M55,10.89a.46.46,0,0,1-.29-.1,31.8,31.8,0,0,0-8-4.1A.5.5,0,1,1,47,5.75,32.2,32.2,0,0,1,55.29,10a.5.5,0,0,1,.12.69A.5.5,0,0,1,55,10.89Z"/><path class="cls-2" d="M37.9,41.33a2.9,2.9,0,0,0-1.66,1.56,2.9,2.9,0,0,0-1.66-1.56C29.88,39.58,31,47.21,24.74,48c4.79,1.27,8.65.87,10.58-1.21a1.23,1.23,0,0,1,1.84,0C39.09,48.89,43,49.29,47.74,48,41.51,47.21,42.6,39.58,37.9,41.33Z"/><path class="cls-3" d="M29.76,49.25a20.8,20.8,0,0,1-5.15-.74.5.5,0,0,1-.37-.52.49.49,0,0,1,.43-.46c2.87-.38,4.07-2.34,5.13-4.07s2.21-3.62,4.95-2.6a3.42,3.42,0,0,1,1.49,1.07,3.37,3.37,0,0,1,1.49-1.07h0c2.73-1,3.86.82,5,2.6s2.25,3.69,5.13,4.07a.49.49,0,0,1,.43.46.5.5,0,0,1-.37.52c-5.09,1.34-9,.85-11.08-1.36a.73.73,0,0,0-1.1,0C34.39,48.54,32.36,49.25,29.76,49.25Zm-3-1.28c3.73.65,6.65.13,8.16-1.5a1.78,1.78,0,0,1,2.58,0C39,48.1,42,48.62,45.68,48a9.06,9.06,0,0,1-3.86-4c-1.2-2-1.86-2.89-3.74-2.19A2.47,2.47,0,0,0,36.7,43.1a.53.53,0,0,1-.92,0,2.47,2.47,0,0,0-1.38-1.31c-1.88-.7-2.54.22-3.75,2.19A9,9,0,0,1,26.79,48Z"/></g></g></svg>