<svg xmlns="http://www.w3.org/2000/svg" viewBox="0 0 73 73"><defs><style>.cls-1{fill:#edc16b;}.cls-2{fill:#1b3249;}.cls-3{fill:#f29e8c;}.cls-4{fill:#fff;}</style></defs><title>Asset 281</title><g id="Layer_2" data-name="Layer 2"><g id="_1" data-name="1"><path class="cls-1" d="M72.23,1.54h0a2.07,2.07,0,0,1-.77,2.81l-32,18.11a2,2,0,0,0-1,1.89l.16,3.08a4.12,4.12,0,0,1-2.09,3.79L10.91,45.68A4.11,4.11,0,0,1,6,45.07L.5,39.75,69.43.77A2,2,0,0,1,72.23,1.54Z"/><path class="cls-2" d="M8.88,46.72a4.6,4.6,0,0,1-3.19-1.29L.15,40.12A.52.52,0,0,1,0,39.69a.53.53,0,0,1,.25-.37L69.18.33a2.57,2.57,0,0,1,3.49,1h0a2.56,2.56,0,0,1-1,3.48l-32,18.11a1.54,1.54,0,0,0-.79,1.44l.15,3.08a4.57,4.57,0,0,1-2.33,4.25L11.16,46.12A4.68,4.68,0,0,1,8.88,46.72ZM1.33,39.86l5.06,4.85a3.6,3.6,0,0,0,4.28.54L36.23,30.79a3.6,3.6,0,0,0,1.83-3.33l-.16-3.08A2.54,2.54,0,0,1,39.19,22l32-18.11a1.56,1.56,0,0,0,.59-2.12h0a1.56,1.56,0,0,0-2.12-.59Z"/><path class="cls-2" d="M7.36,41.1a.52.52,0,0,1-.44-.25.5.5,0,0,1,.19-.68L34,25a.49.49,0,0,1,.68.18.51.51,0,0,1-.19.69L7.61,41A.57.57,0,0,1,7.36,41.1Z"/><path class="cls-3" d="M58.75,7c.09,15.14-5.3,30.51-13,43.42a61,61,0,0,1-9,11.58,6.35,6.35,0,0,0-.47,8.65,5.63,5.63,0,0,0,8.47-.17c7.9-8.92,25.57-31.62,21.76-64.34C65.87.91,58.6,1.94,58.75,7Z"/><path class="cls-2" d="M40.32,73h0a5.85,5.85,0,0,1-4.43-2,6.87,6.87,0,0,1,.5-9.34,60.53,60.53,0,0,0,8.91-11.48c8.44-14.08,13-29.4,13-43.15A4.54,4.54,0,0,1,62.5,2.19,4.1,4.1,0,0,1,67,6.09c2.7,23.15-4.87,45.53-21.88,64.73A6.37,6.37,0,0,1,40.32,73ZM62.83,3.18h-.25A3.57,3.57,0,0,0,59.25,7h0c.08,13.93-4.58,29.44-13.12,43.68a61.09,61.09,0,0,1-9.06,11.67,5.88,5.88,0,0,0-.45,8A4.88,4.88,0,0,0,40.3,72h0a5.38,5.38,0,0,0,4-1.84C61.16,51.18,68.64,29.07,66,6.21A3.1,3.1,0,0,0,62.83,3.18Z"/><path class="cls-4" d="M41.59,64a2.57,2.57,0,1,1-3.29,1.53A2.58,2.58,0,0,1,41.59,64Z"/><path class="cls-2" d="M40.71,69.51a3.07,3.07,0,0,1-1.29-5.85,3.09,3.09,0,0,1,2.35-.1,3.07,3.07,0,0,1-1.06,6Zm0-5.14a2.07,2.07,0,1,0,1.94,2.78,2.07,2.07,0,0,0-1.23-2.65h0A2.17,2.17,0,0,0,40.71,64.37Z"/><path class="cls-2" d="M63.23,5.39a1.54,1.54,0,1,1-2,.92A1.55,1.55,0,0,1,63.23,5.39Z"/><path class="cls-4" d="M47.84,60.6a.51.51,0,0,1-.31-.11.5.5,0,0,1-.09-.7,73.88,73.88,0,0,0,4.44-6.42.5.5,0,0,1,.85.52,70.9,70.9,0,0,1-4.5,6.51A.47.47,0,0,1,47.84,60.6Z"/><path class="cls-4" d="M54.6,50.12a.46.46,0,0,1-.23-.06.49.49,0,0,1-.21-.67A79.93,79.93,0,0,0,63,19.85a.5.5,0,0,1,.54-.46.5.5,0,0,1,.45.55A80.9,80.9,0,0,1,55,49.86.49.49,0,0,1,54.6,50.12Z"/></g></g></svg>