<svg xmlns="http://www.w3.org/2000/svg" viewBox="0 0 73 73"><defs><style>.cls-1{fill:#edc16b;}.cls-2{fill:#f29e8c;}.cls-3{fill:#1b3249;}.cls-4{fill:#fff;}</style></defs><title>Asset 311</title><g id="Layer_2" data-name="Layer 2"><g id="_1" data-name="1"><path class="cls-1" d="M66.5,29,65,30.5a2.12,2.12,0,0,1-3,0h0a2.12,2.12,0,0,1,0-3L63.5,26l5.25-5.25L52.25,4.25,47,9.5,45.5,11a2.12,2.12,0,0,1-3,0h0a2.12,2.12,0,0,1,0-3L44,6.5l-6-6L.5,38l6,6L8,42.5a2.12,2.12,0,0,1,3,0h0a2.12,2.12,0,0,1,0,3L9.5,47,4.25,52.25l16.5,16.5L26,63.5,27.5,62a2.12,2.12,0,0,1,3,0h0a2.12,2.12,0,0,1,0,3L29,66.5l6,6L72.5,35Z"/><path class="cls-1" d="M66.5,29,65,30.5a2.12,2.12,0,0,1-3,0h0a2.12,2.12,0,0,1,0-3L63.5,26l5.25-5.25L52.25,4.25,47,9.5,45.5,11a2.12,2.12,0,0,1-3,0h0a2.12,2.12,0,0,1,0-3L44,6.5l-6-6L.5,38l6,6L8,42.5a2.12,2.12,0,0,1,3,0h0a2.12,2.12,0,0,1,0,3L9.5,47,4.25,52.25l16.5,16.5L26,63.5,27.5,62a2.12,2.12,0,0,1,3,0h0a2.12,2.12,0,0,1,0,3L29,66.5l6,6L72.5,35Z"/><path class="cls-2" d="M66.5,29,65,30.5a2.12,2.12,0,0,1-3,0h0a2.12,2.12,0,0,1,0-3L63.5,26l5.25-5.25L52.25,4.25,47,9.5,45.5,11a2.12,2.12,0,0,1-3,0h0a2.12,2.12,0,0,1,0-3L44,6.5l-3-3L3.5,41l3,3L8,42.5a2.12,2.12,0,0,1,3,0h0a2.12,2.12,0,0,1,0,3L9.5,47,4.25,52.25l16.5,16.5L26,63.5,27.5,62a2.12,2.12,0,0,1,3,0h0a2.12,2.12,0,0,1,0,3L29,66.5l3,3L69.5,32Z"/><path class="cls-3" d="M35,73a.47.47,0,0,1-.35-.15l-6-6a.48.48,0,0,1,0-.7l1.5-1.5a1.64,1.64,0,0,0,0-2.3,1.67,1.67,0,0,0-2.3,0L21.1,69.1a.48.48,0,0,1-.7,0L3.9,52.6a.48.48,0,0,1,0-.7l6.75-6.75a1.64,1.64,0,0,0,0-2.3,1.67,1.67,0,0,0-2.3,0l-1.5,1.5a.48.48,0,0,1-.7,0l-6-6a.48.48,0,0,1,0-.7L37.65.15a.48.48,0,0,1,.7,0l6,6a.48.48,0,0,1,0,.7l-1.5,1.5a1.64,1.64,0,0,0,0,2.3,1.67,1.67,0,0,0,2.3,0L51.9,3.9a.48.48,0,0,1,.7,0L69.1,20.4a.48.48,0,0,1,0,.7l-6.75,6.75a1.64,1.64,0,0,0,0,2.3,1.67,1.67,0,0,0,2.3,0l1.5-1.5a.48.48,0,0,1,.7,0l6,6a.48.48,0,0,1,0,.7l-37.5,37.5A.47.47,0,0,1,35,73Zm-5.29-6.5L35,71.79,71.79,35,66.5,29.71l-1.15,1.14a2.68,2.68,0,0,1-3.7,0,2.6,2.6,0,0,1,0-3.7L68,20.75,52.25,5l-6.4,6.39a2.68,2.68,0,0,1-3.7,0,2.6,2.6,0,0,1,0-3.7L43.29,6.5,38,1.21,1.21,38,6.5,43.29l1.15-1.14a2.68,2.68,0,0,1,3.7,0,2.62,2.62,0,0,1,0,3.7L5,52.25,20.75,68l6.4-6.39a2.68,2.68,0,0,1,3.7,0,2.62,2.62,0,0,1,0,3.7Z"/><path class="cls-3" d="M3.5,41.5a.47.47,0,0,1-.35-.15.48.48,0,0,1,0-.7l37.5-37.5a.49.49,0,0,1,.7.7L3.85,41.35A.47.47,0,0,1,3.5,41.5Z"/><path class="cls-3" d="M32,70a.47.47,0,0,1-.35-.15.48.48,0,0,1,0-.7l37.5-37.5a.49.49,0,0,1,.7.7l-37.5,37.5A.47.47,0,0,1,32,70Z"/><path class="cls-4" d="M39.75,56.25a.47.47,0,0,1-.35-.15.48.48,0,0,1,0-.7l2.88-2.89a.5.5,0,1,1,.71.71L40.1,56.1A.47.47,0,0,1,39.75,56.25Z"/><path class="cls-4" d="M45.64,50.36a.54.54,0,0,1-.36-.14.51.51,0,0,1,0-.71L59.4,35.4a.49.49,0,0,1,.7.7L46,50.22A.54.54,0,0,1,45.64,50.36Z"/><path class="cls-4" d="M48.5,29a2.12,2.12,0,0,0,3-3l-.75-.75,4.5-4.5.75.75a2.12,2.12,0,0,0,3-3L54.5,14a2.12,2.12,0,0,0-3,3l.75.75-4.5,4.5L47,21.5a2.12,2.12,0,0,0-3,3l.75.75-6.32,6.32a5.29,5.29,0,0,0-6.86,6.86l-6.32,6.32L24.5,44a2.12,2.12,0,0,0-3,3l.75.75-4.5,4.5L17,51.5a2.12,2.12,0,0,0-3,3L18.5,59a2.12,2.12,0,0,0,3-3l-.75-.75,4.5-4.5.75.75a2.12,2.12,0,0,0,3-3l-.75-.75,6.32-6.32a5.29,5.29,0,0,0,6.86-6.86l6.32-6.32Z"/><path class="cls-3" d="M20,60.12a2.57,2.57,0,0,1-1.85-.77l-4.5-4.5a2.6,2.6,0,0,1,0-3.7,2.68,2.68,0,0,1,3.7,0l.4.39,3.79-3.79-.39-.4a2.6,2.6,0,0,1,0-3.7,2.68,2.68,0,0,1,3.7,0l.4.39L31,38.3A5.8,5.8,0,0,1,38.3,31L44,25.25l-.39-.4a2.6,2.6,0,0,1,0-3.7,2.68,2.68,0,0,1,3.7,0l.4.39,3.79-3.79-.39-.4a2.6,2.6,0,0,1,0-3.7,2.68,2.68,0,0,1,3.7,0l4.5,4.5a2.62,2.62,0,0,1,0,3.7,2.68,2.68,0,0,1-3.7,0l-.4-.39-3.79,3.79.39.4a2.62,2.62,0,0,1,0,3.7,2.68,2.68,0,0,1-3.7,0l-.4-.39L42,34.7A5.8,5.8,0,0,1,34.7,42L29,47.75l.39.4a2.62,2.62,0,0,1,0,3.7,2.68,2.68,0,0,1-3.7,0l-.4-.39-3.79,3.79.39.4a2.62,2.62,0,0,1,0,3.7A2.57,2.57,0,0,1,20,60.12Zm-4.5-8.74a1.65,1.65,0,0,0-1.15.47,1.64,1.64,0,0,0,0,2.3l4.5,4.5a1.67,1.67,0,0,0,2.3,0,1.64,1.64,0,0,0,0-2.3l-.75-.75a.48.48,0,0,1,0-.7l4.5-4.5a.48.48,0,0,1,.7,0l.75.75a1.67,1.67,0,0,0,2.3,0,1.64,1.64,0,0,0,0-2.3l-.75-.75a.48.48,0,0,1,0-.7l6.31-6.32a.51.51,0,0,1,.54-.11A4.8,4.8,0,0,0,41,34.75a.51.51,0,0,1,.11-.54L47.4,27.9a.48.48,0,0,1,.7,0l.75.75h0a1.67,1.67,0,0,0,2.3,0,1.64,1.64,0,0,0,0-2.3l-.75-.75a.48.48,0,0,1,0-.7l4.5-4.5a.48.48,0,0,1,.7,0l.75.75a1.67,1.67,0,0,0,2.3,0,1.64,1.64,0,0,0,0-2.3l-4.5-4.5a1.67,1.67,0,0,0-2.3,0,1.64,1.64,0,0,0,0,2.3l.75.75a.48.48,0,0,1,0,.7l-4.5,4.5a.48.48,0,0,1-.7,0l-.75-.75a1.67,1.67,0,0,0-2.3,0,1.64,1.64,0,0,0,0,2.3l.75.75a.48.48,0,0,1,0,.7l-6.31,6.32a.51.51,0,0,1-.54.11A4.8,4.8,0,0,0,32,38.25a.51.51,0,0,1-.11.54L25.6,45.1a.48.48,0,0,1-.7,0l-.75-.75a1.67,1.67,0,0,0-2.3,0,1.64,1.64,0,0,0,0,2.3l.75.75a.48.48,0,0,1,0,.7l-4.5,4.5a.48.48,0,0,1-.7,0l-.75-.75A1.65,1.65,0,0,0,15.5,51.38Z"/></g></g></svg>