<svg xmlns="http://www.w3.org/2000/svg" viewBox="0 0 65 73"><defs><style>.cls-1{fill:#f29e8c;}.cls-2{fill:#edc16b;}.cls-3{fill:#1b3249;}.cls-4{fill:#fff;}</style></defs><title>Asset 291</title><g id="Layer_2" data-name="Layer 2"><g id="_1" data-name="1"><path class="cls-1" d="M22.65,40.65h5.54V8.81A8.31,8.31,0,0,0,19.88.5h0a8.31,8.31,0,0,0-8.3,8.31V47.58H10.19A9.69,9.69,0,0,0,.5,57.27v5.54a9.69,9.69,0,0,0,9.69,9.69h0a9.69,9.69,0,0,0,9.69-9.69V43.42A2.77,2.77,0,0,1,22.65,40.65Z"/><path class="cls-2" d="M29.58,47.58H28.19V40.65H22.65a2.77,2.77,0,0,0-2.77,2.77V62.81h0v0h0a9.7,9.7,0,0,0,19.39,0V57.27A9.69,9.69,0,0,0,29.58,47.58Z"/><path class="cls-3" d="M29.58,73a10.23,10.23,0,0,1-9.7-7A10.19,10.19,0,0,1,0,62.81V57.27A10.2,10.2,0,0,1,10.19,47.08h.89V8.81a8.81,8.81,0,1,1,17.61,0V47.08h.89A10.2,10.2,0,0,1,39.77,57.27v5.54A10.2,10.2,0,0,1,29.58,73Zm-9.2-15.73v5.54a9.2,9.2,0,0,0,18.39,0V57.27a9.2,9.2,0,0,0-9.19-9.19H28.19a.51.51,0,0,1-.5-.5V8.81a7.81,7.81,0,1,0-15.61,0V47.58a.51.51,0,0,1-.5.5H10.19A9.2,9.2,0,0,0,1,57.27v5.54a9.19,9.19,0,0,0,18.38,0V57.27a.5.5,0,0,1,.5-.5A.5.5,0,0,1,20.38,57.27Z"/><path class="cls-4" d="M29.58,66.62h0a3.46,3.46,0,0,1-3.46-3.47V56.92a3.46,3.46,0,0,1,3.46-3.46h0A3.46,3.46,0,0,1,33,56.92v6.23A3.46,3.46,0,0,1,29.58,66.62Z"/><path class="cls-4" d="M10.19,66.62h0a3.46,3.46,0,0,1-3.46-3.47V56.92a3.46,3.46,0,0,1,3.46-3.46h0a3.46,3.46,0,0,1,3.46,3.46v6.23A3.46,3.46,0,0,1,10.19,66.62Z"/><path class="cls-3" d="M29.58,67.12a4,4,0,0,1-4-4V56.92a4,4,0,0,1,7.92,0v6.23A4,4,0,0,1,29.58,67.12Zm0-13.16a3,3,0,0,0-3,3v6.23a3,3,0,1,0,5.92,0V56.92A3,3,0,0,0,29.58,54Z"/><path class="cls-3" d="M10.19,67.12a4,4,0,0,1-4-4V56.92a4,4,0,0,1,7.92,0v6.23A4,4,0,0,1,10.19,67.12Zm0-13.16a3,3,0,0,0-3,3v6.23a3,3,0,1,0,5.92,0V56.92A3,3,0,0,0,10.19,54Z"/><path class="cls-3" d="M19.88,57.77a.5.5,0,0,1-.5-.5V43.42a3.28,3.28,0,0,1,3.27-3.27h5.54a.5.5,0,0,1,.5.5.5.5,0,0,1-.5.5H22.65a2.27,2.27,0,0,0-2.27,2.27V57.27A.5.5,0,0,1,19.88,57.77Z"/><path class="cls-2" d="M22.65,32.35a2.77,2.77,0,1,1-2.77-2.77A2.77,2.77,0,0,1,22.65,32.35Z"/><path class="cls-3" d="M19.88,35.62a3.27,3.27,0,1,1,3.27-3.27A3.27,3.27,0,0,1,19.88,35.62Zm0-5.54a2.27,2.27,0,1,0,2.27,2.27A2.27,2.27,0,0,0,19.88,30.08Z"/><path class="cls-2" d="M56.58,36.5H38.81a2,2,0,0,0-2,2h0a2,2,0,0,0,2,2H56.58a1,1,0,0,1,1,1V69A3.46,3.46,0,0,0,61,72.5h0A3.46,3.46,0,0,0,64.5,69V4A3.46,3.46,0,0,0,61,.5H38.81a2,2,0,0,0-2,2h0a2,2,0,0,0,2,2H56.58a1,1,0,0,1,1,1v3a1,1,0,0,1-1,1H38.81a2,2,0,0,0-2,2h0a2,2,0,0,0,2,2H56.58a1,1,0,0,1,1,1v3a1,1,0,0,1-1,1H38.81a2,2,0,0,0-2,2h0a2,2,0,0,0,2,2H56.58a1,1,0,0,1,1,1v3a1,1,0,0,1-1,1H38.81a2,2,0,0,0-2,2h0a2,2,0,0,0,2,2H56.58a1,1,0,0,1,1,1v3A1,1,0,0,1,56.58,36.5Z"/><path class="cls-3" d="M61,73a4,4,0,0,1-4-4V41.5a.5.5,0,0,0-.5-.5H38.81a2.5,2.5,0,0,1,0-5H56.58a.5.5,0,0,0,.5-.5v-3a.5.5,0,0,0-.5-.5H38.81a2.5,2.5,0,0,1,0-5H56.58a.5.5,0,0,0,.5-.5v-3a.5.5,0,0,0-.5-.5H38.81a2.5,2.5,0,0,1,0-5H56.58a.5.5,0,0,0,.5-.5v-3a.5.5,0,0,0-.5-.5H38.81a2.5,2.5,0,0,1,0-5H56.58a.5.5,0,0,0,.5-.5v-3a.5.5,0,0,0-.5-.5H38.81a2.5,2.5,0,0,1,0-5H61a4,4,0,0,1,4,4V69A4,4,0,0,1,61,73ZM38.81,37a1.5,1.5,0,0,0,0,3H56.58a1.5,1.5,0,0,1,1.5,1.5V69A3,3,0,1,0,64,69V4a3,3,0,0,0-3-3H38.81a1.5,1.5,0,0,0,0,3H56.58a1.5,1.5,0,0,1,1.5,1.5v3a1.5,1.5,0,0,1-1.5,1.5H38.81a1.5,1.5,0,0,0,0,3H56.58a1.5,1.5,0,0,1,1.5,1.5v3a1.5,1.5,0,0,1-1.5,1.5H38.81a1.5,1.5,0,0,0,0,3H56.58a1.5,1.5,0,0,1,1.5,1.5v3a1.5,1.5,0,0,1-1.5,1.5H38.81a1.5,1.5,0,0,0,0,3H56.58a1.5,1.5,0,0,1,1.5,1.5v3a1.5,1.5,0,0,1-1.5,1.5Z"/><path class="cls-4" d="M14.58,19.63a.5.5,0,0,1-.5-.5V11.81a.5.5,0,0,1,.5-.5.5.5,0,0,1,.5.5v7.32A.5.5,0,0,1,14.58,19.63Z"/><path class="cls-4" d="M14.58,42.08a.5.5,0,0,1-.5-.5V23.13a.5.5,0,0,1,.5-.5.5.5,0,0,1,.5.5V41.58A.51.51,0,0,1,14.58,42.08Z"/></g></g></svg>