<svg xmlns="http://www.w3.org/2000/svg" viewBox="0 0 73 73"><defs><style>.cls-1{fill:#edc16b;}.cls-2{fill:#f29e8c;}.cls-3{fill:#1b3249;}.cls-4{fill:#fff;}</style></defs><title>Asset 251</title><g id="Layer_2" data-name="Layer 2"><g id="_1" data-name="1"><path class="cls-1" d="M54.48,40.57l0,.11c2.32-14.52-13.56-20.37-13.56-20.37s1.56,13.37-9.71,16.33C18.39,40,21.47,51,21.47,51V64.68H59.81l8.7-7.21C71.32,41,54.48,40.57,54.48,40.57Z"/><path class="cls-2" d="M70.47,57.11c-3.11,0-8.08,3.82-21.33,6.32,3.46-.65,3.66-7.12-1.52-6.34C30.24,59.71,37,50.5,13.5,50.5v20a120.41,120.41,0,0,0,22,2c18.18,0,37-9.17,37-13.5A1.87,1.87,0,0,0,70.47,57.11Z"/><path class="cls-3" d="M35.5,73a122.17,122.17,0,0,1-22.1-2,.5.5,0,0,1-.4-.49v-20a.5.5,0,0,1,.5-.5c12.1,0,16.36,2.47,19.79,4.45s5.9,3.41,14.26,2.15c2.92-.44,4.27,1.24,4.53,2.81a4.25,4.25,0,0,1-.65,3.05,80.27,80.27,0,0,0,13.8-4.31c2.35-.93,3.9-1.54,5.24-1.54A2.35,2.35,0,0,1,73,59C73,63.9,53.72,73,35.5,73ZM14,70.09A122.92,122.92,0,0,0,35.5,72C54.25,72,72,62.54,72,59a1.38,1.38,0,0,0-1.53-1.39c-1.15,0-2.71.62-4.87,1.47a81.07,81.07,0,0,1-16.36,4.84h0a.48.48,0,0,1-.58-.39.5.5,0,0,1,.4-.59h0a2.88,2.88,0,0,0,2.05-3.36c-.26-1.53-1.54-2.28-3.4-2C39,58.9,36.12,57.24,32.79,55.32S25.44,51.06,14,51Z"/><path class="cls-3" d="M40.86,64.65A28.75,28.75,0,0,1,32,63.44a.5.5,0,0,1-.31-.63.5.5,0,0,1,.63-.32c5.34,1.78,13,1.12,16.7.45a.5.5,0,0,1,.58.4.49.49,0,0,1-.4.58A49.24,49.24,0,0,1,40.86,64.65Z"/><rect class="cls-1" x="0.5" y="49.5" width="13" height="22" rx="1"/><path class="cls-3" d="M12.5,72H1.5A1.5,1.5,0,0,1,0,70.5v-20A1.5,1.5,0,0,1,1.5,49h11A1.5,1.5,0,0,1,14,50.5v20A1.5,1.5,0,0,1,12.5,72ZM1.5,50a.5.5,0,0,0-.5.5v20a.5.5,0,0,0,.5.5h11a.5.5,0,0,0,.5-.5v-20a.5.5,0,0,0-.5-.5Z"/><circle class="cls-4" cx="9.5" cy="67.5" r="1.5"/><path class="cls-3" d="M21.47,51.45a.52.52,0,0,1-.48-.37,12.45,12.45,0,0,1,1.14-8.83c1.68-2.93,4.68-5,8.92-6.09,10.72-2.82,9.41-15.26,9.35-15.79a.51.51,0,0,1,.18-.45.49.49,0,0,1,.48-.08c.39.15,9.43,3.54,12.86,11.64,1.94,4.57,1.67,9.7-.79,15.26a.49.49,0,0,1-.66.25.5.5,0,0,1-.26-.66C54.56,41,54.82,36.18,53,31.88c-2.71-6.41-9.35-9.81-11.56-10.79.12,3-.24,13.44-10.14,16-4,1-6.75,2.93-8.29,5.61A11.52,11.52,0,0,0,22,50.81a.51.51,0,0,1-.35.62Z"/><path class="cls-3" d="M68.51,58h-.09a.49.49,0,0,1-.4-.58c.8-4.68,0-8.46-2.24-11.25-4-4.81-11.24-5.06-11.31-5.06a.5.5,0,0,1-.49-.51.51.51,0,0,1,.51-.49c.32,0,7.81.26,12.05,5.42,2.49,3,3.31,7.08,2.46,12.06A.49.49,0,0,1,68.51,58Z"/><circle class="cls-4" cx="29.5" cy="36.5" r="5"/><path class="cls-3" d="M29.5,42A5.5,5.5,0,1,1,35,36.5,5.51,5.51,0,0,1,29.5,42Zm0-10A4.5,4.5,0,1,0,34,36.5,4.51,4.51,0,0,0,29.5,32Z"/><circle class="cls-4" cx="15.5" cy="25.5" r="4"/><path class="cls-3" d="M15.5,30A4.5,4.5,0,1,1,20,25.5,4.51,4.51,0,0,1,15.5,30Zm0-8A3.5,3.5,0,1,0,19,25.5,3.5,3.5,0,0,0,15.5,22Z"/><circle class="cls-4" cx="48.5" cy="4.5" r="4"/><path class="cls-3" d="M48.5,9A4.5,4.5,0,1,1,53,4.5,4.51,4.51,0,0,1,48.5,9Zm0-8A3.5,3.5,0,1,0,52,4.5,3.5,3.5,0,0,0,48.5,1Z"/><circle class="cls-4" cx="25.5" cy="12.5" r="3"/><path class="cls-3" d="M25.5,16A3.5,3.5,0,1,1,29,12.5,3.5,3.5,0,0,1,25.5,16Zm0-6A2.5,2.5,0,1,0,28,12.5,2.5,2.5,0,0,0,25.5,10Z"/><circle class="cls-4" cx="61.48" cy="19.5" r="3"/><path class="cls-3" d="M61.48,23A3.5,3.5,0,1,1,65,19.5,3.5,3.5,0,0,1,61.48,23Zm0-6A2.5,2.5,0,1,0,64,19.5,2.5,2.5,0,0,0,61.48,17Z"/></g></g></svg>