<svg xmlns="http://www.w3.org/2000/svg" viewBox="0 0 67 73"><defs><style>.cls-1{fill:#edc16b;}.cls-2{fill:#1b3249;}.cls-3{fill:#f29e8c;}.cls-4{fill:#fff;}</style></defs><title>Asset 41</title><g id="Layer_2" data-name="Layer 2"><g id="_1" data-name="1"><path class="cls-1" d="M58.5,52.5H8.5a8,8,0,0,1-8-8v-10h4v10a4,4,0,0,0,4,4h50a4,4,0,0,0,4-4v-10h4v10A8,8,0,0,1,58.5,52.5Z"/><path class="cls-2" d="M58.5,53H8.5A8.51,8.51,0,0,1,0,44.5v-10A.5.5,0,0,1,.5,34h4a.5.5,0,0,1,.5.5v10A3.5,3.5,0,0,0,8.5,48h50A3.5,3.5,0,0,0,62,44.5v-10a.5.5,0,0,1,.5-.5h4a.5.5,0,0,1,.5.5v10A8.51,8.51,0,0,1,58.5,53ZM1,35v9.5A7.5,7.5,0,0,0,8.5,52h50A7.5,7.5,0,0,0,66,44.5V35H63v9.5A4.51,4.51,0,0,1,58.5,49H8.5A4.51,4.51,0,0,1,4,44.5V35Z"/><path class="cls-3" d="M9.5,28.5h-6a3,3,0,0,0-3,3v3h9a3,3,0,0,0,3-3h0A3,3,0,0,0,9.5,28.5Z"/><path class="cls-2" d="M9.5,35H.5a.5.5,0,0,1-.5-.5v-3A3.5,3.5,0,0,1,3.5,28h6a3.5,3.5,0,0,1,0,7ZM1,34H9.5a2.5,2.5,0,0,0,0-5h-6A2.5,2.5,0,0,0,1,31.5Z"/><path class="cls-3" d="M63.5,28.5h-6a3,3,0,0,0-3,3h0a3,3,0,0,0,3,3h9v-3A3,3,0,0,0,63.5,28.5Z"/><path class="cls-2" d="M66.5,35h-9a3.5,3.5,0,0,1,0-7h6A3.5,3.5,0,0,1,67,31.5v3A.5.5,0,0,1,66.5,35Zm-9-6a2.5,2.5,0,0,0,0,5H66V31.5A2.5,2.5,0,0,0,63.5,29Z"/><path class="cls-3" d="M22.5.5h22a6,6,0,0,1,6,6v36a0,0,0,0,1,0,0h-34a0,0,0,0,1,0,0V6.5A6,6,0,0,1,22.5.5Z"/><path class="cls-2" d="M50.5,43h-34a.5.5,0,0,1-.5-.5V6.5A6.51,6.51,0,0,1,22.5,0h22A6.51,6.51,0,0,1,51,6.5v36A.5.5,0,0,1,50.5,43ZM17,42H50V6.5A5.51,5.51,0,0,0,44.5,1h-22A5.51,5.51,0,0,0,17,6.5Z"/><path class="cls-3" d="M15.5,42.5h36a4,4,0,0,1,4,4v6a0,0,0,0,1,0,0h-44a0,0,0,0,1,0,0v-6A4,4,0,0,1,15.5,42.5Z"/><path class="cls-2" d="M55.5,53h-44a.5.5,0,0,1-.5-.5v-6A4.51,4.51,0,0,1,15.5,42h36A4.51,4.51,0,0,1,56,46.5v6A.5.5,0,0,1,55.5,53ZM12,52H55V46.5A3.5,3.5,0,0,0,51.5,43h-36A3.5,3.5,0,0,0,12,46.5Z"/><path class="cls-1" d="M51.5,68.5h-36a4,4,0,0,0-4,4h44A4,4,0,0,0,51.5,68.5Z"/><path class="cls-2" d="M55.5,73h-44a.5.5,0,0,1-.5-.5A4.51,4.51,0,0,1,15.5,68h36A4.51,4.51,0,0,1,56,72.5.5.5,0,0,1,55.5,73ZM12,72H55a3.5,3.5,0,0,0-3.46-3h-36A3.5,3.5,0,0,0,12,72Z"/><rect class="cls-1" x="28.5" y="52.5" width="10" height="16"/><path class="cls-2" d="M38.5,69h-10a.5.5,0,0,1-.5-.5v-16a.5.5,0,0,1,.5-.5h10a.5.5,0,0,1,.5.5v16A.5.5,0,0,1,38.5,69ZM29,68h9V53H29Z"/><path class="cls-4" d="M33.5,37.5a1,1,0,0,1-1-1V6.5a1,1,0,0,1,2,0v30A1,1,0,0,1,33.5,37.5Z"/><path class="cls-4" d="M42.5,37.5a1,1,0,0,1-1-1V6.5a1,1,0,0,1,2,0v30A1,1,0,0,1,42.5,37.5Z"/><path class="cls-4" d="M24.5,37.5a1,1,0,0,1-1-1V6.5a1,1,0,0,1,2,0v30A1,1,0,0,1,24.5,37.5Z"/></g></g></svg>