<svg xmlns="http://www.w3.org/2000/svg" viewBox="0 0 73 73"><defs><style>.cls-1{fill:#fff;}.cls-2{fill:#edc16b;}.cls-3{fill:#1b3249;}.cls-4{fill:#f29e8c;}</style></defs><title>Asset 321</title><g id="Layer_2" data-name="Layer 2"><g id="_1" data-name="1"><path class="cls-1" d="M35.5,37.5c7.86,0,8.13,1.93,15.74,2-2.42-9-5.6-14.08-7.38-16.41a4,4,0,0,0-3.19-1.58H14.32a4,4,0,0,0-3.18,1.58C9.5,25.23,6.66,29.74,4.33,37.51c7.52.07,7.33,2,15.17,2C27.5,39.5,27.5,37.5,35.5,37.5Z"/><path class="cls-2" d="M51.24,39.49c-7.61-.06-7.88-2-15.74-2s-8,2-16,2c-7.84,0-7.65-1.92-15.17-2C2.2,44.58.5,54.34.5,67.5v2a3,3,0,0,0,3,3h48a3,3,0,0,0,3-3v-2A108,108,0,0,0,51.24,39.49Z"/><path class="cls-3" d="M51.5,73H3.5A3.5,3.5,0,0,1,0,69.5v-2C0,39.83,7.51,27,10.74,22.77A4.49,4.49,0,0,1,14.32,21H40.67a4.47,4.47,0,0,1,3.58,1.77C47.49,27,55,39.83,55,67.5v2A3.5,3.5,0,0,1,51.5,73ZM14.32,22a3.46,3.46,0,0,0-2.78,1.38C8.37,27.53,1,40.13,1,67.5v2A2.5,2.5,0,0,0,3.5,72h48A2.5,2.5,0,0,0,54,69.5v-2c0-27.37-7.37-40-10.54-44.12A3.47,3.47,0,0,0,40.67,22Z"/><path class="cls-1" d="M49.5,70a.5.5,0,0,1-.5-.5v-2c0-1.08,0-2.14,0-3.17a.51.51,0,0,1,.49-.51.49.49,0,0,1,.51.49c0,1,0,2.1,0,3.19v2A.5.5,0,0,1,49.5,70Z"/><path class="cls-1" d="M49.36,60.94a.5.5,0,0,1-.5-.47,128.1,128.1,0,0,0-1.8-17.33A.5.5,0,1,1,48,43a130.15,130.15,0,0,1,1.82,17.46.5.5,0,0,1-.48.52Z"/><path class="cls-4" d="M18.5,15.5h18a2,2,0,0,1,2,2v4a0,0,0,0,1,0,0h-22a0,0,0,0,1,0,0v-4A2,2,0,0,1,18.5,15.5Z"/><path class="cls-4" d="M24.5,1.5h6a2,2,0,0,1,2,2v12a0,0,0,0,1,0,0h-10a0,0,0,0,1,0,0V3.5A2,2,0,0,1,24.5,1.5Z"/><path class="cls-3" d="M38.5,22h-22a.5.5,0,0,1-.5-.5v-4A2.5,2.5,0,0,1,18.5,15h18A2.5,2.5,0,0,1,39,17.5v4A.5.5,0,0,1,38.5,22ZM17,21H38V17.5A1.5,1.5,0,0,0,36.5,16h-18A1.5,1.5,0,0,0,17,17.5Z"/><path class="cls-3" d="M32.5,16h-10a.5.5,0,0,1-.5-.5V3.5A2.5,2.5,0,0,1,24.5,1h6A2.5,2.5,0,0,1,33,3.5v12A.5.5,0,0,1,32.5,16ZM23,15h9V3.5A1.5,1.5,0,0,0,30.5,2h-6A1.5,1.5,0,0,0,23,3.5Z"/><rect class="cls-2" x="32.5" y="6.5" width="14" height="4"/><path class="cls-3" d="M46.5,11h-14a.5.5,0,0,1-.5-.5v-4a.5.5,0,0,1,.5-.5h14a.5.5,0,0,1,.5.5v4A.5.5,0,0,1,46.5,11ZM33,10H46V7H33Z"/><path class="cls-3" d="M19.5,40a26.75,26.75,0,0,1-7.94-1,25.63,25.63,0,0,0-7.24-1,.5.5,0,0,1,0-1h0a26.48,26.48,0,0,1,7.48,1,25.93,25.93,0,0,0,7.69,1,28,28,0,0,0,7.88-1,28.77,28.77,0,0,1,8.12-1,30,30,0,0,1,8.18,1,28,28,0,0,0,7.56,1,.5.5,0,0,1,.5.5.54.54,0,0,1-.51.5,29.4,29.4,0,0,1-7.79-1,28.21,28.21,0,0,0-7.94-1,28,28,0,0,0-7.88,1A28.83,28.83,0,0,1,19.5,40Z"/><ellipse class="cls-4" cx="57.5" cy="8.5" rx="15" ry="8"/><path class="cls-3" d="M57.5,17C49,17,42,13.19,42,8.5S49,0,57.5,0,73,3.81,73,8.5,66.05,17,57.5,17Zm0-16C49.5,1,43,4.36,43,8.5S49.5,16,57.5,16,72,12.64,72,8.5,65.49,1,57.5,1Z"/><path class="cls-1" d="M57.5,13a.5.5,0,0,1,0-1c5.6,0,9.5-1.84,9.5-3.5a.5.5,0,0,1,1,0C68,11,63.39,13,57.5,13Z"/><circle class="cls-3" cx="25.5" cy="8.5" r="1.5"/><path class="cls-3" d="M27.5,69a.5.5,0,0,1-.5-.5v-47a.5.5,0,0,1,1,0v47A.5.5,0,0,1,27.5,69Z"/></g></g></svg>