<svg xmlns="http://www.w3.org/2000/svg" viewBox="0 0 73 73"><defs><style>.cls-1{fill:#fff;}.cls-2{fill:#edc16b;}.cls-3{fill:#1b3249;}.cls-4{fill:#f29e8c;}</style></defs><title>Asset 31</title><g id="Layer_2" data-name="Layer 2"><g id="_1" data-name="1"><path class="cls-1" d="M50.5,34.5h20a2,2,0,0,1,2,2v32a4,4,0,0,1-4,4h-16a4,4,0,0,1-4-4v-32A2,2,0,0,1,50.5,34.5Z"/><path class="cls-2" d="M48.5,46.5h24a0,0,0,0,1,0,0v22a4,4,0,0,1-4,4h-16a4,4,0,0,1-4-4v-22A0,0,0,0,1,48.5,46.5Z"/><path class="cls-3" d="M68.5,73h-16A4.51,4.51,0,0,1,48,68.5v-32A2.5,2.5,0,0,1,50.5,34h20A2.5,2.5,0,0,1,73,36.5v32A4.51,4.51,0,0,1,68.5,73Zm-18-38A1.5,1.5,0,0,0,49,36.5v32A3.5,3.5,0,0,0,52.5,72h16A3.5,3.5,0,0,0,72,68.5v-32A1.5,1.5,0,0,0,70.5,35Z"/><path class="cls-2" d="M52.5,20.5h16a4,4,0,0,1,4,4v8a2,2,0,0,1-2,2h-20a2,2,0,0,1-2-2v-8A4,4,0,0,1,52.5,20.5Z"/><path class="cls-3" d="M70.5,35h-20A2.5,2.5,0,0,1,48,32.5v-8A4.51,4.51,0,0,1,52.5,20h16A4.51,4.51,0,0,1,73,24.5v8A2.5,2.5,0,0,1,70.5,35Zm-18-14A3.5,3.5,0,0,0,49,24.5v8A1.5,1.5,0,0,0,50.5,34h20A1.5,1.5,0,0,0,72,32.5v-8A3.5,3.5,0,0,0,68.5,21Z"/><path class="cls-1" d="M7.5,66.5h28a0,0,0,0,1,0,0v2a4,4,0,0,1-4,4h-20a4,4,0,0,1-4-4v-2A0,0,0,0,1,7.5,66.5Z"/><path class="cls-3" d="M31.5,73h-20A4.51,4.51,0,0,1,7,68.5v-2a.5.5,0,0,1,.5-.5h28a.5.5,0,0,1,.5.5v2A4.51,4.51,0,0,1,31.5,73ZM8,67v1.5A3.5,3.5,0,0,0,11.5,72h20A3.5,3.5,0,0,0,35,68.5V67Z"/><rect class="cls-1" x="7.5" y="58.5" width="28" height="8"/><path class="cls-3" d="M35.5,67H7.5a.5.5,0,0,1-.5-.5v-8a.5.5,0,0,1,.5-.5h28a.5.5,0,0,1,.5.5v8A.5.5,0,0,1,35.5,67ZM8,66H35V59H8Z"/><path class="cls-3" d="M31.5,73h-20A4.51,4.51,0,0,1,7,68.5v-2a.5.5,0,0,1,.5-.5h28a.5.5,0,0,1,.5.5v2A4.51,4.51,0,0,1,31.5,73ZM8,67v1.5A3.5,3.5,0,0,0,11.5,72h20A3.5,3.5,0,0,0,35,68.5V67Z"/><path class="cls-3" d="M35.5,67H7.5a.5.5,0,0,1-.5-.5v-8a.5.5,0,0,1,.5-.5h28a.5.5,0,0,1,.5.5v8A.5.5,0,0,1,35.5,67ZM8,66H35V59H8Z"/><path class="cls-2" d="M.5,6.5h42L38.29,56.67a2,2,0,0,1-2,1.83H6.7a2,2,0,0,1-2-1.83Z"/><path class="cls-3" d="M36.3,59H6.7a2.52,2.52,0,0,1-2.49-2.29L0,6.54a.52.52,0,0,1,.13-.38A.52.52,0,0,1,.5,6h42a.5.5,0,0,1,.5.54L38.79,56.71A2.52,2.52,0,0,1,36.3,59ZM1,7,5.21,56.63A1.5,1.5,0,0,0,6.7,58H36.3a1.5,1.5,0,0,0,1.49-1.37L42,7Z"/><path class="cls-2" d="M42.5,6.5H.5v-5a1,1,0,0,1,1-1h40a1,1,0,0,1,1,1Z"/><path class="cls-3" d="M42.5,7H.5A.5.5,0,0,1,0,6.5v-5A1.5,1.5,0,0,1,1.5,0h40A1.5,1.5,0,0,1,43,1.5v5A.5.5,0,0,1,42.5,7ZM1,6H42V1.5a.5.5,0,0,0-.5-.5H1.5a.5.5,0,0,0-.5.5Z"/><ellipse class="cls-1" cx="21.5" cy="32.5" rx="10" ry="18"/><path class="cls-1" d="M36.72,66.87h0a.51.51,0,0,1-.47-.54l.48-6.45a.5.5,0,0,1,.53-.46.49.49,0,0,1,.46.53l-.47,6.46A.5.5,0,0,1,36.72,66.87Z"/><rect class="cls-4" x="21.5" y="50.5" width="32" height="22" rx="2"/><path class="cls-3" d="M51.5,73h-28A2.5,2.5,0,0,1,21,70.5v-18A2.5,2.5,0,0,1,23.5,50h28A2.5,2.5,0,0,1,54,52.5v18A2.5,2.5,0,0,1,51.5,73Zm-28-22A1.5,1.5,0,0,0,22,52.5v18A1.5,1.5,0,0,0,23.5,72h28A1.5,1.5,0,0,0,53,70.5v-18A1.5,1.5,0,0,0,51.5,51Z"/><rect class="cls-4" x="21.5" y="42.5" width="32" height="8" rx="2"/><path class="cls-3" d="M51.5,51h-28A2.5,2.5,0,0,1,21,48.5v-4A2.5,2.5,0,0,1,23.5,42h28A2.5,2.5,0,0,1,54,44.5v4A2.5,2.5,0,0,1,51.5,51Zm-28-8A1.5,1.5,0,0,0,22,44.5v4A1.5,1.5,0,0,0,23.5,50h28A1.5,1.5,0,0,0,53,48.5v-4A1.5,1.5,0,0,0,51.5,43Z"/><path class="cls-1" d="M33.5,49a.5.5,0,0,1-.5-.5v-4a.5.5,0,0,1,1,0v4A.5.5,0,0,1,33.5,49Z"/><path class="cls-1" d="M37.5,49a.5.5,0,0,1-.5-.5v-4a.5.5,0,0,1,1,0v4A.5.5,0,0,1,37.5,49Z"/><path class="cls-1" d="M41.5,49a.5.5,0,0,1-.5-.5v-4a.5.5,0,0,1,1,0v4A.5.5,0,0,1,41.5,49Z"/><path class="cls-1" d="M25.5,49a.5.5,0,0,1-.5-.5v-4a.5.5,0,0,1,1,0v4A.5.5,0,0,1,25.5,49Z"/><path class="cls-1" d="M29.5,49a.5.5,0,0,1-.5-.5v-4a.5.5,0,0,1,1,0v4A.5.5,0,0,1,29.5,49Z"/><path class="cls-1" d="M45.5,49a.5.5,0,0,1-.5-.5v-4a.5.5,0,0,1,1,0v4A.5.5,0,0,1,45.5,49Z"/><path class="cls-1" d="M49.5,49a.5.5,0,0,1-.5-.5v-4a.5.5,0,0,1,1,0v4A.5.5,0,0,1,49.5,49Z"/><path class="cls-3" d="M60.5,67a.5.5,0,0,1-.5-.5v-32a.5.5,0,0,1,1,0v32A.5.5,0,0,1,60.5,67Z"/><ellipse class="cls-1" cx="37.5" cy="61.5" rx="10" ry="6"/></g></g></svg>