<svg xmlns="http://www.w3.org/2000/svg" viewBox="0 0 72.99 73"><defs><style>.cls-1{fill:#edc16b;}.cls-2{fill:#1b3249;}.cls-3{fill:#fff;}.cls-4{fill:#f29e8c;}</style></defs><title>Asset 11</title><g id="Layer_2" data-name="Layer 2"><g id="_1" data-name="1"><path class="cls-1" d="M69.09,14.3,58.69,3.9a11.64,11.64,0,0,0-16.45,0L18.12,28a11.64,11.64,0,0,0,0,16.45h0a2.64,2.64,0,0,1,.3,3.38C10.24,59.46,6.27,57,2.53,60.71a6.78,6.78,0,0,0,0,9.71,6.78,6.78,0,0,0,9.72,0c3.75-3.75,1.25-7.72,12.84-15.89a2.64,2.64,0,0,1,3.39.3h0a11.64,11.64,0,0,0,16.45,0L69.09,30.75A11.62,11.62,0,0,0,69.09,14.3Z"/><path class="cls-2" d="M7.45,73a7.38,7.38,0,0,1-5.23-2.22,7.29,7.29,0,0,1-.05-10.43,12.15,12.15,0,0,1,4.22-2.56C9.2,56.59,12.7,55.11,18,47.57a2.12,2.12,0,0,0-.25-2.74,12.14,12.14,0,0,1,0-17.16L41.89,3.55a12.15,12.15,0,0,1,17.16,0L69.45,14a12.14,12.14,0,0,1,0,17.15L45.32,55.23a12.13,12.13,0,0,1-17.15,0A2.16,2.16,0,0,0,25.42,55c-7.53,5.32-9,8.82-10.21,11.63a12,12,0,0,1-2.57,4.21A7.28,7.28,0,0,1,7.52,73Zm43-72A11.09,11.09,0,0,0,42.6,4.25L18.47,28.38a11.13,11.13,0,0,0,0,15.74,3.13,3.13,0,0,1,.36,4c-5.48,7.77-9.12,9.31-12,10.56a11,11,0,0,0-3.9,2.35,6.28,6.28,0,0,0,.05,9,6.27,6.27,0,0,0,9,0,11.16,11.16,0,0,0,2.35-3.9c1.24-2.92,2.79-6.56,10.56-12a3.13,3.13,0,0,1,4,.35,11.13,11.13,0,0,0,15.74,0L68.74,30.4a11.14,11.14,0,0,0,0-15.74L58.34,4.25A11.09,11.09,0,0,0,50.47,1Z"/><path class="cls-3" d="M4.27,64.9a.49.49,0,0,1-.44-.73,7.44,7.44,0,0,1,1.34-1.82,12.15,12.15,0,0,1,4.22-2.56,19.53,19.53,0,0,0,6.86-4.47.5.5,0,0,1,.71,0,.49.49,0,0,1,0,.7,20.3,20.3,0,0,1-7.17,4.68,11,11,0,0,0-3.9,2.35,6.37,6.37,0,0,0-1.16,1.58A.5.5,0,0,1,4.27,64.9Z"/><path class="cls-3" d="M18.85,53.73a.52.52,0,0,1-.33-.12.49.49,0,0,1-.06-.7c.83-1,1.69-2.11,2.55-3.34a.5.5,0,1,1,.82.58c-.88,1.25-1.76,2.39-2.6,3.4A.49.49,0,0,1,18.85,53.73Z"/><rect class="cls-3" x="29.11" y="4.64" width="29" height="49.5" rx="8" transform="translate(33.55 -22.23) rotate(45)"/><path class="cls-4" d="M56.91,33.11a2,2,0,1,1-2-2A2,2,0,0,1,56.91,33.11Z"/><path class="cls-2" d="M54.94,35.59a2.48,2.48,0,1,1,2.47-2.48A2.48,2.48,0,0,1,54.94,35.59Zm0-4a1.48,1.48,0,1,0,1.47,1.48A1.48,1.48,0,0,0,54.94,31.63Z"/><path class="cls-4" d="M49.3,25.5a2,2,0,1,1-2-2A2,2,0,0,1,49.3,25.5Z"/><path class="cls-2" d="M47.33,28A2.48,2.48,0,1,1,49.8,25.5,2.48,2.48,0,0,1,47.33,28Zm0-4A1.48,1.48,0,1,0,48.8,25.5,1.48,1.48,0,0,0,47.33,24Z"/><path class="cls-4" d="M56.91,25.5a2,2,0,1,1-2-2A2,2,0,0,1,56.91,25.5Z"/><path class="cls-2" d="M54.94,28a2.48,2.48,0,1,1,2.47-2.48A2.48,2.48,0,0,1,54.94,28Zm0-4a1.48,1.48,0,1,0,1.47,1.48A1.48,1.48,0,0,0,54.94,24Z"/><path class="cls-4" d="M49.3,17.89a2,2,0,1,1-2-2A2,2,0,0,1,49.3,17.89Z"/><path class="cls-2" d="M47.33,20.37a2.48,2.48,0,1,1,2.47-2.48A2.48,2.48,0,0,1,47.33,20.37Zm0-3.95a1.48,1.48,0,1,0,1.47,1.47A1.47,1.47,0,0,0,47.33,16.42Z"/><path class="cls-4" d="M49.3,33.11a2,2,0,1,1-2-2A2,2,0,0,1,49.3,33.11Z"/><path class="cls-2" d="M47.33,35.59a2.48,2.48,0,1,1,2.47-2.48A2.48,2.48,0,0,1,47.33,35.59Zm0-4a1.48,1.48,0,1,0,1.47,1.48A1.48,1.48,0,0,0,47.33,31.63Z"/><path class="cls-4" d="M49.3,40.72a2,2,0,1,1-2-2A2,2,0,0,1,49.3,40.72Z"/><path class="cls-2" d="M47.33,43.2a2.48,2.48,0,1,1,2.47-2.48A2.48,2.48,0,0,1,47.33,43.2Zm0-4a1.48,1.48,0,1,0,1.47,1.48A1.48,1.48,0,0,0,47.33,39.24Z"/><path class="cls-4" d="M41.7,48.33a2,2,0,1,1-2-2A2,2,0,0,1,41.7,48.33Z"/><path class="cls-2" d="M39.72,50.81a2.48,2.48,0,1,1,2.48-2.48A2.49,2.49,0,0,1,39.72,50.81Zm0-4a1.48,1.48,0,1,0,1.48,1.48A1.48,1.48,0,0,0,39.72,46.85Z"/><path class="cls-4" d="M41.7,25.5a2,2,0,1,1-2-2A2,2,0,0,1,41.7,25.5Z"/><path class="cls-2" d="M39.72,28A2.48,2.48,0,1,1,42.2,25.5,2.48,2.48,0,0,1,39.72,28Zm0-4A1.48,1.48,0,1,0,41.2,25.5,1.48,1.48,0,0,0,39.72,24Z"/><path class="cls-4" d="M64.52,17.89a2,2,0,1,1-2-2A2,2,0,0,1,64.52,17.89Z"/><path class="cls-2" d="M62.54,20.37A2.48,2.48,0,1,1,65,17.89,2.48,2.48,0,0,1,62.54,20.37Zm0-3.95A1.48,1.48,0,1,0,64,17.89,1.47,1.47,0,0,0,62.54,16.42Z"/><path class="cls-4" d="M56.91,10.28a2,2,0,1,1-2-2A2,2,0,0,1,56.91,10.28Z"/><path class="cls-2" d="M54.94,12.76a2.48,2.48,0,1,1,2.47-2.48A2.48,2.48,0,0,1,54.94,12.76Zm0-3.95a1.48,1.48,0,1,0,1.47,1.47A1.47,1.47,0,0,0,54.94,8.81Z"/><path class="cls-4" d="M41.7,33.11a2,2,0,1,1-2-2A2,2,0,0,1,41.7,33.11Z"/><path class="cls-2" d="M39.72,35.59a2.48,2.48,0,1,1,2.48-2.48A2.48,2.48,0,0,1,39.72,35.59Zm0-4a1.48,1.48,0,1,0,1.48,1.48A1.48,1.48,0,0,0,39.72,31.63Z"/><path class="cls-4" d="M41.7,40.72a2,2,0,1,1-2-2A2,2,0,0,1,41.7,40.72Z"/><path class="cls-2" d="M39.72,43.2a2.48,2.48,0,1,1,2.48-2.48A2.48,2.48,0,0,1,39.72,43.2Zm0-4a1.48,1.48,0,1,0,1.48,1.48A1.48,1.48,0,0,0,39.72,39.24Z"/><path class="cls-4" d="M34.09,25.5a2,2,0,1,1-2-2A2,2,0,0,1,34.09,25.5Z"/><path class="cls-2" d="M32.11,28a2.48,2.48,0,1,1,2.48-2.48A2.48,2.48,0,0,1,32.11,28Zm0-4a1.48,1.48,0,1,0,1.48,1.48A1.48,1.48,0,0,0,32.11,24Z"/><path class="cls-4" d="M34.09,33.11a2,2,0,1,1-2-2A2,2,0,0,1,34.09,33.11Z"/><path class="cls-2" d="M32.11,35.59a2.48,2.48,0,1,1,2.48-2.48A2.48,2.48,0,0,1,32.11,35.59Zm0-4a1.48,1.48,0,1,0,1.48,1.48A1.48,1.48,0,0,0,32.11,31.63Z"/><path class="cls-4" d="M34.09,48.33a2,2,0,1,1-2-2A2,2,0,0,1,34.09,48.33Z"/><path class="cls-2" d="M32.11,50.81a2.48,2.48,0,1,1,2.48-2.48A2.49,2.49,0,0,1,32.11,50.81Zm0-4a1.48,1.48,0,1,0,1.48,1.48A1.48,1.48,0,0,0,32.11,46.85Z"/><path class="cls-4" d="M26.48,40.72a2,2,0,1,1-2-2A2,2,0,0,1,26.48,40.72Z"/><path class="cls-2" d="M24.5,43.2A2.48,2.48,0,1,1,27,40.72,2.48,2.48,0,0,1,24.5,43.2Zm0-4A1.48,1.48,0,1,0,26,40.72,1.49,1.49,0,0,0,24.5,39.24Z"/><path class="cls-4" d="M34.09,40.72a2,2,0,1,1-2-2A2,2,0,0,1,34.09,40.72Z"/><path class="cls-2" d="M32.11,43.2a2.48,2.48,0,1,1,2.48-2.48A2.48,2.48,0,0,1,32.11,43.2Zm0-4a1.48,1.48,0,1,0,1.48,1.48A1.48,1.48,0,0,0,32.11,39.24Z"/><path class="cls-4" d="M26.48,33.11a2,2,0,1,1-2-2A2,2,0,0,1,26.48,33.11Z"/><path class="cls-2" d="M24.5,35.59A2.48,2.48,0,1,1,27,33.11,2.48,2.48,0,0,1,24.5,35.59Zm0-4A1.48,1.48,0,1,0,26,33.11,1.49,1.49,0,0,0,24.5,31.63Z"/><path class="cls-4" d="M64.52,25.5a2,2,0,1,1-2-2A2,2,0,0,1,64.52,25.5Z"/><path class="cls-2" d="M62.54,28A2.48,2.48,0,1,1,65,25.5,2.48,2.48,0,0,1,62.54,28Zm0-4A1.48,1.48,0,1,0,64,25.5,1.48,1.48,0,0,0,62.54,24Z"/><path class="cls-4" d="M56.91,17.89a2,2,0,1,1-2-2A2,2,0,0,1,56.91,17.89Z"/><path class="cls-2" d="M54.94,20.37a2.48,2.48,0,1,1,2.47-2.48A2.48,2.48,0,0,1,54.94,20.37Zm0-3.95a1.48,1.48,0,1,0,1.47,1.47A1.47,1.47,0,0,0,54.94,16.42Z"/><path class="cls-4" d="M41.7,17.89a2,2,0,1,1-2-2A2,2,0,0,1,41.7,17.89Z"/><path class="cls-2" d="M39.72,20.37a2.48,2.48,0,1,1,2.48-2.48A2.48,2.48,0,0,1,39.72,20.37Zm0-3.95a1.48,1.48,0,1,0,1.48,1.47A1.47,1.47,0,0,0,39.72,16.42Z"/><path class="cls-4" d="M49.3,10.28a2,2,0,1,1-2-2A2,2,0,0,1,49.3,10.28Z"/><path class="cls-2" d="M47.33,12.76a2.48,2.48,0,1,1,2.47-2.48A2.48,2.48,0,0,1,47.33,12.76Zm0-3.95a1.48,1.48,0,1,0,1.47,1.47A1.47,1.47,0,0,0,47.33,8.81Z"/></g></g></svg>