<svg xmlns="http://www.w3.org/2000/svg" viewBox="0 0 59 72.99"><defs><style>.cls-1{fill:#edc16b;}.cls-2{fill:#1b3249;}.cls-3{fill:#f29e8c;}.cls-4{fill:#fff;}</style></defs><title>Asset 141</title><g id="Layer_2" data-name="Layer 2"><g id="_1" data-name="1"><path class="cls-1" d="M30.5,72.49H.5a6,6,0,0,1,6-6h18a6,6,0,0,1,6,6Z"/><path class="cls-2" d="M30.5,73H.5a.5.5,0,0,1-.5-.5A6.51,6.51,0,0,1,6.5,66h18a6.51,6.51,0,0,1,6.5,6.5A.5.5,0,0,1,30.5,73ZM1,72H30a5.52,5.52,0,0,0-5.48-5H6.5A5.52,5.52,0,0,0,1,72Z"/><path class="cls-2" d="M58.5,73H.5a.5.5,0,0,1-.5-.5A.5.5,0,0,1,.5,72h58a.5.5,0,0,1,.5.5A.5.5,0,0,1,58.5,73Z"/><path class="cls-3" d="M17.5,66.49h-4v-41a2,2,0,0,1,.82-1.62l15-11,2.36,3.23L17.5,26.5Z"/><path class="cls-2" d="M17.5,67h-4a.5.5,0,0,1-.5-.5v-41a2.51,2.51,0,0,1,1-2l15-11a.49.49,0,0,1,.37-.09.5.5,0,0,1,.33.2l2.37,3.22a.51.51,0,0,1-.11.7L18,26.75V66.49A.5.5,0,0,1,17.5,67ZM14,66h3V26.5a.51.51,0,0,1,.2-.4L31,16l-1.77-2.42L14.61,24.28A1.51,1.51,0,0,0,14,25.49Z"/><path class="cls-3" d="M53.11,8C45-.11,33.75-1.93,27.92,3.9S23.9,21,32,29.1a27.57,27.57,0,0,0,7.61,5.39L58.5,15.58A27.22,27.22,0,0,0,53.11,8Z"/><path class="cls-2" d="M39.59,35a.54.54,0,0,1-.21-.05,27.65,27.65,0,0,1-7.75-5.49c-8.26-8.26-10.09-19.88-4.07-25.9S45.2-.65,53.46,7.61A27.63,27.63,0,0,1,59,15.37a.49.49,0,0,1-.1.56L40,34.84A.51.51,0,0,1,39.59,35ZM36.86,1a11.85,11.85,0,0,0-8.59,3.27c-5.63,5.63-3.81,16.61,4.06,24.48a26.58,26.58,0,0,0,7.16,5.14L57.9,15.48a26.86,26.86,0,0,0-5.14-7.16C48,3.54,42,1,36.86,1Z"/><path class="cls-4" d="M30.91,7.4a.49.49,0,0,1-.35-.15.5.5,0,0,1,0-.71A8.4,8.4,0,0,1,33.5,4.65a.5.5,0,0,1,.64.28.51.51,0,0,1-.28.65,7.27,7.27,0,0,0-2.59,1.67A.51.51,0,0,1,30.91,7.4Z"/><path class="cls-4" d="M47.68,9.32a.48.48,0,0,1-.33-.13A15.5,15.5,0,0,0,36.75,5a.51.51,0,0,1-.52-.48A.49.49,0,0,1,36.71,4,16.66,16.66,0,0,1,48,8.44a.51.51,0,0,1,.05.71A.52.52,0,0,1,47.68,9.32Z"/><circle class="cls-1" cx="26.5" cy="17.49" r="7"/><path class="cls-2" d="M26.5,25a7.5,7.5,0,1,1,7.5-7.5A7.51,7.51,0,0,1,26.5,25Zm0-14a6.5,6.5,0,1,0,6.5,6.5A6.51,6.51,0,0,0,26.5,11Z"/><circle class="cls-4" cx="26.5" cy="17.49" r="3"/><path class="cls-2" d="M26.5,21a3.5,3.5,0,1,1,3.5-3.5A3.5,3.5,0,0,1,26.5,21Zm0-6a2.5,2.5,0,1,0,2.5,2.5A2.5,2.5,0,0,0,26.5,15Z"/><path class="cls-2" d="M32.83,30.4a.49.49,0,0,1-.35-.15.5.5,0,0,1,0-.71L53.56,8.46a.5.5,0,0,1,.7,0,.5.5,0,0,1,0,.71L33.18,30.25A.47.47,0,0,1,32.83,30.4Z"/></g></g></svg>