<svg xmlns="http://www.w3.org/2000/svg" viewBox="0 0 59.01 73"><defs><style>.cls-1{fill:#edc16b;}.cls-2{fill:#1b3249;}.cls-3{fill:#fff;}.cls-4{fill:#f29e8c;}</style></defs><title>Asset 261</title><g id="Layer_2" data-name="Layer 2"><g id="_1" data-name="1"><path class="cls-1" d="M45,72.5H14A2.5,2.5,0,0,1,11.5,70h0A2.5,2.5,0,0,1,14,67.5H45A2.5,2.5,0,0,1,47.5,70h0A2.5,2.5,0,0,1,45,72.5Z"/><path class="cls-1" d="M45,43.5H14A2.5,2.5,0,0,1,11.5,41h0A2.5,2.5,0,0,1,14,38.5H45A2.5,2.5,0,0,1,47.5,41h0A2.5,2.5,0,0,1,45,43.5Z"/><path class="cls-1" d="M44.5,43.5h-30a25.5,25.5,0,0,0,0,24h30a25.5,25.5,0,0,0,0-24Z"/><path class="cls-2" d="M45,73H14a3,3,0,0,1,0-6H45a3,3,0,0,1,0,6ZM14,68a2,2,0,0,0,0,4H45a2,2,0,0,0,0-4Z"/><path class="cls-2" d="M45,44H14a3,3,0,0,1,0-6H45a3,3,0,0,1,0,6ZM14,39a2,2,0,0,0,0,4H45a2,2,0,0,0,0-4Z"/><path class="cls-2" d="M44.5,68h-30a.51.51,0,0,1-.44-.26,26,26,0,0,1,0-24.48A.51.51,0,0,1,14.5,43h30a.49.49,0,0,1,.44.26,26,26,0,0,1,0,24.48A.49.49,0,0,1,44.5,68ZM14.8,67H44.2a25,25,0,0,0,0-23H14.8a25,25,0,0,0,0,23Z"/><path class="cls-3" d="M20.42,65.05a.5.5,0,0,1-.49-.4A45.15,45.15,0,0,1,19,55.5q0-.78,0-1.53a.5.5,0,1,1,1,0q0,.75,0,1.5a43.8,43.8,0,0,0,.91,8.94.5.5,0,0,1-.38.6Z"/><path class="cls-3" d="M19.71,51.63h-.05a.51.51,0,0,1-.45-.55c.09-.84.19-1.68.32-2.5a.5.5,0,0,1,.57-.42.51.51,0,0,1,.42.57c-.13.8-.23,1.62-.31,2.45A.5.5,0,0,1,19.71,51.63Z"/><path class="cls-4" d="M44.9,38.5c0-4.73,15.5-15.95,13.41-24C55.57,4,40.45.5,29.44.5S3.44,4,.7,14.5c-2.11,8.06,13.41,19,13.41,24Z"/><path class="cls-2" d="M44.9,39H14.11a.5.5,0,0,1-.5-.5c0-1.85-2.61-4.92-5.38-8.16-4.37-5.13-9.33-10.94-8-16C3,3.76,17.69,0,29.44,0S56,3.76,58.79,14.37c1.32,5.07-3.72,11-8.16,16.25-2.69,3.17-5.23,6.17-5.23,7.88A.5.5,0,0,1,44.9,39ZM14.57,38H44.44c.35-2,2.72-4.84,5.43-8,4.07-4.8,9.14-10.78,8-15.34C55.37,5.21,41.8,1,29.44,1S3.65,5.21,1.18,14.63C0,19.15,4.78,24.75,9,29.69,11.79,33,14.23,35.83,14.57,38Z"/><path class="cls-2" d="M44.9,39H14.11a.5.5,0,0,1-.5-.5c0-1.85-2.61-4.92-5.38-8.16-4.37-5.13-9.33-10.94-8-16C3,3.76,17.69,0,29.44,0S56,3.76,58.79,14.37c1.32,5.07-3.72,11-8.16,16.25-2.69,3.17-5.23,6.17-5.23,7.88A.5.5,0,0,1,44.9,39ZM14.57,38H44.44c.35-2,2.72-4.84,5.43-8,4.07-4.8,9.14-10.78,8-15.34C55.37,5.21,41.8,1,29.44,1S3.65,5.21,1.18,14.63C0,19.15,4.78,24.75,9,29.69,11.79,33,14.23,35.83,14.57,38Z"/><path class="cls-2" d="M41.71,39a.5.5,0,0,1-.5-.5c0-2,2-5,4.33-8.48,3.24-4.82,7.27-10.81,6.32-15.42a.5.5,0,0,1,.39-.59.51.51,0,0,1,.59.39c1,5-3,11-6.47,16.18-2.14,3.17-4.16,6.18-4.16,7.92A.5.5,0,0,1,41.71,39Z"/><path class="cls-2" d="M16.36,36a.51.51,0,0,1-.45-.27,55.89,55.89,0,0,0-3.39-5.41C9.06,25.18,5.13,19.38,6.17,14.4A.49.49,0,0,1,6.76,14a.51.51,0,0,1,.39.59c-1,4.57,2.85,10.18,6.2,15.14a53.33,53.33,0,0,1,3.45,5.52.49.49,0,0,1-.22.67A.44.44,0,0,1,16.36,36Z"/><path class="cls-2" d="M38.8,36.44a.44.44,0,0,1-.16,0,.51.51,0,0,1-.31-.64,56.7,56.7,0,0,1,2.53-5.7c2.33-4.83,5.23-10.84,4.54-15.51a.49.49,0,0,1,.42-.56.5.5,0,0,1,.57.42c.73,5-2.12,10.87-4.63,16.08a56.57,56.57,0,0,0-2.49,5.6A.5.5,0,0,1,38.8,36.44Z"/><path class="cls-2" d="M20.74,39a.5.5,0,0,1-.5-.5c0-1.92-1.49-5-3.07-8.27-.45-.92-.91-1.87-1.37-2.84a.52.52,0,0,1,.25-.67.49.49,0,0,1,.66.24c.45,1,.91,1.92,1.36,2.84,1.7,3.51,3.17,6.55,3.17,8.7A.5.5,0,0,1,20.74,39Z"/><path class="cls-2" d="M14.85,24.45a.49.49,0,0,1-.46-.31c-1.6-4-2.16-7.09-1.77-9.71a.5.5,0,0,1,1,.14c-.36,2.44.18,5.37,1.71,9.2a.5.5,0,0,1-.28.65A.58.58,0,0,1,14.85,24.45Z"/><path class="cls-2" d="M34.81,39a.5.5,0,0,1-.5-.5c0-2,.87-4.92,1.87-8.34,1.49-5.11,3.18-10.89,2.76-15.62a.5.5,0,1,1,1-.08c.44,4.91-1.28,10.79-2.79,16-1,3.34-1.83,6.24-1.83,8.06A.5.5,0,0,1,34.81,39Z"/><path class="cls-2" d="M24.19,39a.5.5,0,0,1-.5-.5,25.11,25.11,0,0,0-1.16-5.89.5.5,0,0,1,.35-.62.49.49,0,0,1,.61.35,25.25,25.25,0,0,1,1.2,6.16A.5.5,0,0,1,24.19,39Z"/><path class="cls-2" d="M22.3,30.5a.5.5,0,0,1-.48-.35c-1.5-5.08-3.19-10.83-2.75-15.69a.5.5,0,1,1,1,.08c-.42,4.68,1.24,10.34,2.7,15.32a.49.49,0,0,1-.33.62A.36.36,0,0,1,22.3,30.5Z"/><path class="cls-2" d="M32.55,25.18h0a.5.5,0,0,1-.46-.54,86.38,86.38,0,0,0,.43-10.12A.5.5,0,0,1,33,14a.49.49,0,0,1,.52.48,88.44,88.44,0,0,1-.43,10.25A.49.49,0,0,1,32.55,25.18Z"/><path class="cls-2" d="M31.36,39a.5.5,0,0,1-.5-.5c0-1.92.3-4.86.65-8.26.09-.88.18-1.79.27-2.71a.5.5,0,0,1,.55-.45.5.5,0,0,1,.45.55c-.09.92-.19,1.83-.28,2.71-.34,3.37-.64,6.29-.64,8.16A.5.5,0,0,1,31.36,39Z"/><path class="cls-2" d="M27.64,39a.5.5,0,0,1-.5-.5c0-2-.3-5-.66-8.43a122.54,122.54,0,0,1-.95-15.59A.49.49,0,0,1,26,14a.51.51,0,0,1,.49.52A122.67,122.67,0,0,0,27.48,30c.36,3.47.66,6.47.66,8.53A.5.5,0,0,1,27.64,39Z"/></g></g></svg>