<svg xmlns="http://www.w3.org/2000/svg" viewBox="0 0 72.99 72.99"><defs><style>.cls-1{fill:#f29e8c;}.cls-2{fill:#1b3249;}.cls-3{fill:#edc16b;}.cls-4{fill:#fff;}</style></defs><title>Asset 21</title><g id="Layer_2" data-name="Layer 2"><g id="_1" data-name="1"><path class="cls-1" d="M67.77,44.94,25.36,2.53a6.9,6.9,0,0,0-9.78,0h0a2.29,2.29,0,0,0,0,3.26L61.25,51.46l-9.79,9.79L5.79,15.58a2.29,2.29,0,0,0-3.26,0h0a6.9,6.9,0,0,0,0,9.78L44.94,67.77a16.13,16.13,0,0,0,22.83,0h0A16.13,16.13,0,0,0,67.77,44.94Z"/><path class="cls-2" d="M56.35,73a16.59,16.59,0,0,1-11.77-4.87L2.17,25.72a7.44,7.44,0,0,1,0-10.5,2.82,2.82,0,0,1,4,0L51.46,60.54l9.08-9.08L15.22,6.14a2.82,2.82,0,0,1,0-4,7.44,7.44,0,0,1,10.5,0l42.4,42.41A16.64,16.64,0,0,1,56.35,73ZM4.16,15.4a1.82,1.82,0,0,0-1.28.53,6.42,6.42,0,0,0,0,9.08L45.29,67.42A15.65,15.65,0,1,0,67.42,45.29L25,2.88a6.42,6.42,0,0,0-9.08,0,1.8,1.8,0,0,0,0,2.56L61.6,51.11a.5.5,0,0,1,0,.7L51.81,61.6a.5.5,0,0,1-.7,0L5.44,15.93A1.84,1.84,0,0,0,4.16,15.4Z"/><path class="cls-2" d="M56.35,73a16.59,16.59,0,0,1-11.77-4.87L2.17,25.72a7.44,7.44,0,0,1,0-10.5,2.82,2.82,0,0,1,4,0L51.46,60.54l9.08-9.08L15.22,6.14a2.82,2.82,0,0,1,0-4,7.44,7.44,0,0,1,10.5,0l42.4,42.41A16.64,16.64,0,0,1,56.35,73ZM4.16,15.4a1.82,1.82,0,0,0-1.28.53,6.42,6.42,0,0,0,0,9.08L45.29,67.42A15.65,15.65,0,1,0,67.42,45.29L25,2.88a6.42,6.42,0,0,0-9.08,0,1.8,1.8,0,0,0,0,2.56L61.6,51.11a.5.5,0,0,1,0,.7L51.81,61.6a.5.5,0,0,1-.7,0L5.44,15.93A1.84,1.84,0,0,0,4.16,15.4Z"/><path class="cls-3" d="M62.88,49.83a9.23,9.23,0,1,0,0,13.05A9.23,9.23,0,0,0,62.88,49.83Z"/><path class="cls-2" d="M56.35,66.08a9.73,9.73,0,1,1,6.88-2.85A9.66,9.66,0,0,1,56.35,66.08Zm0-18.45a8.72,8.72,0,1,0,6.17,2.55A8.71,8.71,0,0,0,56.35,47.63Z"/><circle class="cls-4" cx="56.35" cy="56.35" r="3.5"/><path class="cls-2" d="M56.35,60.35a4,4,0,1,1,2.83-6.83h0a4,4,0,0,1-2.83,6.83Zm0-7a3,3,0,1,0,2.12.88A3,3,0,0,0,56.35,53.35Z"/><path class="cls-2" d="M67.77,68.27a.47.47,0,0,1-.35-.15l-4.9-4.89a.5.5,0,0,1,.71-.71l4.89,4.9a.48.48,0,0,1,0,.7A.47.47,0,0,1,67.77,68.27Z"/><path class="cls-3" d="M19,10.51h3.61a1,1,0,0,1,1,1v32.6a1,1,0,0,1-1,1H19a0,0,0,0,1,0,0V10.51A0,0,0,0,1,19,10.51Z" transform="translate(-13.43 23.2) rotate(-45)"/><path class="cls-3" d="M26.5,4h3.61a0,0,0,0,1,0,0v34.6a0,0,0,0,1,0,0H26.5a1,1,0,0,1-1-1V5a1,1,0,0,1,1-1Z" transform="translate(-6.91 25.9) rotate(-45)"/><path class="cls-2" d="M31.89,42.17a.54.54,0,0,1-.36-.14L7.07,17.56a.47.47,0,0,1-.15-.35.49.49,0,0,1,.15-.36L9.62,14.3a1.53,1.53,0,0,1,2.12,0l23,23.05a1.49,1.49,0,0,1,0,2.12L32.24,42A.54.54,0,0,1,31.89,42.17Zm-23.76-25L31.89,41l2.2-2.21a.51.51,0,0,0,0-.7L11,15a.51.51,0,0,0-.71,0Z"/><path class="cls-2" d="M38.41,35.23a1.47,1.47,0,0,1-1.06-.44l-23-23a1.46,1.46,0,0,1-.44-1.06,1.47,1.47,0,0,1,.44-1.06l2.55-2.55a.49.49,0,0,1,.36-.15h0a.47.47,0,0,1,.35.15L42,31.53a.51.51,0,0,1,0,.71l-2.56,2.55A1.47,1.47,0,0,1,38.41,35.23ZM17.21,8.13,15,10.33A.51.51,0,0,0,15,11L38.06,34.09a.5.5,0,0,0,.7,0L41,31.89Z"/><path class="cls-4" d="M38.07,53.35a.54.54,0,0,1-.36-.14L20,35.47a.51.51,0,0,1,0-.71.5.5,0,0,1,.71,0L38.42,52.5a.5.5,0,0,1,0,.71A.54.54,0,0,1,38.07,53.35Z"/><path class="cls-4" d="M17.33,32.61a.54.54,0,0,1-.36-.14l-5.4-5.4a.51.51,0,0,1,0-.71.5.5,0,0,1,.71,0l5.4,5.4a.5.5,0,0,1,0,.71A.52.52,0,0,1,17.33,32.61Z"/></g></g></svg>