<svg xmlns="http://www.w3.org/2000/svg" viewBox="0 0 73 73"><defs><style>.cls-1{fill:#edc16b;}.cls-2{fill:#1b3249;}.cls-3{fill:#f29e8c;}.cls-4{fill:#fff;}</style></defs><title>Asset 151</title><g id="Layer_2" data-name="Layer 2"><g id="_1" data-name="1"><path class="cls-1" d="M71.88,32.48,40.51,1.12a2.09,2.09,0,0,0-3,0l-9,9a2.12,2.12,0,0,0,0,3L59.93,44.44a2.12,2.12,0,0,0,3,0l9-9A2.11,2.11,0,0,0,71.88,32.48Z"/><path class="cls-2" d="M61.43,45.55a2.6,2.6,0,0,1-1.85-.76L28.21,13.42a2.61,2.61,0,0,1,0-3.69l9-9a2.63,2.63,0,0,1,3.7,0L72.24,32.13h0a2.63,2.63,0,0,1,0,3.7l-9,9A2.6,2.6,0,0,1,61.43,45.55ZM39,1a1.62,1.62,0,0,0-1.14.47l-9,9a1.59,1.59,0,0,0-.47,1.14,1.57,1.57,0,0,0,.47,1.14L60.29,44.08a1.61,1.61,0,0,0,2.28,0l9-9A1.63,1.63,0,0,0,72,34a1.61,1.61,0,0,0-.47-1.14L40.16,1.47A1.62,1.62,0,0,0,39,1Z"/><path class="cls-2" d="M59.93,39a.49.49,0,0,1-.35-.15L34.19,13.42a.5.5,0,0,1,0-.71.5.5,0,0,1,.7,0l25.4,25.4a.5.5,0,0,1,0,.7A.51.51,0,0,1,59.93,39Z"/><path class="cls-2" d="M65.91,33a.5.5,0,0,1-.36-.14L40.16,7.45a.51.51,0,0,1,0-.71.5.5,0,0,1,.71,0L66.26,32.13a.5.5,0,0,1-.35.85Z"/><path class="cls-3" d="M36.78,21.28a6.33,6.33,0,0,0,0,9l6,6a6.36,6.36,0,0,0,9,0Z"/><path class="cls-2" d="M47.24,38.57a6.78,6.78,0,0,1-4.84-2l-6-6a6.82,6.82,0,0,1,0-9.67.48.48,0,0,1,.7,0L52.07,35.87a.48.48,0,0,1,0,.7A6.77,6.77,0,0,1,47.24,38.57ZM36.79,22a5.84,5.84,0,0,0,.34,7.89l6,6A5.83,5.83,0,0,0,51,36.2Z"/><path class="cls-3" d="M3.11,71.26,1.74,69.89a4.22,4.22,0,0,1,.06-6l35-33.61,6,6L9.14,71.2A4.22,4.22,0,0,1,3.11,71.26Z"/><path class="cls-2" d="M6.1,73a4.65,4.65,0,0,1-3.34-1.39h0L1.38,70.24a4.73,4.73,0,0,1,.07-6.75l35-33.61a.51.51,0,0,1,.7,0l6,6a.5.5,0,0,1,0,.7l-33.6,35A4.74,4.74,0,0,1,6.15,73ZM3.46,70.91A3.89,3.89,0,0,0,6.14,72a3.67,3.67,0,0,0,2.64-1.15L42.05,36.23l-5.28-5.29L2.14,64.21a3.73,3.73,0,0,0-.05,5.32Z"/><path class="cls-2" d="M47.24,38.57a6.78,6.78,0,0,1-4.84-2l-6-6a6.82,6.82,0,0,1,0-9.67.48.48,0,0,1,.7,0L52.07,35.87a.48.48,0,0,1,0,.7A6.77,6.77,0,0,1,47.24,38.57ZM36.79,22a5.84,5.84,0,0,0,.34,7.89l6,6A5.83,5.83,0,0,0,51,36.2Z"/><path class="cls-4" d="M38.36,41.29a.49.49,0,0,1-.35-.15l-1.58-1.57a.51.51,0,0,1,0-.71.5.5,0,0,1,.71,0l1.58,1.58a.5.5,0,0,1,0,.7A.51.51,0,0,1,38.36,41.29Z"/><path class="cls-4" d="M33.8,36.73a.47.47,0,0,1-.35-.15L31.86,35a.5.5,0,0,1,0-.71.5.5,0,0,1,.7,0l1.59,1.59a.5.5,0,0,1,0,.71A.49.49,0,0,1,33.8,36.73Z"/><path class="cls-4" d="M34,45.86a.49.49,0,0,1-.35-.15L32,44.05a.5.5,0,0,1,.71-.71L34.32,45a.48.48,0,0,1,0,.7A.47.47,0,0,1,34,45.86Z"/><path class="cls-4" d="M29.32,41.21a.51.51,0,0,1-.36-.15l-1.68-1.68a.5.5,0,0,1,.71-.71l1.68,1.68a.5.5,0,0,1,0,.71A.49.49,0,0,1,29.32,41.21Z"/><path class="cls-4" d="M29.58,50.43a.47.47,0,0,1-.35-.15l-1.76-1.75a.5.5,0,1,1,.71-.71l1.75,1.76a.48.48,0,0,1,0,.7A.47.47,0,0,1,29.58,50.43Z"/><path class="cls-4" d="M24.84,45.69a.51.51,0,0,1-.36-.15l-1.77-1.77a.5.5,0,0,1,0-.7.5.5,0,0,1,.71,0l1.77,1.76a.5.5,0,0,1,0,.71A.5.5,0,0,1,24.84,45.69Z"/><path class="cls-4" d="M25.19,55a.54.54,0,0,1-.36-.14L23,53a.5.5,0,0,1,0-.71.51.51,0,0,1,.71,0l1.84,1.85a.5.5,0,0,1,0,.71A.52.52,0,0,1,25.19,55Z"/><path class="cls-4" d="M20.36,50.17A.51.51,0,0,1,20,50l-1.86-1.86a.5.5,0,0,1,0-.7.5.5,0,0,1,.71,0l1.86,1.86a.5.5,0,0,1-.35.85Z"/><path class="cls-4" d="M20.8,59.57a.54.54,0,0,1-.36-.14l-1.93-1.94a.5.5,0,0,1,0-.71.51.51,0,0,1,.71,0l1.93,1.94a.5.5,0,0,1,0,.71A.54.54,0,0,1,20.8,59.57Z"/><path class="cls-4" d="M15.87,54.65a.5.5,0,0,1-.35-.15l-1.95-1.94a.51.51,0,0,1,0-.71.5.5,0,0,1,.71,0l2,1.95a.5.5,0,0,1,0,.7A.51.51,0,0,1,15.87,54.65Z"/><path class="cls-4" d="M16.41,64.14a.5.5,0,0,1-.36-.14l-2-2a.49.49,0,0,1,.7-.7l2,2a.51.51,0,0,1,0,.71A.49.49,0,0,1,16.41,64.14Z"/><path class="cls-4" d="M11.39,59.13A.5.5,0,0,1,11,59L9,57a.51.51,0,0,1,0-.71.5.5,0,0,1,.71,0l2,2a.5.5,0,0,1,0,.7A.51.51,0,0,1,11.39,59.13Z"/><path class="cls-4" d="M12,68.71a.49.49,0,0,1-.35-.14L9.55,66.45a.49.49,0,1,1,.7-.7l2.12,2.11a.51.51,0,0,1,0,.71A.5.5,0,0,1,12,68.71Z"/><path class="cls-4" d="M6.91,63.61a.52.52,0,0,1-.35-.14L4.43,61.34a.5.5,0,1,1,.71-.71l2.13,2.13a.51.51,0,0,1,0,.71A.54.54,0,0,1,6.91,63.61Z"/><path class="cls-2" d="M6.1,73a4.65,4.65,0,0,1-3.34-1.39h0L1.38,70.24a4.73,4.73,0,0,1,.07-6.75l35-33.61a.51.51,0,0,1,.7,0l6,6a.5.5,0,0,1,0,.7l-33.6,35A4.74,4.74,0,0,1,6.15,73ZM3.46,70.91A3.89,3.89,0,0,0,6.14,72a3.67,3.67,0,0,0,2.64-1.15L42.05,36.23l-5.28-5.29L2.14,64.21a3.73,3.73,0,0,0-.05,5.32Z"/><path class="cls-2" d="M30.55,15.55a.47.47,0,0,1-.35-.14l-2-2a2.61,2.61,0,0,1,0-3.69l9-9a2.63,2.63,0,0,1,3.7,0l2,2a.49.49,0,0,1,.15.36.49.49,0,0,1-.15.35l-11.94,12A.5.5,0,0,1,30.55,15.55ZM39,1a1.62,1.62,0,0,0-1.14.47l-9,9a1.61,1.61,0,0,0,0,2.28l1.63,1.64L41.79,3.11,40.16,1.47A1.62,1.62,0,0,0,39,1Z"/><path class="cls-2" d="M61.43,45.55a2.6,2.6,0,0,1-1.85-.76l-2-2a.51.51,0,0,1,0-.71l12-12a.53.53,0,0,1,.71,0l2,2h0a2.63,2.63,0,0,1,0,3.7l-9,9A2.6,2.6,0,0,1,61.43,45.55Zm-2.78-3.1,1.64,1.63a1.61,1.61,0,0,0,2.28,0l9-9A1.63,1.63,0,0,0,72,34a1.61,1.61,0,0,0-.47-1.14L69.89,31.2Z"/><path class="cls-2" d="M62.92,36a.5.5,0,0,1-.35-.14l-25.4-25.4a.5.5,0,0,1,0-.7.5.5,0,0,1,.71,0L63.27,35.12a.5.5,0,0,1-.35.85Z"/></g></g></svg>