<svg xmlns="http://www.w3.org/2000/svg" viewBox="0 0 73 73"><defs><style>.cls-1{fill:#edc16b;}.cls-2{fill:#fff;}.cls-3{fill:#1b3249;}.cls-4{fill:#f29e8c;}</style></defs><title>Asset 131</title><g id="Layer_2" data-name="Layer 2"><g id="_1" data-name="1"><path class="cls-1" d="M11.5,72.5c3.17,0,3.17-1,6.34-1s3.17,1,6.34,1,3.16-1,6.33-1,3.16,1,6.33,1,3.16-1,6.33-1,3.16,1,6.33,1v-62h-38Z"/><path class="cls-2" d="M49.5,69a9.75,9.75,0,0,1-3.32-.52,8.35,8.35,0,0,0-3-.48,8.45,8.45,0,0,0-3,.48,9.64,9.64,0,0,1-3.31.52,9.75,9.75,0,0,1-3.32-.52,8.39,8.39,0,0,0-3-.48,8.45,8.45,0,0,0-3,.48,9.64,9.64,0,0,1-3.31.52,9.66,9.66,0,0,1-3.32-.52,8.45,8.45,0,0,0-3-.48,8.45,8.45,0,0,0-3,.48A9.75,9.75,0,0,1,11.5,69a.5.5,0,0,1,0-1,8.45,8.45,0,0,0,3-.48A9.7,9.7,0,0,1,17.84,67a9.75,9.75,0,0,1,3.32.52,8.41,8.41,0,0,0,3,.48,8.39,8.39,0,0,0,3-.48A9.75,9.75,0,0,1,30.51,67a9.64,9.64,0,0,1,3.31.52,8.45,8.45,0,0,0,3,.48,8.39,8.39,0,0,0,3-.48,10.86,10.86,0,0,1,6.64,0,8.35,8.35,0,0,0,3,.48.5.5,0,0,1,0,1Z"/><path class="cls-2" d="M49.5,65a9.75,9.75,0,0,1-3.32-.52,8.35,8.35,0,0,0-3-.48,8.45,8.45,0,0,0-3,.48,9.64,9.64,0,0,1-3.31.52,9.75,9.75,0,0,1-3.32-.52,8.39,8.39,0,0,0-3-.48,8.45,8.45,0,0,0-3,.48,9.64,9.64,0,0,1-3.31.52,9.66,9.66,0,0,1-3.32-.52,8.45,8.45,0,0,0-3-.48,8.45,8.45,0,0,0-3,.48A9.75,9.75,0,0,1,11.5,65a.5.5,0,0,1,0-1,8.45,8.45,0,0,0,3-.48A9.7,9.7,0,0,1,17.84,63a9.75,9.75,0,0,1,3.32.52,8.41,8.41,0,0,0,3,.48,8.39,8.39,0,0,0,3-.48A9.75,9.75,0,0,1,30.51,63a9.64,9.64,0,0,1,3.31.52,8.45,8.45,0,0,0,3,.48,8.39,8.39,0,0,0,3-.48,10.86,10.86,0,0,1,6.64,0,8.35,8.35,0,0,0,3,.48.5.5,0,0,1,0,1Z"/><path class="cls-2" d="M49.5,61a9.75,9.75,0,0,1-3.32-.52,8.35,8.35,0,0,0-3-.48,8.45,8.45,0,0,0-3,.48,9.64,9.64,0,0,1-3.31.52,9.75,9.75,0,0,1-3.32-.52,8.39,8.39,0,0,0-3-.48,8.45,8.45,0,0,0-3,.48,9.64,9.64,0,0,1-3.31.52,9.66,9.66,0,0,1-3.32-.52,8.45,8.45,0,0,0-3-.48,8.45,8.45,0,0,0-3,.48A9.75,9.75,0,0,1,11.5,61a.5.5,0,0,1,0-1,8.45,8.45,0,0,0,3-.48A9.7,9.7,0,0,1,17.84,59a9.75,9.75,0,0,1,3.32.52,8.41,8.41,0,0,0,3,.48,8.39,8.39,0,0,0,3-.48A9.75,9.75,0,0,1,30.51,59a9.64,9.64,0,0,1,3.31.52,8.45,8.45,0,0,0,3,.48,8.39,8.39,0,0,0,3-.48,10.86,10.86,0,0,1,6.64,0,8.35,8.35,0,0,0,3,.48.5.5,0,0,1,0,1Z"/><path class="cls-3" d="M49.5,73a9.75,9.75,0,0,1-3.32-.52,8.35,8.35,0,0,0-3-.48,8.45,8.45,0,0,0-3,.48,9.64,9.64,0,0,1-3.31.52,9.75,9.75,0,0,1-3.32-.52,8.39,8.39,0,0,0-3-.48,8.45,8.45,0,0,0-3,.48,9.64,9.64,0,0,1-3.31.52,9.66,9.66,0,0,1-3.32-.52,8.45,8.45,0,0,0-3-.48,8.45,8.45,0,0,0-3,.48A9.75,9.75,0,0,1,11.5,73a.5.5,0,0,1-.5-.5v-62a.5.5,0,0,1,.5-.5h38a.5.5,0,0,1,.5.5v62A.5.5,0,0,1,49.5,73Zm-19-2a9.64,9.64,0,0,1,3.31.52,8.45,8.45,0,0,0,3,.48,8.39,8.39,0,0,0,3-.48,10.86,10.86,0,0,1,6.64,0A8,8,0,0,0,49,72V11H12V72a8.12,8.12,0,0,0,2.52-.47A9.7,9.7,0,0,1,17.84,71a9.75,9.75,0,0,1,3.32.52,8.41,8.41,0,0,0,3,.48,8.39,8.39,0,0,0,3-.48A9.75,9.75,0,0,1,30.51,71Z"/><path class="cls-2" d="M66.5.5v10H6.5V.5H.5v10a6,6,0,0,0,6,6h60a6,6,0,0,0,6-6V.5Z"/><path class="cls-3" d="M66.5,17H6.5A6.51,6.51,0,0,1,0,10.5V.5A.5.5,0,0,1,.5,0h6A.5.5,0,0,1,7,.5V10H66V.5a.5.5,0,0,1,.5-.5h6a.5.5,0,0,1,.5.5v10A6.51,6.51,0,0,1,66.5,17ZM1,1v9.5A5.51,5.51,0,0,0,6.5,16h60A5.51,5.51,0,0,0,72,10.5V1H67v9.5a.5.5,0,0,1-.5.5H6.5a.5.5,0,0,1-.5-.5V1Z"/><path class="cls-4" d="M23.5,52.5c3.17,0,3.17-1,6.34-1s3.17,1,6.34,1,3.16-1,6.33-1,3.16,1,6.33,1,3.16-1,6.33-1,3.16,1,6.33,1v-36a6,6,0,0,0-6-6h-38a6,6,0,0,1,6,6Z"/><path class="cls-2" d="M61.5,49a9.75,9.75,0,0,1-3.32-.52,8.35,8.35,0,0,0-3-.48,8.45,8.45,0,0,0-3,.48,9.64,9.64,0,0,1-3.31.52,9.75,9.75,0,0,1-3.32-.52,9.71,9.71,0,0,0-6,0,9.64,9.64,0,0,1-3.31.52,9.66,9.66,0,0,1-3.32-.52,8.45,8.45,0,0,0-3-.48,8.45,8.45,0,0,0-3,.48A9.75,9.75,0,0,1,23.5,49a.5.5,0,0,1,0-1,8.45,8.45,0,0,0,3-.48A9.7,9.7,0,0,1,29.84,47a9.75,9.75,0,0,1,3.32.52,8.41,8.41,0,0,0,3,.48,8.39,8.39,0,0,0,3-.48A9.75,9.75,0,0,1,42.51,47a9.64,9.64,0,0,1,3.31.52,9.71,9.71,0,0,0,6,0,10.86,10.86,0,0,1,6.64,0,8.35,8.35,0,0,0,3,.48.5.5,0,0,1,0,1Z"/><path class="cls-2" d="M61.5,45a9.75,9.75,0,0,1-3.32-.52,8.35,8.35,0,0,0-3-.48,8.45,8.45,0,0,0-3,.48,9.64,9.64,0,0,1-3.31.52,9.75,9.75,0,0,1-3.32-.52,9.71,9.71,0,0,0-6,0,9.64,9.64,0,0,1-3.31.52,9.66,9.66,0,0,1-3.32-.52,8.45,8.45,0,0,0-3-.48,8.45,8.45,0,0,0-3,.48A9.75,9.75,0,0,1,23.5,45a.5.5,0,0,1,0-1,8.45,8.45,0,0,0,3-.48A9.7,9.7,0,0,1,29.84,43a9.75,9.75,0,0,1,3.32.52,8.41,8.41,0,0,0,3,.48,8.39,8.39,0,0,0,3-.48A9.75,9.75,0,0,1,42.51,43a9.64,9.64,0,0,1,3.31.52,9.71,9.71,0,0,0,6,0,10.86,10.86,0,0,1,6.64,0,8.35,8.35,0,0,0,3,.48.5.5,0,0,1,0,1Z"/><path class="cls-2" d="M61.5,41a9.75,9.75,0,0,1-3.32-.52,8.35,8.35,0,0,0-3-.48,8.45,8.45,0,0,0-3,.48,9.64,9.64,0,0,1-3.31.52,9.75,9.75,0,0,1-3.32-.52,9.71,9.71,0,0,0-6,0,9.64,9.64,0,0,1-3.31.52,9.66,9.66,0,0,1-3.32-.52,8.45,8.45,0,0,0-3-.48,8.45,8.45,0,0,0-3,.48A9.75,9.75,0,0,1,23.5,41a.5.5,0,0,1,0-1,8.45,8.45,0,0,0,3-.48A9.7,9.7,0,0,1,29.84,39a9.75,9.75,0,0,1,3.32.52,8.41,8.41,0,0,0,3,.48,8.39,8.39,0,0,0,3-.48A9.75,9.75,0,0,1,42.51,39a9.64,9.64,0,0,1,3.31.52,9.71,9.71,0,0,0,6,0,10.86,10.86,0,0,1,6.64,0,8.35,8.35,0,0,0,3,.48.5.5,0,0,1,0,1Z"/><path class="cls-3" d="M61.5,53a9.75,9.75,0,0,1-3.32-.52,8.35,8.35,0,0,0-3-.48,8.45,8.45,0,0,0-3,.48,9.64,9.64,0,0,1-3.31.52,9.75,9.75,0,0,1-3.32-.52,9.71,9.71,0,0,0-6,0,9.64,9.64,0,0,1-3.31.52,9.66,9.66,0,0,1-3.32-.52,8.45,8.45,0,0,0-3-.48,8.45,8.45,0,0,0-3,.48A9.75,9.75,0,0,1,23.5,53a.5.5,0,0,1-.5-.5v-36A5.51,5.51,0,0,0,17.5,11a.5.5,0,0,1,0-1h38A6.51,6.51,0,0,1,62,16.5v36A.5.5,0,0,1,61.5,53Zm-19-2a9.64,9.64,0,0,1,3.31.52,9.71,9.71,0,0,0,6,0,10.86,10.86,0,0,1,6.64,0A8,8,0,0,0,61,52V16.5A5.51,5.51,0,0,0,55.5,11H21a6.49,6.49,0,0,1,3,5.5V52a8.12,8.12,0,0,0,2.52-.47A9.7,9.7,0,0,1,29.84,51a9.75,9.75,0,0,1,3.32.52,8.41,8.41,0,0,0,3,.48,8.39,8.39,0,0,0,3-.48A9.75,9.75,0,0,1,42.51,51Z"/></g></g></svg>