<svg xmlns="http://www.w3.org/2000/svg" viewBox="0 0 73 73"><defs><style>.cls-1{fill:#f29e8c;}.cls-2{fill:#1b3249;}.cls-3{fill:#fff;}.cls-4{fill:#edc16b;}</style></defs><title>Asset 331</title><g id="Layer_2" data-name="Layer 2"><g id="_1" data-name="1"><path class="cls-1" d="M5.1,67.9h0a15.73,15.73,0,0,1,0-22.24L17.33,33.43a22.45,22.45,0,0,0,2.32-2.73L39.25,3.57,69.43,33.75,42.3,53.34a22.53,22.53,0,0,0-2.73,2.33L27.34,67.9A15.73,15.73,0,0,1,5.1,67.9Z"/><path class="cls-2" d="M16.22,73A16.17,16.17,0,0,1,4.74,68.25h0a16.25,16.25,0,0,1,0-22.94L17,33.08a22.19,22.19,0,0,0,2.28-2.67L38.84,3.28a.51.51,0,0,1,.37-.21.5.5,0,0,1,.39.14L69.78,33.39a.5.5,0,0,1,.15.4.49.49,0,0,1-.21.36L42.59,53.75A21.48,21.48,0,0,0,39.92,56L27.69,68.25A16.15,16.15,0,0,1,16.22,73ZM5.45,67.55a15.25,15.25,0,0,0,21.53,0L39.21,55.32A21.79,21.79,0,0,1,42,52.94L68.66,33.69,39.31,4.34,20.06,31a24.45,24.45,0,0,1-2.38,2.8L5.45,46a15.26,15.26,0,0,0,0,21.54Z"/><path class="cls-3" d="M13.58,43.78a.51.51,0,0,1-.36-.15.5.5,0,0,1,0-.7l3.58-3.58a.5.5,0,0,1,.7,0,.5.5,0,0,1,0,.71l-3.57,3.57A.49.49,0,0,1,13.58,43.78Z"/><path class="cls-3" d="M6.25,62.48a.49.49,0,0,1-.44-.26,11.85,11.85,0,0,1,2.11-14l2.92-2.92a.5.5,0,0,1,.71,0,.5.5,0,0,1,0,.7L8.63,48.94A10.85,10.85,0,0,0,6.69,61.75a.49.49,0,0,1-.21.67A.46.46,0,0,1,6.25,62.48Z"/><path class="cls-4" d="M55.52,4,69,17.47a11.77,11.77,0,0,1-5.38,19.72l-18.22,4.7A11.77,11.77,0,0,1,31.11,27.55l4.7-18.21A11.76,11.76,0,0,1,55.52,4Z"/><path class="cls-2" d="M42.45,42.77A12.27,12.27,0,0,1,30.63,27.43l4.7-18.22a12.27,12.27,0,0,1,20.55-5.6L69.39,17.12a12.27,12.27,0,0,1-5.61,20.55l-18.21,4.7A12.36,12.36,0,0,1,42.45,42.77ZM47.26,1a11.62,11.62,0,0,0-3,.41,11.17,11.17,0,0,0-8,8.05l-4.7,18.22A11.27,11.27,0,0,0,45.32,41.4l18.21-4.7a11.25,11.25,0,0,0,5.15-18.87L55.17,4.31A11.13,11.13,0,0,0,47.26,1Z"/><path class="cls-1" d="M51.53,15.91a6.55,6.55,0,1,1,0-9.27A6.55,6.55,0,0,1,51.53,15.91Z"/><path class="cls-3" d="M48.88,13.26a2.81,2.81,0,1,1,0-4A2.82,2.82,0,0,1,48.88,13.26Z"/><path class="cls-1" d="M66.36,30.74a6.55,6.55,0,1,1,0-9.27A6.55,6.55,0,0,1,66.36,30.74Z"/><path class="cls-3" d="M63.71,28.09a2.81,2.81,0,1,1,0-4A2.8,2.8,0,0,1,63.71,28.09Z"/><path class="cls-1" d="M46.52,35.75a6.55,6.55,0,1,1,0-9.27A6.55,6.55,0,0,1,46.52,35.75Z"/><path class="cls-3" d="M43.87,33.1a2.81,2.81,0,1,1,0-4A2.82,2.82,0,0,1,43.87,33.1Z"/><path class="cls-2" d="M46.89,18.33a7.06,7.06,0,1,1,5-2.07A7,7,0,0,1,46.89,18.33Zm0-13.11a6.06,6.06,0,1,0,4.28,10.33h0A6.05,6.05,0,0,0,46.89,5.22Z"/><path class="cls-2" d="M61.72,33.16a7.05,7.05,0,1,1,5-2.06A7,7,0,0,1,61.72,33.16Zm0-13.11A6.06,6.06,0,1,0,66,21.82,6,6,0,0,0,61.73,20.05Z"/><path class="cls-2" d="M41.88,38.16a7.05,7.05,0,1,1,5-2.06h0A7,7,0,0,1,41.88,38.16Zm0-13.1a6.05,6.05,0,1,0,4.29,1.77A6,6,0,0,0,41.88,25.06Zm4.64,10.69h0Z"/><path class="cls-3" d="M28.92,44.07a6.74,6.74,0,0,0-9.53,0l-7.94,8A6.74,6.74,0,0,0,21,61.55l7.94-7.95A6.72,6.72,0,0,0,28.92,44.07Z"/><path class="cls-2" d="M16.22,64A7.24,7.24,0,0,1,11.1,51.66L19,43.72A7.24,7.24,0,0,1,29.28,54L21.34,61.9A7.25,7.25,0,0,1,16.22,64ZM24.16,42.6a6.19,6.19,0,0,0-4.41,1.83l-7.94,7.94a6.24,6.24,0,1,0,8.82,8.82l7.94-7.94A6.24,6.24,0,0,0,24.16,42.6Z"/><path class="cls-2" d="M24.16,52.71a3.87,3.87,0,0,1,0-7.74.5.5,0,0,1,0,1A2.87,2.87,0,1,0,27,48.84a.5.5,0,0,1,1,0A3.88,3.88,0,0,1,24.16,52.71Z"/><path class="cls-2" d="M25.35,48.15A.47.47,0,0,1,25,48a.5.5,0,0,1,0-.71l1.59-1.59a.5.5,0,0,1,.7,0,.5.5,0,0,1,0,.71L25.7,48A.47.47,0,0,1,25.35,48.15Z"/></g></g></svg>