<svg xmlns="http://www.w3.org/2000/svg" viewBox="0 0 73 73"><defs><style>.cls-1{fill:#1b3249;}.cls-2{fill:#fff;}.cls-3{fill:#edc16b;}.cls-4{fill:#f29e8c;}</style></defs><title>Asset 241</title><g id="Layer_2" data-name="Layer 2"><g id="_1" data-name="1"><path class="cls-1" d="M39.5,69h-6a.5.5,0,0,1-.5-.5v-14a.5.5,0,0,1,.5-.5h6a.5.5,0,0,1,.5.5v14A.5.5,0,0,1,39.5,69ZM34,68h5V55H34Z"/><rect class="cls-2" x="33.5" y="54.5" width="6" height="14"/><path class="cls-1" d="M39.5,69h-6a.5.5,0,0,1-.5-.5v-14a.5.5,0,0,1,.5-.5h6a.5.5,0,0,1,.5.5v14A.5.5,0,0,1,39.5,69ZM34,68h5V55H34Z"/><path class="cls-3" d="M53.5,72.5h-34a6,6,0,0,1,6-6h22a6,6,0,0,1,6,6Z"/><path class="cls-3" d="M28.84,54.5a14,14,0,0,1-13.38-9.88l0-.12H48.5a10,10,0,0,1,10,10H28.84Z"/><path class="cls-3" d="M13,36.5h0A8.13,8.13,0,0,0,20.73,26L15.89,10.26A11,11,0,0,0,5.38,2.5H2.5Z"/><path class="cls-1" d="M53.5,73h-34a.5.5,0,0,1-.5-.5A6.51,6.51,0,0,1,25.5,66h22A6.51,6.51,0,0,1,54,72.5.5.5,0,0,1,53.5,73ZM20,72H53a5.52,5.52,0,0,0-5.48-5h-22A5.52,5.52,0,0,0,20,72Z"/><path class="cls-1" d="M72.5,73H.5a.5.5,0,0,1,0-1h72a.5.5,0,0,1,0,1Z"/><path class="cls-1" d="M72.5,65h-12a.5.5,0,0,1-.46-.32l-4-10a.5.5,0,0,1,.27-.65.51.51,0,0,1,.65.28L60.84,64H72.5a.5.5,0,0,1,0,1Z"/><path class="cls-1" d="M58.5,55H28.84A14.42,14.42,0,0,1,15,44.76l0-.11A.51.51,0,0,1,15,44.2a.49.49,0,0,1,.4-.2H48.5A10.51,10.51,0,0,1,59,54.5.5.5,0,0,1,58.5,55ZM16.11,45a13.43,13.43,0,0,0,12.73,9H58a9.51,9.51,0,0,0-9.49-9Z"/><path class="cls-1" d="M13,37a.5.5,0,0,1-.48-.35L2,2.65A.51.51,0,0,1,2.1,2.2.48.48,0,0,1,2.5,2H5.38a11.44,11.44,0,0,1,11,8.12L21.2,25.84A8.62,8.62,0,0,1,13,37ZM3.18,3,13.33,36a7.64,7.64,0,0,0,6.92-9.86L15.41,10.41A10.45,10.45,0,0,0,5.38,3Z"/><path class="cls-4" d="M58.5,56.5H28.84A15.92,15.92,0,0,1,13.55,45.2l0-.11v0L.59,3.09A2,2,0,0,1,4.41,1.91L17.37,44A12,12,0,0,0,28.84,52.5H58.5a2,2,0,0,1,0,4Z"/><path class="cls-1" d="M58.5,57H28.84A16.41,16.41,0,0,1,13.07,45.35l0-.11L.11,3.23A2.5,2.5,0,0,1,4.89,1.76l13,42.12a11.43,11.43,0,0,0,11,8.12H58.5a2.5,2.5,0,0,1,0,5ZM2.5,1a1.31,1.31,0,0,0-.44.07,1.49,1.49,0,0,0-1,1.87L14,45.06A15.41,15.41,0,0,0,28.84,56H58.5a1.5,1.5,0,0,0,0-3H28.84a12.45,12.45,0,0,1-11.95-8.83L3.93,2.06A1.48,1.48,0,0,0,2.5,1Z"/><path class="cls-4" d="M44.49,35.93v0l0-.12A15.92,15.92,0,0,0,29.16,24.5H11.36l1.23,4H29.16A11.94,11.94,0,0,1,40.63,37L45.41,52.5h4.18Z"/><path class="cls-1" d="M49.59,53H45.41a.5.5,0,0,1-.48-.35L40.15,37.12a11.43,11.43,0,0,0-11-8.12H12.59a.5.5,0,0,1-.48-.35l-1.23-4A.55.55,0,0,1,11,24.2a.48.48,0,0,1,.4-.2h17.8A16.41,16.41,0,0,1,44.93,35.65l0,.11-.48.17.48-.15,5.1,16.57a.49.49,0,0,1-.08.45A.51.51,0,0,1,49.59,53Zm-3.81-1h3.14L44,36.07h0l0-.12A15.41,15.41,0,0,0,29.16,25H12L13,28h16.2a12.45,12.45,0,0,1,12,8.82Z"/></g></g></svg>