<svg xmlns="http://www.w3.org/2000/svg" viewBox="0 0 73 73"><defs><style>.cls-1{fill:#f29e8c;}.cls-2{fill:#1b3249;}.cls-3{fill:#edc16b;}.cls-4{fill:#fff;}</style></defs><title>Asset 181</title><g id="Layer_2" data-name="Layer 2"><g id="_1" data-name="1"><path class="cls-1" d="M61.5,27.5h-37v32h27a21,21,0,0,0,21-21A11,11,0,0,0,61.5,27.5Zm6,12a15,15,0,0,1-15,15h-23v-22h32a6,6,0,0,1,6,6Z"/><path class="cls-2" d="M51.5,60h-27a.5.5,0,0,1-.5-.5v-32a.5.5,0,0,1,.5-.5h37A11.51,11.51,0,0,1,73,38.5,21.52,21.52,0,0,1,51.5,60ZM25,59H51.5A20.53,20.53,0,0,0,72,38.5,10.51,10.51,0,0,0,61.5,28H25Zm27.5-4h-23a.5.5,0,0,1-.5-.5v-22a.5.5,0,0,1,.5-.5h32A6.51,6.51,0,0,1,68,38.5v1A15.51,15.51,0,0,1,52.5,55ZM30,54H52.5A14.51,14.51,0,0,0,67,39.5v-1A5.51,5.51,0,0,0,61.5,33H30Z"/><path class="cls-2" d="M38.58,20.38a.5.5,0,0,1-.5-.5,3.66,3.66,0,0,0-3.66-3.65H20.58a3.27,3.27,0,0,1,0-6.54H44.12a2.27,2.27,0,0,0,0-4.54H29.58a2.58,2.58,0,1,1,0-5.15h7.61a.5.5,0,0,1,.5.5.5.5,0,0,1-.5.5H29.58a1.58,1.58,0,1,0,0,3.15H44.12a3.27,3.27,0,0,1,0,6.54H20.58a2.27,2.27,0,0,0,0,4.54H34.42a4.66,4.66,0,0,1,4.66,4.65A.5.5,0,0,1,38.58,20.38Z"/><path class="cls-3" d="M6.5,22.5h50s6,48-25,48S6.5,22.5,6.5,22.5Z"/><path class="cls-2" d="M31.5,71c-7,0-12.76-2.45-17-7.28C2.67,50.35,5.86,23.57,6,22.44A.51.51,0,0,1,6.5,22h50a.51.51,0,0,1,.5.44c.14,1.13,3.33,27.91-8.48,41.28C44.26,68.55,38.53,71,31.5,71ZM7,23c-.37,3.57-2.43,27.94,8.28,40.06C19.29,67.67,24.77,70,31.5,70s12.21-2.33,16.27-6.94C58.48,50.94,56.42,26.57,56.05,23Z"/><path class="cls-4" d="M17.81,51.24a1,1,0,0,1-1-.84,129.69,129.69,0,0,1-1.27-22.93,1,1,0,0,1,1-1,1,1,0,0,1,1,1,127.91,127.91,0,0,0,1.24,22.55A1,1,0,0,1,18,51.23Z"/><path class="cls-4" d="M20.75,62.36a1,1,0,0,1-.92-.61A41.66,41.66,0,0,1,18,56.13a1,1,0,0,1,1.94-.5A38.67,38.67,0,0,0,21.67,61a1,1,0,0,1-.53,1.31A1.07,1.07,0,0,1,20.75,62.36Z"/><path class="cls-1" d="M52.5,72.5h-42c-7,0-7-6-7-6h56S59.5,72.5,52.5,72.5Z"/><path class="cls-2" d="M52.5,73h-42C3.09,73,3,66.57,3,66.5a.5.5,0,0,1,.5-.5h56a.5.5,0,0,1,.5.5C60,66.57,59.91,73,52.5,73ZM4,67c.18,1.36,1.15,5,6.46,5h42c5.31,0,6.28-3.64,6.46-5Z"/><path class="cls-2" d="M62.5,67H.5a.5.5,0,0,1,0-1h62a.5.5,0,0,1,0,1Z"/></g></g></svg>