<svg xmlns="http://www.w3.org/2000/svg" viewBox="0 0 61 73"><defs><style>.cls-1{fill:#f29e8c;}.cls-2{fill:#edc16b;}.cls-3{fill:#1b3249;}.cls-4{fill:#fff;}</style></defs><title>Asset 191</title><g id="Layer_2" data-name="Layer 2"><g id="_1" data-name="1"><path class="cls-1" d="M41.5,44.5a19.15,19.15,0,0,0-16,6v8a19.15,19.15,0,0,1,16-6,19.15,19.15,0,0,0,16-6v-8A19.15,19.15,0,0,1,41.5,44.5Z"/><path class="cls-2" d="M41.5,36.5a19.15,19.15,0,0,0-16,6v8a19.15,19.15,0,0,1,16-6,19.15,19.15,0,0,0,16-6v-8A19.15,19.15,0,0,1,41.5,36.5Z"/><path class="cls-2" d="M41.5,52.5a19.15,19.15,0,0,0-16,6h32v-12A19.15,19.15,0,0,1,41.5,52.5Z"/><path class="cls-1" d="M25.5,14.5v12a19.15,19.15,0,0,1,16-6,19.15,19.15,0,0,0,16-6h-32Z"/><path class="cls-1" d="M41.5,28.5a19.15,19.15,0,0,0-16,6v8a19.15,19.15,0,0,1,16-6,19.15,19.15,0,0,0,16-6v-8A19.15,19.15,0,0,1,41.5,28.5Z"/><path class="cls-2" d="M41.5,20.5a19.15,19.15,0,0,0-16,6v8a19.15,19.15,0,0,1,16-6,19.15,19.15,0,0,0,16-6v-8A19.15,19.15,0,0,1,41.5,20.5Z"/><rect class="cls-1" x="8.5" y="9.5" width="17" height="4"/><path class="cls-3" d="M25.5,14H8.5a.5.5,0,0,1-.5-.5v-4A.5.5,0,0,1,8.5,9h17a.5.5,0,0,1,.5.5v4A.5.5,0,0,1,25.5,14ZM9,13H25V10H9Z"/><rect class="cls-1" x="8.5" y="59.5" width="17" height="4"/><path class="cls-3" d="M25.5,64H8.5a.5.5,0,0,1-.5-.5v-4a.5.5,0,0,1,.5-.5h17a.5.5,0,0,1,.5.5v4A.5.5,0,0,1,25.5,64ZM9,63H25V60H9Z"/><path class="cls-2" d="M1.5,72.5h0a1,1,0,0,1-1-1V1.5a1,1,0,0,1,1-1h0a7,7,0,0,1,7,7v58A7,7,0,0,1,1.5,72.5Z"/><path class="cls-3" d="M1.5,73A1.5,1.5,0,0,1,0,71.5V1.5A1.5,1.5,0,0,1,1.5,0,7.5,7.5,0,0,1,9,7.5v58A7.5,7.5,0,0,1,1.5,73Zm0-72a.5.5,0,0,0-.5.5v70a.5.5,0,0,0,.5.5A6.51,6.51,0,0,0,8,65.5V7.5A6.51,6.51,0,0,0,1.5,1Z"/><path class="cls-2" d="M57.5,8.5h-32a8,8,0,0,1,8-8h16a8,8,0,0,1,8,8Z"/><path class="cls-3" d="M57.5,9h-32a.5.5,0,0,1-.5-.5A8.51,8.51,0,0,1,33.5,0h16A8.51,8.51,0,0,1,58,8.5.5.5,0,0,1,57.5,9ZM26,8H57A7.5,7.5,0,0,0,49.5,1h-16A7.5,7.5,0,0,0,26,8Z"/><path class="cls-2" d="M49.5,72.5h-16a8,8,0,0,1-8-8h32A8,8,0,0,1,49.5,72.5Z"/><path class="cls-3" d="M49.5,73h-16A8.51,8.51,0,0,1,25,64.5a.5.5,0,0,1,.5-.5h32a.5.5,0,0,1,.5.5A8.51,8.51,0,0,1,49.5,73ZM26,65a7.5,7.5,0,0,0,7.48,7h16A7.5,7.5,0,0,0,57,65Z"/><path class="cls-3" d="M57.5,59h-32a.5.5,0,0,1-.5-.5v-44a.5.5,0,0,1,.5-.5h32a.5.5,0,0,1,.5.5v44A.5.5,0,0,1,57.5,59ZM26,58H57V15H26Z"/><rect class="cls-4" x="22.5" y="58.5" width="38" height="6" rx="2"/><path class="cls-3" d="M58.5,65h-34A2.5,2.5,0,0,1,22,62.5v-2A2.5,2.5,0,0,1,24.5,58h34A2.5,2.5,0,0,1,61,60.5v2A2.5,2.5,0,0,1,58.5,65Zm-34-6A1.5,1.5,0,0,0,23,60.5v2A1.5,1.5,0,0,0,24.5,64h34A1.5,1.5,0,0,0,60,62.5v-2A1.5,1.5,0,0,0,58.5,59Z"/><rect class="cls-4" x="22.5" y="8.5" width="38" height="6" rx="2"/><path class="cls-3" d="M58.5,15h-34A2.5,2.5,0,0,1,22,12.5v-2A2.5,2.5,0,0,1,24.5,8h34A2.5,2.5,0,0,1,61,10.5v2A2.5,2.5,0,0,1,58.5,15Zm-34-6A1.5,1.5,0,0,0,23,10.5v2A1.5,1.5,0,0,0,24.5,14h34A1.5,1.5,0,0,0,60,12.5v-2A1.5,1.5,0,0,0,58.5,9Z"/><path class="cls-3" d="M25.5,59a.51.51,0,0,1-.31-.11.5.5,0,0,1-.08-.7A19.45,19.45,0,0,1,41.54,52a18.84,18.84,0,0,0,15.57-5.81.5.5,0,1,1,.78.62A19.45,19.45,0,0,1,41.46,53a18.88,18.88,0,0,0-15.57,5.81A.48.48,0,0,1,25.5,59Z"/><path class="cls-3" d="M25.5,51a.51.51,0,0,1-.31-.11.5.5,0,0,1-.08-.7A19.45,19.45,0,0,1,41.54,44a18.84,18.84,0,0,0,15.57-5.81.5.5,0,1,1,.78.62A19.48,19.48,0,0,1,41.46,45a18.88,18.88,0,0,0-15.57,5.81A.48.48,0,0,1,25.5,51Z"/><path class="cls-3" d="M25.5,43a.51.51,0,0,1-.31-.11.5.5,0,0,1-.08-.7A19.45,19.45,0,0,1,41.54,36a18.84,18.84,0,0,0,15.57-5.81.5.5,0,1,1,.78.62A19.45,19.45,0,0,1,41.46,37a18.88,18.88,0,0,0-15.57,5.81A.48.48,0,0,1,25.5,43Z"/><path class="cls-3" d="M25.5,35a.51.51,0,0,1-.31-.11.5.5,0,0,1-.08-.7A19.45,19.45,0,0,1,41.54,28a18.84,18.84,0,0,0,15.57-5.81.5.5,0,0,1,.78.62A19.45,19.45,0,0,1,41.46,29a18.88,18.88,0,0,0-15.57,5.81A.48.48,0,0,1,25.5,35Z"/><path class="cls-3" d="M25.5,27a.51.51,0,0,1-.31-.11.5.5,0,0,1-.08-.7A19.45,19.45,0,0,1,41.54,20a18.81,18.81,0,0,0,15.57-5.81.5.5,0,0,1,.78.62A19.45,19.45,0,0,1,41.46,21a18.88,18.88,0,0,0-15.57,5.81A.48.48,0,0,1,25.5,27Z"/><path class="cls-4" d="M3.5,64a.5.5,0,0,1-.5-.5v-10a.5.5,0,0,1,1,0v10A.5.5,0,0,1,3.5,64Z"/><path class="cls-4" d="M3.5,50a.5.5,0,0,1-.5-.5v-30a.5.5,0,0,1,1,0v30A.5.5,0,0,1,3.5,50Z"/></g></g></svg>