<svg xmlns="http://www.w3.org/2000/svg" viewBox="0 0 73 72.99"><defs><style>.cls-1{fill:#edc16b;}.cls-2{fill:#1b3249;}.cls-3{fill:#f29e8c;}.cls-4{fill:#fff;}</style></defs><title>Asset 51</title><g id="Layer_2" data-name="Layer 2"><g id="_1" data-name="1"><path class="cls-1" d="M34.75,12.24,24.46,22.53A11.55,11.55,0,0,0,21.2,29l-.54,3.79a11.48,11.48,0,0,1-3.25,6.5L3.87,52.87a11.5,11.5,0,0,0,0,16.26h0a11.49,11.49,0,0,0,16.25,0L33.67,55.58a11.51,11.51,0,0,1,6.5-3.25L44,51.79a11.48,11.48,0,0,0,6.5-3.25l10.3-10.29a2.31,2.31,0,0,0,0-3.25L38,12.24A2.29,2.29,0,0,0,34.75,12.24Z"/><path class="cls-2" d="M12,73A12,12,0,0,1,3.51,52.52L17.06,39a11.1,11.1,0,0,0,3.11-6.22l.54-3.8a12,12,0,0,1,3.39-6.78L34.4,11.89a2.85,2.85,0,0,1,4,0L61.11,34.64a2.8,2.8,0,0,1,0,4L50.82,48.89A12.11,12.11,0,0,1,44,52.29l-3.79.54A11,11,0,0,0,34,55.94L20.47,69.48A11.94,11.94,0,0,1,12,73ZM36.37,12.07a1.78,1.78,0,0,0-1.27.52h0L24.81,22.89a11,11,0,0,0-3.11,6.22l-.54,3.79a12.1,12.1,0,0,1-3.39,6.78L4.22,53.23a11,11,0,0,0,0,15.55,11,11,0,0,0,15.55,0L33.31,55.23a12.07,12.07,0,0,1,6.79-3.39l3.79-.54a11.1,11.1,0,0,0,6.22-3.11L60.4,37.89a1.79,1.79,0,0,0,0-2.54L37.65,12.59A1.8,1.8,0,0,0,36.37,12.07Zm-1.62.17h0Z"/><path class="cls-3" d="M72.2,22.06a1.25,1.25,0,0,0-1.76-1.76L61,28.76,58.86,26.6l8.47-9.42a1.25,1.25,0,0,0-1.76-1.76l-9.42,8.47L54,21.72l8.47-9.42a1.25,1.25,0,0,0-1.76-1.76L51.27,19l-2.16-2.17,8.47-9.41a1.25,1.25,0,0,0-.08-1.69,1.24,1.24,0,0,0-1.68-.07L46.4,14.14,44.23,12,52.7,2.55A1.25,1.25,0,0,0,50.94.79L38,12.24l2,2,1.22,1.22,1.63,1.63,3.25,3.25L47.75,22,51,25.24l1.63,1.63,3.25,3.25,1.62,1.62L58.72,33l2,2Z"/><path class="cls-2" d="M60.76,35.5a.53.53,0,0,1-.36-.15L37.65,12.59a.5.5,0,0,1-.15-.37.49.49,0,0,1,.17-.35L50.61.42a1.75,1.75,0,0,1,2.47,2.45L44.92,12l1.5,1.5,9.06-8.16A1.75,1.75,0,0,1,58,7.75L49.8,16.83l1.49,1.49,9.07-8.15a1.75,1.75,0,0,1,2.47,2.46L54.67,21.7l1.5,1.5,9.06-8.15a1.75,1.75,0,0,1,2.48,2.45l-8.16,9.08,1.5,1.5,9.06-8.16a1.75,1.75,0,0,1,2.48,2.46h0L61.13,35.33a.53.53,0,0,1-.36.17Zm-22-23.24,22,22,11.1-12.54a.76.76,0,0,0,0-1,.73.73,0,0,0-1,0l-9.41,8.46a.51.51,0,0,1-.69,0L58.51,27a.5.5,0,0,1,0-.69L67,16.85a.75.75,0,0,0-1.07-1.05l-9.41,8.46a.49.49,0,0,1-.68,0l-2.17-2.17a.49.49,0,0,1,0-.68L62.08,12a.74.74,0,0,0,0-1,.75.75,0,0,0-1-.05l-9.4,8.46a.51.51,0,0,1-.69,0L48.75,17.2a.51.51,0,0,1,0-.69L57.2,7.09a.75.75,0,0,0-1.06-1l-9.41,8.46a.51.51,0,0,1-.69,0l-2.16-2.17a.5.5,0,0,1,0-.69l8.47-9.41a.75.75,0,0,0-1.07-1.05Zm33.47,9.8h0Z"/><path class="cls-3" d="M44.5,28.49h0a5.75,5.75,0,0,0-8.12,0l-8.13,8.13a5.74,5.74,0,0,0,0,8.13h0a5.76,5.76,0,0,0,8.13,0l8.12-8.13A5.74,5.74,0,0,0,44.5,28.49Z"/><path class="cls-2" d="M32.31,46.93a6.25,6.25,0,0,1-4.42-10.66L36,28.14A6.25,6.25,0,0,1,44.86,37L36.73,45.1A6.23,6.23,0,0,1,32.31,46.93Zm8.13-19.62a5.19,5.19,0,0,0-3.71,1.54L28.6,37A5.25,5.25,0,0,0,36,44.39l8.13-8.12a5.26,5.26,0,0,0,0-7.42A5.21,5.21,0,0,0,40.44,27.31Z"/><path class="cls-4" d="M44.5,36.62a5.75,5.75,0,1,1,0-8.13A5.75,5.75,0,0,1,44.5,36.62Z"/><path class="cls-2" d="M40.44,38.8A6.25,6.25,0,1,1,44.86,37,6.23,6.23,0,0,1,40.44,38.8Zm0-11.49a5.25,5.25,0,0,0-3.71,9,5.25,5.25,0,0,0,7.42-7.42A5.21,5.21,0,0,0,40.44,27.31Z"/><path class="cls-4" d="M16.87,66.88a1,1,0,0,1-.71-.3L6.41,56.83a1,1,0,0,1,1.41-1.41l9.76,9.75a1,1,0,0,1-.71,1.71Z"/><path class="cls-4" d="M12,68.5a1,1,0,0,1-.7-.29l-6.51-6.5A1,1,0,0,1,6.2,60.29l6.5,6.51a1,1,0,0,1,0,1.41A1,1,0,0,1,12,68.5Z"/><path class="cls-4" d="M20.12,63.63a1,1,0,0,1-.71-.3L9.66,53.58a1,1,0,0,1,0-1.41,1,1,0,0,1,1.42,0l9.75,9.75a1,1,0,0,1-.71,1.71Z"/><path class="cls-4" d="M23.37,60.38a1,1,0,0,1-.71-.3l-9.75-9.75a1,1,0,0,1,0-1.41,1,1,0,0,1,1.42,0l9.75,9.75a1,1,0,0,1-.71,1.71Z"/></g></g></svg>