<svg xmlns="http://www.w3.org/2000/svg" viewBox="0 0 73 73"><defs><style>.cls-1{fill:#edc16b;}.cls-2{fill:#1b3249;}.cls-3{fill:#fff;}.cls-4{fill:#f29e8c;}</style></defs><title>Asset 71</title><g id="Layer_2" data-name="Layer 2"><g id="_1" data-name="1"><path class="cls-1" d="M40.18,63.49c.39-4.32-1.55-8.24-4.58-9.93,1.21-5.63,2.09-11.94,2.84-18.43,1.37-12,2.31-24.53,4.08-34.63C24,16.6,28.9,48.59,29.72,53.19c-3,1.21-5.27,4.45-5.63,8.49-.5,5.45,2.7,10.28,7.14,10.78S39.68,69,40.18,63.49Z"/><path class="cls-1" d="M36.74,63.11c-.28,3.12-2.58,5.42-5.12,5.13s-4.38-3-4.1-6.17,2.58-5.43,5.13-5.14S37,60,36.74,63.11Z"/><path class="cls-2" d="M32,73a7,7,0,0,1-.79,0c-4.71-.53-8.11-5.6-7.59-11.31.36-3.94,2.53-7.32,5.57-8.75-.87-5.2-5.27-36.83,13-52.77A.5.5,0,0,1,43,.58c-1.2,6.88-2,14.77-2.86,23.12-.38,3.78-.78,7.69-1.22,11.49-.86,7.51-1.74,13.28-2.77,18.12,3.1,1.92,4.9,6,4.52,10.23a11.21,11.21,0,0,1-3.84,7.66A7.76,7.76,0,0,1,32,73ZM41.78,1.84C24.62,18.19,29.58,49.52,30.21,53.1a.5.5,0,0,1-.3.55c-2.9,1.18-5,4.35-5.33,8.08-.47,5.17,2.54,9.76,6.71,10.23a6.57,6.57,0,0,0,4.92-1.54,10.14,10.14,0,0,0,3.47-7h0c.37-4-1.37-7.81-4.32-9.45a.5.5,0,0,1-.25-.55c1-4.88,2-10.72,2.83-18.37.44-3.8.83-7.7,1.22-11.48C40,15.8,40.71,8.41,41.78,1.84Z"/><path class="cls-3" d="M36.74,63.11c-.28,3.12-2.58,5.42-5.12,5.13s-4.38-3-4.1-6.17,2.58-5.43,5.13-5.14S37,60,36.74,63.11Z"/><path class="cls-2" d="M32,68.77a3.87,3.87,0,0,1-.48,0C28.75,68.42,26.71,65.41,27,62a6.59,6.59,0,0,1,2.28-4.53,4.57,4.57,0,0,1,3.4-1.06c2.81.32,4.85,3.34,4.54,6.72A6.64,6.64,0,0,1,35,67.69,4.63,4.63,0,0,1,32,68.77Zm.17-11.36a3.61,3.61,0,0,0-2.28.85A5.61,5.61,0,0,0,28,62.11c-.26,2.85,1.38,5.38,3.65,5.64a3.52,3.52,0,0,0,2.66-.84,5.6,5.6,0,0,0,1.92-3.85c.26-2.85-1.38-5.38-3.66-5.63A2.42,2.42,0,0,0,32.21,57.41Z"/><path class="cls-4" d="M9.5,32.82c4.33-.39,8.25,1.54,9.94,4.58,5.63-1.21,11.93-2.09,18.42-2.84,12-1.38,24.54-2.31,34.64-4.08C56.4,49,24.41,44.09,19.81,43.28c-1.21,3-4.45,5.26-8.49,5.63C5.87,49.41,1,46.21.54,41.76S4.05,33.32,9.5,32.82Z"/><path class="cls-4" d="M9.89,36.25c-3.12.29-5.42,2.58-5.14,5.13s3.06,4.38,6.18,4.1,5.42-2.58,5.14-5.13S13,36,9.89,36.25Z"/><path class="cls-2" d="M10.21,49.46C5,49.46.54,46.21,0,41.82A7.65,7.65,0,0,1,1.8,36.16a11.17,11.17,0,0,1,7.66-3.84c4.25-.38,8.31,1.42,10.23,4.51,4.85-1,10.62-1.9,18.12-2.77,3.8-.43,7.71-.83,11.49-1.22C57.65,32,65.54,31.19,72.41,30a.48.48,0,0,1,.52.25.48.48,0,0,1-.05.57c-15.94,18.3-47.58,13.9-52.77,13-1.43,3-4.81,5.21-8.75,5.57A11.06,11.06,0,0,1,10.21,49.46Zm.4-16.19c-.35,0-.7,0-1.06,0h0a10.14,10.14,0,0,0-7,3.47A6.49,6.49,0,0,0,1,41.71c.47,4.17,5.05,7.18,10.23,6.7,3.73-.33,6.9-2.42,8.07-5.32a.5.5,0,0,1,.55-.3c3.59.63,34.92,5.59,51.26-11.57-6.56,1.07-14,1.82-21.75,2.62-3.78.38-7.68.78-11.48,1.22-7.65.88-13.49,1.78-18.38,2.83a.52.52,0,0,1-.54-.25C17.51,35,14.22,33.27,10.61,33.27ZM9.5,32.82h0Z"/><path class="cls-3" d="M58.57,35.51a.5.5,0,0,1-.06-1L62.94,34a.5.5,0,1,1,.12,1l-4.43.55Z"/><path class="cls-3" d="M39.91,37.83a.5.5,0,0,1-.06-1l.78-.1,14.47-1.8a.49.49,0,0,1,.55.43.5.5,0,0,1-.43.56l-14.47,1.8-.78.1Z"/><path class="cls-3" d="M9.89,36.25c-3.12.29-5.42,2.58-5.14,5.13s3.06,4.38,6.18,4.1,5.42-2.58,5.14-5.13S13,36,9.89,36.25Z"/><path class="cls-2" d="M10.3,46c-3.1,0-5.75-1.95-6-4.57a4.57,4.57,0,0,1,1-3.41,6.59,6.59,0,0,1,4.54-2.27c3.39-.31,6.4,1.73,6.71,4.54a4.56,4.56,0,0,1-1,3.4A6.61,6.61,0,0,1,11,46Zm-.36-9.26a5.61,5.61,0,0,0-3.85,1.91,3.56,3.56,0,0,0-.84,2.67C5.51,43.6,8,45.24,10.89,45a5.57,5.57,0,0,0,3.84-1.91,3.48,3.48,0,0,0,.84-2.66c-.26-2.28-2.79-3.93-5.63-3.66Z"/><circle class="cls-2" cx="33.19" cy="39.8" r="1.5"/></g></g></svg>