<svg xmlns="http://www.w3.org/2000/svg" viewBox="0 0 73.01 73"><defs><style>.cls-1{fill:#f29e8c;}.cls-2{fill:#1b3249;}.cls-3{fill:#edc16b;}.cls-4{fill:#fff;}</style></defs><title>Asset 101</title><g id="Layer_2" data-name="Layer 2"><g id="_1" data-name="1"><path class="cls-1" d="M70.89,22.94l-1-1.65-1.09-1.81L58,1.47a1.91,1.91,0,0,0-2.3-.85,1.83,1.83,0,0,0-.91,2.65L65.65,21.35A1.85,1.85,0,0,1,65,23.88l-1.34.79A1.85,1.85,0,0,1,61.13,24L50.34,6A1.91,1.91,0,0,0,48,5.18a1.83,1.83,0,0,0-.91,2.65L58,25.91a1.85,1.85,0,0,1-.64,2.53l-1.34.8a1.86,1.86,0,0,1-2.54-.64l-10.79-18a1.91,1.91,0,0,0-2.3-.85,1.83,1.83,0,0,0-.91,2.65L50.29,30.48A1.84,1.84,0,0,1,49.65,33l-1.34.8a1.86,1.86,0,0,1-2.54-.64L35,15.15a1.91,1.91,0,0,0-2.3-.85A1.83,1.83,0,0,0,31.77,17L42.61,35A1.85,1.85,0,0,1,42,37.56l-1.34.8a1.86,1.86,0,0,1-2.54-.64l-10.79-18a1.91,1.91,0,0,0-2.3-.85,1.83,1.83,0,0,0-.91,2.65L34.93,39.6a1.84,1.84,0,0,1-.64,2.52l-1.34.8a1.86,1.86,0,0,1-2.54-.64l-10.79-18a1.91,1.91,0,0,0-2.3-.85,1.83,1.83,0,0,0-.91,2.65L27.93,45.29a2.29,2.29,0,0,1-1.07,3.28L5.53,57.69a8,8,0,0,0-4.7,9.62A7.26,7.26,0,0,0,11.5,71.48L66.92,38.57A11.37,11.37,0,0,0,70.89,22.94Z"/><path class="cls-2" d="M7.8,73A7.73,7.73,0,0,1,.36,67.45a8.48,8.48,0,0,1,5-10.22l21.33-9.12a1.76,1.76,0,0,0,1-1.1,1.81,1.81,0,0,0-.16-1.47L16,26.32a2.32,2.32,0,0,1-.21-1.94A2.36,2.36,0,0,1,17.14,23,2.42,2.42,0,0,1,20.05,24L30.84,42a1.35,1.35,0,0,0,1.85.47l1.34-.8a1.33,1.33,0,0,0,.47-1.84L23.66,21.76a2.32,2.32,0,0,1-.21-1.94,2.36,2.36,0,0,1,1.37-1.43,2.42,2.42,0,0,1,2.91,1.07l10.79,18a1.35,1.35,0,0,0,1.85.47l1.34-.8a1.33,1.33,0,0,0,.47-1.84L31.34,17.2a2.32,2.32,0,0,1-.21-1.94,2.36,2.36,0,0,1,1.37-1.43,2.42,2.42,0,0,1,2.91,1.07l10.79,18a1.36,1.36,0,0,0,1.85.47l1.34-.8a1.34,1.34,0,0,0,.47-1.84L39,12.64a2.32,2.32,0,0,1-.21-1.94,2.36,2.36,0,0,1,1.37-1.43,2.42,2.42,0,0,1,2.91,1.07l10.79,18a1.36,1.36,0,0,0,1.85.47l1.34-.8a1.37,1.37,0,0,0,.62-.83,1.33,1.33,0,0,0-.15-1L46.7,8.08a2.32,2.32,0,0,1-.21-1.94,2.36,2.36,0,0,1,1.37-1.43,2.42,2.42,0,0,1,2.91,1.07l10.79,18a1.34,1.34,0,0,0,1.85.46l1.34-.79a1.34,1.34,0,0,0,.47-1.84L54.38,3.52a2.33,2.33,0,0,1-.21-1.94A2.36,2.36,0,0,1,55.54.15a2.43,2.43,0,0,1,2.91,1.06L71.31,22.68A11.87,11.87,0,0,1,67.17,39L11.75,71.91A7.76,7.76,0,0,1,7.8,73ZM18,23.8a1.32,1.32,0,0,0-.44.08,1.34,1.34,0,0,0-.79.82,1.32,1.32,0,0,0,.12,1.11L28.35,45a2.77,2.77,0,0,1-1.3,4L5.72,58.15a7.6,7.6,0,0,0-4.41,9,6.76,6.76,0,0,0,9.93,3.89L66.66,38.14a10.87,10.87,0,0,0,3.8-14.94h0L57.59,1.73a1.41,1.41,0,0,0-1.68-.65,1.34,1.34,0,0,0-.79.82A1.32,1.32,0,0,0,55.24,3L66.08,21.1a2.33,2.33,0,0,1-.82,3.21l-1.34.79a2.35,2.35,0,0,1-3.22-.81l-10.79-18a1.42,1.42,0,0,0-1.68-.65,1.34,1.34,0,0,0-.79.82,1.28,1.28,0,0,0,.12,1.11L58.4,25.66a2.33,2.33,0,0,1-.82,3.21l-1.34.79A2.35,2.35,0,0,1,53,28.85l-10.79-18a1.42,1.42,0,0,0-1.68-.65,1.34,1.34,0,0,0-.79.82,1.32,1.32,0,0,0,.12,1.11L50.72,30.22a2.33,2.33,0,0,1-.82,3.21l-1.34.8a2.36,2.36,0,0,1-3.22-.82l-10.79-18a1.42,1.42,0,0,0-1.68-.65,1.34,1.34,0,0,0-.79.82,1.28,1.28,0,0,0,.12,1.11L43,34.78A2.33,2.33,0,0,1,42.22,38l-1.34.79A2.35,2.35,0,0,1,37.66,38L26.87,20a1.42,1.42,0,0,0-1.68-.65,1.34,1.34,0,0,0-.79.82,1.32,1.32,0,0,0,.12,1.11L35.36,39.34a2.33,2.33,0,0,1-.82,3.21l-1.34.8A2.36,2.36,0,0,1,30,42.53l-10.79-18A1.47,1.47,0,0,0,18,23.8Z"/><path class="cls-3" d="M6.33,62.41a3,3,0,1,1-1,4.12A3,3,0,0,1,6.33,62.41Z"/><path class="cls-2" d="M7.88,68.49a3.53,3.53,0,0,1-3-1.71A3.49,3.49,0,0,1,6.07,62h0a3.53,3.53,0,0,1,4.82,1.22,3.51,3.51,0,0,1-3,5.29Zm0-6a2.5,2.5,0,0,0-1.29.35h0a2.53,2.53,0,1,0,1.29-.35Zm-1.54-.08h0Z"/><path class="cls-4" d="M56.88,39.53a1,1,0,0,1-.51-1.86l8.45-5a1,1,0,1,1,1,1.72l-8.45,5A1,1,0,0,1,56.88,39.53Z"/><path class="cls-4" d="M22.59,59.89a1,1,0,0,1-.86-.49A1,1,0,0,1,22.08,58L50.8,41a1,1,0,0,1,1.37.34,1,1,0,0,1-.34,1.38l-28.73,17A1,1,0,0,1,22.59,59.89Z"/></g></g></svg>