<svg xmlns="http://www.w3.org/2000/svg" viewBox="0 0 73 73"><defs><style>.cls-1{fill:#f29e8c;}.cls-2{fill:#1b3249;}.cls-3{fill:#fff;}</style></defs><title>Asset 171</title><g id="Layer_2" data-name="Layer 2"><g id="_1" data-name="1"><path class="cls-1" d="M29.16,25,44.22,40.09a2,2,0,0,1,0,2.88l-.63.63-.63.63a2,2,0,0,1-2.88,0L25,29.16a2,2,0,0,0-2.85,0h0a2,2,0,0,0,0,2.93L37,46.89a2,2,0,0,1-.11,3l-1.36,1.17a2,2,0,0,1-2.74-.12L18,36.18a2,2,0,0,0-2.85,0h0a2,2,0,0,0,0,2.93l14.05,14a2,2,0,0,1-.25,3.1c-.5.36-1,.71-1.46,1A2,2,0,0,1,24.85,57L11,43.19a2,2,0,0,0-2.85,0h0a2,2,0,0,0,0,2.92L20.67,58.64a2.05,2.05,0,0,1-.45,3.23q-.87.5-1.65.9a2,2,0,0,1-2.38-.35L4,50.21a2,2,0,0,0-2.84,0h0a2,2,0,0,0,0,2.93L13.26,65.26l6,6a4.11,4.11,0,0,0,4.66.82c4.73-2.24,15.24-8.09,27.66-20.5S69.87,28.68,72.11,24a4.11,4.11,0,0,0-.82-4.66L53.1,1.1a2,2,0,0,0-2.93,0h0a2,2,0,0,0,0,2.85l12.2,12.19a2,2,0,0,1,.36,2.4c-.28.52-.58,1.07-.91,1.65a2,2,0,0,1-3.21.45L46.08,8.11a2,2,0,0,0-2.85,0h0a2,2,0,0,0,0,2.92L57,24.85a2,2,0,0,1,.22,2.62c-.33.48-.68,1-1,1.46a2,2,0,0,1-3.1.25l-14-14a2,2,0,0,0-2.85,0h0a2,2,0,0,0,0,2.93L50.92,32.76a2,2,0,0,1,.13,2.75c-.38.45-.77.91-1.17,1.36a2,2,0,0,1-3,.12L32.05,22.14a2,2,0,0,0-2.85,0h0A2,2,0,0,0,29.16,25Z"/><path class="cls-2" d="M22.21,73a4.6,4.6,0,0,1-3.27-1.36L.74,53.45A2.55,2.55,0,0,1,0,51.62a2.54,2.54,0,0,1,4.34-1.77L16.55,62.06a1.5,1.5,0,0,0,1.79.27c.51-.27,1.06-.57,1.64-.9a1.57,1.57,0,0,0,.77-1.14,1.52,1.52,0,0,0-.44-1.3L7.76,46.44a2.55,2.55,0,1,1,3.6-3.6L25.2,56.68a1.55,1.55,0,0,0,2,.18l1.46-1a1.55,1.55,0,0,0,.19-2.34l-14-14A2.52,2.52,0,0,1,14,37.59a2.48,2.48,0,0,1,.8-1.81,2.52,2.52,0,0,1,3.54,0L33.12,50.58a1.56,1.56,0,0,0,2.07.09l1.35-1.16a1.55,1.55,0,0,0,.09-2.27L21.79,32.4a2.5,2.5,0,0,1-.74-1.83,2.54,2.54,0,0,1,4.34-1.76l15,15.05a1.55,1.55,0,0,0,2.18,0l1.25-1.25a1.55,1.55,0,0,0,0-2.18l-15-15a2.54,2.54,0,1,1,3.59-3.6L47.25,36.64a1.54,1.54,0,0,0,2.25-.1q.6-.67,1.17-1.35a1.55,1.55,0,0,0-.1-2.07L35.82,18.37a2.51,2.51,0,0,1-.74-1.83,2.54,2.54,0,0,1,4.34-1.76l14,14.05a1.55,1.55,0,0,0,2.34-.19l1-1.46a1.55,1.55,0,0,0-.18-2L42.84,11.36a2.54,2.54,0,1,1,3.59-3.6L59,20.32a1.5,1.5,0,0,0,1.28.44A1.57,1.57,0,0,0,61.43,20c.33-.58.62-1.12.9-1.64a1.51,1.51,0,0,0-.28-1.8L49.86,4.34A2.54,2.54,0,0,1,51.62,0a2.55,2.55,0,0,1,1.83.75L71.64,18.94a4.61,4.61,0,0,1,.92,5.23C70.15,29.26,64.26,39.65,52,52s-22.7,18.19-27.8,20.6A4.62,4.62,0,0,1,22.21,73ZM2.54,50.11a1.55,1.55,0,0,0-1.06.42A1.57,1.57,0,0,0,1,51.63a1.49,1.49,0,0,0,.45,1.11l18.19,18.2a3.62,3.62,0,0,0,4.1.71c5-2.38,15.31-8.2,27.51-20.4s18-22.47,20.4-27.51a3.64,3.64,0,0,0-.71-4.1L52.74,1.45A1.64,1.64,0,0,0,51.63,1a1.57,1.57,0,0,0-1.1.48,1.54,1.54,0,0,0,0,2.15l12.2,12.2a2.51,2.51,0,0,1,.45,3c-.28.53-.58,1.08-.91,1.67a2.54,2.54,0,0,1-4,.55L45.72,8.46a1.52,1.52,0,0,0-2.14,0,1.55,1.55,0,0,0,0,2.21L57.39,24.49a2.52,2.52,0,0,1,.28,3.26c-.33.48-.68,1-1.05,1.48a2.57,2.57,0,0,1-1.86,1,2.53,2.53,0,0,1-2-.74l-14-14a1.53,1.53,0,0,0-2.15,0,1.49,1.49,0,0,0-.48,1.09,1.52,1.52,0,0,0,.45,1.12L51.27,32.41a2.55,2.55,0,0,1,.16,3.43L50.26,37.2a2.54,2.54,0,0,1-3.72.14L31.7,22.5a1.55,1.55,0,0,0-2.64,1.07,1.55,1.55,0,0,0,.46,1.11h0l15.05,15a2.57,2.57,0,0,1,0,3.59l-1.27,1.27a2.57,2.57,0,0,1-3.59,0l-15-15a1.53,1.53,0,0,0-2.15,0,1.49,1.49,0,0,0-.48,1.09,1.51,1.51,0,0,0,.45,1.12L37.34,46.54a2.53,2.53,0,0,1,.74,1.88,2.6,2.6,0,0,1-.88,1.84l-1.37,1.17a2.52,2.52,0,0,1-3.41-.15L17.66,36.53a1.54,1.54,0,0,0-2.15,0,1.55,1.55,0,0,0,0,2.21l14.05,14a2.54,2.54,0,0,1,.74,2,2.57,2.57,0,0,1-1,1.86c-.5.37-1,.72-1.48,1.05a2.52,2.52,0,0,1-3.26-.28L10.65,43.55a1.53,1.53,0,0,0-2.15,0,1.55,1.55,0,0,0,0,2.21L21,58.28a2.51,2.51,0,0,1,.72,2.14,2.54,2.54,0,0,1-1.27,1.88c-.59.33-1.14.64-1.66.91a2.5,2.5,0,0,1-3-.44L3.63,50.56A1.53,1.53,0,0,0,2.54,50.11Z"/><path class="cls-3" d="M21.51,68.36a1,1,0,0,1-.42-1.9c.11,0,10.92-5.19,25.55-19.82S66.41,21.2,66.46,21.09a1,1,0,0,1,1.33-.48,1,1,0,0,1,.48,1.32c-.21.46-5.31,11.22-20.21,26.13s-25.68,20-26.13,20.21A1,1,0,0,1,21.51,68.36Z"/></g></g></svg>