<svg xmlns="http://www.w3.org/2000/svg" viewBox="0 0 62.99 73"><defs><style>.cls-1{fill:#edc16b;}.cls-2{fill:#1b3249;}.cls-3{fill:#fff;}.cls-4{fill:#f29e8c;}</style></defs><title>Asset 201</title><g id="Layer_2" data-name="Layer 2"><g id="_1" data-name="1"><path class="cls-1" d="M38.72,22.5H12.28A11.93,11.93,0,0,0,.58,35.93C1.56,44.19,3.5,60.71,4.47,69a4,4,0,0,0,3.9,3.52H42.62A4,4,0,0,0,46.52,69c1-8.27,2.92-24.79,3.89-33.05A11.92,11.92,0,0,0,38.72,22.5Z"/><path class="cls-2" d="M42.62,73H8.37A4.45,4.45,0,0,1,4,69L.09,36a12.6,12.6,0,0,1,3.09-9.88A12.19,12.19,0,0,1,12.28,22H38.72a12.2,12.2,0,0,1,9.1,4.11A12.64,12.64,0,0,1,50.91,36L47,69A4.46,4.46,0,0,1,42.62,73ZM12.28,23a11.25,11.25,0,0,0-8.36,3.77,11.69,11.69,0,0,0-2.84,9.1L5,68.92A3.45,3.45,0,0,0,8.37,72H42.62A3.44,3.44,0,0,0,46,68.92l3.9-33.05a11.65,11.65,0,0,0-2.85-9.1A11.21,11.21,0,0,0,38.72,23Z"/><path class="cls-2" d="M42.62,73H8.37A4.45,4.45,0,0,1,4,69L.09,36a12.6,12.6,0,0,1,3.09-9.88A12.19,12.19,0,0,1,12.28,22H38.72a12.2,12.2,0,0,1,9.1,4.11A12.64,12.64,0,0,1,50.91,36L47,69A4.46,4.46,0,0,1,42.62,73ZM12.28,23a11.25,11.25,0,0,0-8.36,3.77,11.69,11.69,0,0,0-2.84,9.1L5,68.92A3.45,3.45,0,0,0,8.37,72H42.62A3.44,3.44,0,0,0,46,68.92l3.9-33.05a11.65,11.65,0,0,0-2.85-9.1A11.21,11.21,0,0,0,38.72,23Z"/><path class="cls-3" d="M8.47,59.58a.51.51,0,0,1-.5-.44L7.36,54a.5.5,0,1,1,1-.12L9,59a.49.49,0,0,1-.43.56Z"/><path class="cls-3" d="M7.39,50.47A.5.5,0,0,1,6.9,50L5.52,38.3a10.09,10.09,0,0,1,5.23-10.15.52.52,0,0,1,.68.21.5.5,0,0,1-.21.68,9.21,9.21,0,0,0-4.71,9.15L7.89,49.91a.5.5,0,0,1-.44.55Z"/><path class="cls-4" d="M30.11,31.81H20.89a7.48,7.48,0,0,0-7.34,8.43L16,61a2.48,2.48,0,0,0,2.45,2.21H32.56A2.48,2.48,0,0,0,35,61l2.44-20.74A7.47,7.47,0,0,0,30.11,31.81Z"/><path class="cls-2" d="M32.56,63.69H18.44A3,3,0,0,1,15.5,61L13.06,40.3A8.1,8.1,0,0,1,15,34a7.82,7.82,0,0,1,5.85-2.64h9.22A7.86,7.86,0,0,1,36,34a8.14,8.14,0,0,1,2,6.35L35.5,61A3,3,0,0,1,32.56,63.69ZM20.89,32.31a6.84,6.84,0,0,0-5.1,2.3,7.11,7.11,0,0,0-1.74,5.57l2.44,20.74a2,2,0,0,0,2,1.77H32.56a2,2,0,0,0,1.95-1.77L37,40.18a7.15,7.15,0,0,0-1.74-5.57,6.84,6.84,0,0,0-5.1-2.3Z"/><path class="cls-4" d="M19.22,16.5H31.78a4.72,4.72,0,0,1,4.72,4.72V22.5a0,0,0,0,1,0,0h-22a0,0,0,0,1,0,0V21.22A4.72,4.72,0,0,1,19.22,16.5Z"/><rect class="cls-4" x="22.5" y="6.5" width="6" height="10"/><path class="cls-2" d="M36.5,23h-22a.5.5,0,0,1-.5-.5V21.22A5.22,5.22,0,0,1,19.22,16H31.78A5.22,5.22,0,0,1,37,21.22V22.5A.5.5,0,0,1,36.5,23ZM15,22H36v-.78A4.23,4.23,0,0,0,31.78,17H19.22A4.22,4.22,0,0,0,15,21.22Z"/><path class="cls-2" d="M28.5,17h-6a.5.5,0,0,1-.5-.5V6.5a.5.5,0,0,1,.5-.5h6a.5.5,0,0,1,.5.5v10A.5.5,0,0,1,28.5,17ZM23,16h5V7H23Z"/><path class="cls-1" d="M49.5.5h-31a3,3,0,0,0-3,3h0a3,3,0,0,0,3,3h29l5,3v-6A3,3,0,0,0,49.5.5Z"/><path class="cls-2" d="M52.5,10a.48.48,0,0,1-.26-.07L47.36,7H18.5a3.5,3.5,0,0,1,0-7h31A3.5,3.5,0,0,1,53,3.5v6a.51.51,0,0,1-.26.44A.5.5,0,0,1,52.5,10Zm-34-9a2.5,2.5,0,0,0,0,5h29a.43.43,0,0,1,.25.07L52,8.62V3.5A2.5,2.5,0,0,0,49.5,1Z"/><path class="cls-2" d="M52.5,10a.48.48,0,0,1-.26-.07L47.36,7H18.5a3.5,3.5,0,0,1,0-7h31A3.5,3.5,0,0,1,53,3.5v6a.51.51,0,0,1-.26.44A.5.5,0,0,1,52.5,10Zm-34-9a2.5,2.5,0,0,0,0,5h29a.43.43,0,0,1,.25.07L52,8.62V3.5A2.5,2.5,0,0,0,49.5,1Z"/><path class="cls-3" d="M59.57,22.5,52.5,15.43,45.43,22.5a10,10,0,0,0,0,14.14h0a10,10,0,0,0,14.14,0h0A10,10,0,0,0,59.57,22.5Z"/><path class="cls-2" d="M52.5,40.07a10.5,10.5,0,0,1-7.43-17.92l7.07-7.07a.5.5,0,0,1,.71,0l7.07,7.07A10.5,10.5,0,0,1,52.5,40.07Zm0-23.93-6.72,6.71a9.5,9.5,0,1,0,13.44,0Z"/><path class="cls-2" d="M52.5,36.07a6.5,6.5,0,0,1-6.5-6.5.5.5,0,0,1,.5-.5.5.5,0,0,1,.5.5,5.51,5.51,0,0,0,5.5,5.5.5.5,0,0,1,0,1Z"/></g></g></svg>