<svg xmlns="http://www.w3.org/2000/svg" viewBox="0 0 73 73"><defs><style>.cls-1{fill:#edc16b;}.cls-2{fill:#1b3249;}.cls-3{fill:#fff;}.cls-4{fill:#f29e8c;}</style></defs><title>Asset 231</title><g id="Layer_2" data-name="Layer 2"><g id="_1" data-name="1"><rect class="cls-1" x="5.5" y="14.5" width="62" height="58"/><path class="cls-2" d="M67.5,73H5.5a.5.5,0,0,1-.5-.5v-58a.5.5,0,0,1,.5-.5h62a.5.5,0,0,1,.5.5v58A.5.5,0,0,1,67.5,73ZM6,72H67V15H6Z"/><rect class="cls-3" x="11.5" y="42.5" width="16" height="30"/><rect class="cls-3" x="27.5" y="42.5" width="34" height="22"/><path class="cls-2" d="M24.5,65a.5.5,0,0,1-.5-.5v-4a.5.5,0,0,1,1,0v4A.5.5,0,0,1,24.5,65Z"/><path class="cls-4" d="M44.33,30.5H58.41a0,0,0,0,1,0,0v1a5,5,0,0,1-5,5H49.33a5,5,0,0,1-5-5v-1A0,0,0,0,1,44.33,30.5Z"/><path class="cls-4" d="M14.59,30.5H28.67a0,0,0,0,1,0,0v1a5,5,0,0,1-5,5H19.59a5,5,0,0,1-5-5v-1A0,0,0,0,1,14.59,30.5Z"/><path class="cls-4" d="M58.41,30.5H72.5a0,0,0,0,1,0,0v1a5,5,0,0,1-5,5H63.41a5,5,0,0,1-5-5v-1A0,0,0,0,1,58.41,30.5Z"/><path class="cls-4" d="M28.67,30.5H44.33a0,0,0,0,1,0,0v1a5,5,0,0,1-5,5H33.67a5,5,0,0,1-5-5v-1A0,0,0,0,1,28.67,30.5Z"/><path class="cls-4" d="M.5,30.5H14.59a0,0,0,0,1,0,0v1a5,5,0,0,1-5,5H5.5a5,5,0,0,1-5-5v-1A0,0,0,0,1,.5,30.5Z"/><path class="cls-2" d="M53.41,37H49.33a5.5,5.5,0,0,1-5.5-5.5v-1a.5.5,0,0,1,.5-.5H58.41a.5.5,0,0,1,.5.5v1A5.5,5.5,0,0,1,53.41,37Zm-8.58-6v.5a4.5,4.5,0,0,0,4.5,4.5h4.08a4.51,4.51,0,0,0,4.5-4.5V31Z"/><path class="cls-2" d="M23.67,37H19.59a5.5,5.5,0,0,1-5.5-5.5v-1a.5.5,0,0,1,.5-.5H28.67a.5.5,0,0,1,.5.5v1A5.5,5.5,0,0,1,23.67,37Zm-8.58-6v.5a4.51,4.51,0,0,0,4.5,4.5h4.08a4.5,4.5,0,0,0,4.5-4.5V31Z"/><path class="cls-2" d="M67.5,37H63.41a5.51,5.51,0,0,1-5.5-5.5v-1a.5.5,0,0,1,.5-.5H72.5a.5.5,0,0,1,.5.5v1A5.51,5.51,0,0,1,67.5,37Zm-8.59-6v.5a4.51,4.51,0,0,0,4.5,4.5H67.5A4.51,4.51,0,0,0,72,31.5V31Z"/><path class="cls-2" d="M39.33,37H33.67a5.51,5.51,0,0,1-5.5-5.5v-1a.5.5,0,0,1,.5-.5H44.33a.5.5,0,0,1,.5.5v1A5.51,5.51,0,0,1,39.33,37ZM29.17,31v.5a4.51,4.51,0,0,0,4.5,4.5h5.66a4.51,4.51,0,0,0,4.5-4.5V31Z"/><path class="cls-2" d="M9.59,37H5.5A5.51,5.51,0,0,1,0,31.5v-1A.5.5,0,0,1,.5,30H14.59a.5.5,0,0,1,.5.5v1A5.51,5.51,0,0,1,9.59,37ZM1,31v.5A4.51,4.51,0,0,0,5.5,36H9.59a4.51,4.51,0,0,0,4.5-4.5V31Z"/><polygon class="cls-3" points="22.41 20.5 14.59 30.5 28.67 30.5 31.8 20.5 22.41 20.5"/><polygon class="cls-3" points="41.2 20.5 44.33 30.5 58.41 30.5 50.59 20.5 41.2 20.5"/><polygon class="cls-3" points="12.5 20.5 0.5 30.5 14.59 30.5 22.41 20.5 12.5 20.5"/><polygon class="cls-3" points="31.8 20.5 28.67 30.5 44.33 30.5 41.2 20.5 31.8 20.5"/><polygon class="cls-3" points="60.5 20.5 50.59 20.5 58.41 30.5 72.5 30.5 60.5 20.5"/><path class="cls-2" d="M28.67,31H14.59a.5.5,0,0,1-.45-.28.51.51,0,0,1,0-.53l7.83-10a.49.49,0,0,1,.39-.19H31.8a.54.54,0,0,1,.41.2.52.52,0,0,1,.07.45l-3.13,10A.5.5,0,0,1,28.67,31ZM15.61,30h12.7l2.81-9H22.66Z"/><path class="cls-2" d="M58.41,31H44.33a.5.5,0,0,1-.48-.35l-3.13-10a.52.52,0,0,1,.07-.45.54.54,0,0,1,.41-.2h9.39a.49.49,0,0,1,.39.19l7.83,10a.51.51,0,0,1,0,.53A.5.5,0,0,1,58.41,31ZM44.69,30h12.7l-7-9H41.88Z"/><path class="cls-2" d="M14.59,31H.5a.5.5,0,0,1-.32-.88l12-10A.47.47,0,0,1,12.5,20h9.91a.5.5,0,0,1,.45.28.51.51,0,0,1-.05.53L15,30.81A.49.49,0,0,1,14.59,31ZM1.88,30H14.34l7.05-9H12.68Z"/><path class="cls-2" d="M44.33,31H28.67a.52.52,0,0,1-.4-.2.52.52,0,0,1-.07-.45l3.13-10A.49.49,0,0,1,31.8,20h9.4a.49.49,0,0,1,.47.35l3.13,10a.52.52,0,0,1-.07.45A.52.52,0,0,1,44.33,31Zm-15-1h14.3l-2.82-9H32.17Z"/><path class="cls-2" d="M72.5,31H58.41a.49.49,0,0,1-.39-.19l-7.83-10a.51.51,0,0,1,0-.53.5.5,0,0,1,.45-.28H60.5a.47.47,0,0,1,.32.12l12,10a.5.5,0,0,1-.32.88ZM58.66,30H71.12l-10.8-9H51.61Z"/><path class="cls-2" d="M72.5,73H.5a.5.5,0,0,1,0-1h72a.5.5,0,0,1,0,1Z"/><path class="cls-2" d="M69.5,15H3.5a.5.5,0,0,1,0-1h66a.5.5,0,0,1,0,1Z"/><path class="cls-2" d="M27.5,73h-16a.5.5,0,0,1-.5-.5v-30a.5.5,0,0,1,.5-.5h16a.5.5,0,0,1,.5.5v30A.5.5,0,0,1,27.5,73ZM12,72H27V43H12Z"/><path class="cls-2" d="M61.5,65h-34a.5.5,0,0,1-.5-.5v-22a.5.5,0,0,1,.5-.5h34a.5.5,0,0,1,.5.5v22A.5.5,0,0,1,61.5,65ZM28,64H61V43H28Z"/><path class="cls-2" d="M37.27,61.38a.46.46,0,0,1-.35-.14.5.5,0,0,1,0-.71L50.76,46.69a.5.5,0,0,1,.71,0,.5.5,0,0,1,0,.7L37.62,61.24A.46.46,0,0,1,37.27,61.38Z"/><path class="cls-2" d="M46.35,60a.51.51,0,0,1-.36-.15.5.5,0,0,1,0-.7l8.31-8.31a.5.5,0,0,1,.71,0,.51.51,0,0,1,0,.71l-8.31,8.3A.5.5,0,0,1,46.35,60Z"/><path class="cls-2" d="M33.73,57.23a.5.5,0,0,1-.35-.85l8.3-8.31a.5.5,0,0,1,.71.71l-8.31,8.3A.47.47,0,0,1,33.73,57.23Z"/><path class="cls-4" d="M13.5.5h46a1,1,0,0,1,1,1v19a0,0,0,0,1,0,0h-48a0,0,0,0,1,0,0V1.5A1,1,0,0,1,13.5.5Z"/><path class="cls-2" d="M60.5,21h-48a.5.5,0,0,1-.5-.5V1.5A1.5,1.5,0,0,1,13.5,0h46A1.5,1.5,0,0,1,61,1.5v19A.5.5,0,0,1,60.5,21ZM13,20H60V1.5a.5.5,0,0,0-.5-.5h-46a.5.5,0,0,0-.5.5Z"/><path class="cls-1" d="M40.71,5c-2.22,0-3.55.8-4.21,2-.66-1.17-2-2-4.21-2-6.55,0-11.48,5.19-7.16,11,1.91-5.5,5-3,7.16-3s3.55-.8,4.21-2c.66,1.18,2,2,4.21,2S46,10.5,47.87,16C52.19,10.19,47.26,5,40.71,5Z"/><path class="cls-2" d="M47.87,16.5H47.8a.47.47,0,0,1-.4-.33c-1.33-3.82-3.09-3.4-5-3a7.75,7.75,0,0,1-1.73.27,5.21,5.21,0,0,1-4.21-1.6,5.21,5.21,0,0,1-4.21,1.6,7.67,7.67,0,0,1-1.72-.27c-1.88-.44-3.64-.86-5,3a.47.47,0,0,1-.4.33.48.48,0,0,1-.47-.19c-1.84-2.47-2.23-5.06-1.1-7.31C25,6.26,28.4,4.5,32.29,4.5A5.21,5.21,0,0,1,36.5,6.1a5.21,5.21,0,0,1,4.21-1.6C44.6,4.5,48,6.26,49.37,9c1.13,2.25.74,4.84-1.1,7.31A.48.48,0,0,1,47.87,16.5Zm-3.68-4.58c1.33,0,2.73.59,3.8,3a5.54,5.54,0,0,0,.48-5.49c-1.2-2.39-4.25-3.94-7.76-3.94-1.84,0-3.15.59-3.77,1.72a.53.53,0,0,1-.88,0c-.62-1.13-1.93-1.72-3.77-1.72-3.51,0-6.56,1.55-7.76,3.94A5.54,5.54,0,0,0,25,14.93c1.63-3.68,4-3.12,5.78-2.7a7.6,7.6,0,0,0,1.5.24c1.84,0,3.15-.59,3.77-1.71a.52.52,0,0,1,.88,0c.62,1.12,1.93,1.71,3.77,1.71a7.6,7.6,0,0,0,1.5-.24A8.2,8.2,0,0,1,44.19,11.92Z"/></g></g></svg>