<svg xmlns="http://www.w3.org/2000/svg" viewBox="0 0 73 73"><defs><style>.cls-1{fill:#edc16b;}.cls-2{fill:#1b3249;}.cls-3{fill:#f29e8c;}.cls-4{fill:#fff;}</style></defs><title>Asset 61</title><g id="Layer_2" data-name="Layer 2"><g id="_1" data-name="1"><path class="cls-1" d="M27.34,72.5H18.5a3,3,0,0,1-3-3v-44a3,3,0,0,1,3-3h6a3,3,0,0,1,3,3v42l1.4,1.75A2,2,0,0,1,27.34,72.5Z"/><path class="cls-2" d="M27.34,73H18.5A3.5,3.5,0,0,1,15,69.5v-44A3.5,3.5,0,0,1,18.5,22h6A3.5,3.5,0,0,1,28,25.5V67.32l1.29,1.62A2.5,2.5,0,0,1,27.34,73ZM18.5,23A2.5,2.5,0,0,0,16,25.5v44A2.5,2.5,0,0,0,18.5,72h8.84a1.5,1.5,0,0,0,1.17-2.44l-1.4-1.75A.51.51,0,0,1,27,67.5v-42A2.5,2.5,0,0,0,24.5,23Z"/><path class="cls-3" d="M27.5,51.5h4a2,2,0,0,1,2,2v6a2,2,0,0,1-2,2h-4a0,0,0,0,1,0,0v-10A0,0,0,0,1,27.5,51.5Z"/><path class="cls-2" d="M31.5,62h-4a.5.5,0,0,1-.5-.5v-10a.5.5,0,0,1,.5-.5h4A2.5,2.5,0,0,1,34,53.5v6A2.5,2.5,0,0,1,31.5,62ZM28,61h3.5A1.5,1.5,0,0,0,33,59.5v-6A1.5,1.5,0,0,0,31.5,52H28Z"/><path class="cls-1" d="M22.5,4.5v37c19.36,0,44-8,44-8v-22S41.86,4.5,22.5,4.5Z"/><path class="cls-2" d="M22.5,42a.5.5,0,0,1-.5-.5V4.5a.5.5,0,0,1,.5-.5c19.21,0,43.89,7,44.14,7a.5.5,0,0,1,.36.48v22a.5.5,0,0,1-.35.48C66.41,34.06,41.72,42,22.5,42ZM23,5V41c17.74-.13,40-6.92,43-7.87V11.88C62.9,11,40.72,5.11,23,5Z"/><polygon class="cls-3" points="72.5 32.5 66.5 31.5 66.5 13.5 72.5 12.5 72.5 32.5"/><path class="cls-2" d="M72.5,33h-.08l-6-1A.5.5,0,0,1,66,31.5v-18a.5.5,0,0,1,.42-.49l6-1a.46.46,0,0,1,.4.11.46.46,0,0,1,.18.38v20a.46.46,0,0,1-.18.38A.47.47,0,0,1,72.5,33ZM67,31.08l5,.83V13.09l-5,.83Z"/><circle class="cls-3" cx="22.5" cy="22.5" r="22"/><path class="cls-2" d="M22.5,45A22.5,22.5,0,1,1,45,22.5,22.52,22.52,0,0,1,22.5,45Zm0-44A21.5,21.5,0,1,0,44,22.5,21.52,21.52,0,0,0,22.5,1Z"/><circle class="cls-4" cx="22.5" cy="22.5" r="14"/><path class="cls-2" d="M22.5,37A14.5,14.5,0,1,1,37,22.5,14.51,14.51,0,0,1,22.5,37Zm0-28A13.5,13.5,0,1,0,36,22.5,13.52,13.52,0,0,0,22.5,9Z"/><path class="cls-4" d="M12.71,7.89a.51.51,0,0,1-.42-.23A.5.5,0,0,1,12.44,7,18.44,18.44,0,0,1,22.5,4a.5.5,0,0,1,0,1A17.46,17.46,0,0,0,13,7.81.43.43,0,0,1,12.71,7.89Z"/><path class="cls-4" d="M10.37,36.3a.46.46,0,0,1-.33-.13A18.49,18.49,0,0,1,8.43,10.49a.49.49,0,0,1,.7-.06.51.51,0,0,1,.06.71,17.49,17.49,0,0,0,1.52,24.29.5.5,0,0,1,0,.71A.47.47,0,0,1,10.37,36.3Z"/><path class="cls-2" d="M36.5,23H8.5a.5.5,0,0,1,0-1h28a.5.5,0,0,1,0,1Z"/><path class="cls-2" d="M34.63,30H10.37a.5.5,0,1,1,0-1H34.63a.5.5,0,0,1,0,1Z"/><path class="cls-2" d="M34.62,16H10.38a.5.5,0,0,1,0-1H34.62a.5.5,0,0,1,0,1Z"/></g></g></svg>