<svg xmlns="http://www.w3.org/2000/svg" viewBox="0 0 73 73"><defs><style>.cls-1{fill:#f29e8c;}.cls-2{fill:#1b3249;}.cls-3{fill:#edc16b;}.cls-4{fill:#fff;}</style></defs><title>Asset 211</title><g id="Layer_2" data-name="Layer 2"><g id="_1" data-name="1"><circle class="cls-1" cx="36.5" cy="36.5" r="36"/><path class="cls-2" d="M36.5,73A36.5,36.5,0,1,1,73,36.5,36.54,36.54,0,0,1,36.5,73Zm0-72A35.5,35.5,0,1,0,72,36.5,35.54,35.54,0,0,0,36.5,1Z"/><path class="cls-3" d="M17.32,14c4.52,9.36-4.19,8.26,2.36,17.6H53.37C60.45,20.84,45.65,2.65,17.32,14Z"/><path class="cls-2" d="M53.37,32.13a.53.53,0,0,1-.27-.08.51.51,0,0,1-.15-.7c2.65-4,2.15-9.16-1.3-13.37C46.8,12.06,35.11,7.6,18,14.3c1.94,4.29,1.09,6.46.34,8.38-.83,2.12-1.55,3.95,1.75,8.66A.5.5,0,0,1,20,32a.51.51,0,0,1-.7-.12c-3.61-5.15-2.76-7.32-1.86-9.61.74-1.89,1.5-3.84-.54-8.06a.47.47,0,0,1,0-.4.5.5,0,0,1,.27-.28C35,6.39,47.07,10.81,52.42,17.34c3.68,4.5,4.22,10.22,1.37,14.56A.51.51,0,0,1,53.37,32.13Z"/><path class="cls-3" d="M61.39,62.49c-2.93-.57-6.34-1.06-8.36-1.6l-6.15-1.66H26.1L20,60.89c-2,.54-5.43,1-8.36,1.6a36,36,0,0,0,49.79,0Z"/><path class="cls-2" d="M36.5,73A36.29,36.29,0,0,1,11.26,62.85a.47.47,0,0,1-.13-.5.5.5,0,0,1,.38-.35c1.09-.21,2.24-.42,3.36-.61,1.91-.34,3.71-.65,5-1L26,58.75l.13,0H46.88l.13,0,6.14,1.66c1.26.33,3.06.65,5,1,1.13.2,2.28.4,3.37.61a.5.5,0,0,1,.38.35.47.47,0,0,1-.13.5A36.29,36.29,0,0,1,36.5,73ZM12.67,62.8a35.46,35.46,0,0,0,47.66,0L58,62.37c-1.93-.33-3.76-.65-5.05-1l-6.08-1.64H26.17l-6.08,1.64c-1.29.35-3.12.67-5,1Z"/><path class="cls-4" d="M44.25,41.15l2.63,18.08a17.45,17.45,0,0,1-20.78,0l2.63-18.08Z"/><path class="cls-2" d="M36.5,63.16a17.52,17.52,0,0,1-10.72-3.55.48.48,0,0,1-.17-.45l2.62-18.08a.51.51,0,0,1,.5-.43H44.25a.51.51,0,0,1,.5.42l2.63,18.09a.51.51,0,0,1-.17.45A17.51,17.51,0,0,1,36.5,63.16ZM26.64,59a17,17,0,0,0,19.71,0L43.82,41.65H29.16Z"/><path class="cls-4" d="M53.37,31.63a3.16,3.16,0,0,0-2.45.41s-1.21-6.43-7.42-6.43c-2.35,0-4.59,2-7,2s-5-2-8-2C22.66,25.54,22.05,32,22.05,32a3.15,3.15,0,0,0-2.45-.41c-1.43.39-2.48,2.39-2.25,5s1.62,4.62,3.1,4.47A1.68,1.68,0,0,0,21,41c0,5.2,3,15.54,15.51,15.54S52,46.23,52,41a1.56,1.56,0,0,0,.52.15c1.48.15,2.86-1.85,3.1-4.47S54.8,32,53.37,31.63Z"/><path class="cls-2" d="M36.49,57c-12.19,0-15.75-9.72-16-15.39A2.41,2.41,0,0,1,18.76,41a6.42,6.42,0,0,1-1.9-4.34c-.25-2.73.85-5.05,2.61-5.53a3.28,3.28,0,0,1,2.2.15c.37-1.76,1.79-6.21,6.76-6.21h.07a13,13,0,0,1,4.58,1.13,10.3,10.3,0,0,0,3.42.9h0a8.67,8.67,0,0,0,3.34-1,9.46,9.46,0,0,1,3.66-1c5.35,0,7.23,4.52,7.75,6.21a3.26,3.26,0,0,1,2.25-.17h0c1.76.48,2.86,2.8,2.62,5.53A6.43,6.43,0,0,1,54.21,41a2.35,2.35,0,0,1-1.73.59C52.24,47.62,48.68,57,36.49,57ZM21,40.46a.48.48,0,0,1,.26.07.52.52,0,0,1,.24.43c0,5.59,3.16,15,15,15s15-9.45,15-15a.51.51,0,0,1,.23-.43.48.48,0,0,1,.48,0,1.2,1.2,0,0,0,.37.1,1.32,1.32,0,0,0,1-.36,5.52,5.52,0,0,0,1.55-3.66c.22-2.51-.8-4.18-1.88-4.48a2.42,2.42,0,0,0-1.91.29l-.26.12a.53.53,0,0,1-.41-.05.54.54,0,0,1-.23-.34c0-.24-1.22-6-6.93-6a8.62,8.62,0,0,0-3.26,1,9.66,9.66,0,0,1-3.74,1.05h0a10.83,10.83,0,0,1-3.78-1,12.37,12.37,0,0,0-4.22-1.06h-.07c-5.24,0-5.86,5.75-5.88,6a.49.49,0,0,1-.22.37.52.52,0,0,1-.42.06l-.26-.12a2.45,2.45,0,0,0-1.92-.29c-1.08.3-2.1,2-1.88,4.48a5.56,5.56,0,0,0,1.55,3.66,1.35,1.35,0,0,0,1,.36,1.21,1.21,0,0,0,.36-.1A.42.42,0,0,1,21,40.46Z"/><path class="cls-2" d="M36.5,73A36.5,36.5,0,1,1,73,36.5,36.54,36.54,0,0,1,36.5,73Zm0-72A35.5,35.5,0,1,0,72,36.5,35.54,35.54,0,0,0,36.5,1Z"/><path class="cls-4" d="M61.11,57.46a.56.56,0,0,1-.32-.11.51.51,0,0,1-.06-.71,31.63,31.63,0,0,0,3.88-5.92A31.26,31.26,0,0,0,66.3,26.28a.5.5,0,1,1,.94-.33A32.58,32.58,0,0,1,61.5,57.28.5.5,0,0,1,61.11,57.46Z"/><path class="cls-4" d="M64.8,22.05a.51.51,0,0,1-.45-.27,31.43,31.43,0,0,0-5.27-7.26.5.5,0,0,1,0-.71.5.5,0,0,1,.7,0,32.21,32.21,0,0,1,5.45,7.5A.5.5,0,0,1,65,22,.46.46,0,0,1,64.8,22.05Z"/><path class="cls-4" d="M51.69,23.4a.48.48,0,0,1-.41-.22C48.14,18.55,43.37,16,37.1,15.51a.5.5,0,0,1,.07-1c6.6.48,11.62,3.21,14.94,8.11a.51.51,0,0,1-.14.7A.46.46,0,0,1,51.69,23.4Z"/><path class="cls-4" d="M22.74,17.66a.48.48,0,0,1-.46-.32.49.49,0,0,1,.28-.64,37.91,37.91,0,0,1,10.8-2.22.5.5,0,0,1,0,1,37.71,37.71,0,0,0-10.49,2.15A.52.52,0,0,1,22.74,17.66Z"/><path class="cls-4" d="M49.23,25.21a.49.49,0,0,1-.37-.16c-5.29-5.59-12.58-5.45-17.77-4.35a.5.5,0,0,1-.21-1c5.44-1.15,13.1-1.29,18.71,4.65a.49.49,0,0,1,0,.7A.51.51,0,0,1,49.23,25.21Z"/><path class="cls-4" d="M22.39,23.76A.51.51,0,0,1,22,23.5a.5.5,0,0,1,.2-.68,32.36,32.36,0,0,1,5.14-2.13.5.5,0,1,1,.31.95,33,33,0,0,0-5,2.06A.53.53,0,0,1,22.39,23.76Z"/></g></g></svg>