<svg xmlns="http://www.w3.org/2000/svg" viewBox="0 0 73 73"><defs><style>.cls-1{fill:#edc16b;}.cls-2{fill:#f29e8c;}.cls-3{fill:#1b3249;}.cls-4{fill:#fff;}</style></defs><title>Asset 271</title><g id="Layer_2" data-name="Layer 2"><g id="_1" data-name="1"><circle class="cls-1" cx="36.5" cy="36.5" r="36"/><path class="cls-2" d="M28.88,13.47C16.77,8,15.65,27.2,19.68,31.63H53.37C55.91,27.07,54.83,4.32,28.88,13.47Z"/><path class="cls-3" d="M53.37,32.13a.53.53,0,0,1-.24-.06.51.51,0,0,1-.2-.68c1.4-2.5,1.46-10.36-2.61-15.18S38.8,10.5,29,13.94a.48.48,0,0,1-.37,0c-3.62-1.63-6.43-1.12-8.35,1.52-3.09,4.25-2.8,13.08-.27,15.85a.5.5,0,1,1-.74.68c-2.81-3.09-3.18-12.47.2-17.12,1.52-2.09,4.38-4.1,9.39-1.92,12.74-4.44,19.1-1,22.18,2.63,4.41,5.23,4.27,13.53,2.73,16.31A.49.49,0,0,1,53.37,32.13Z"/><path class="cls-2" d="M61.39,62.49c-2.93-.57-6.34-1.06-8.37-1.6l-6.14-1.66H26.1L20,60.89c-2,.54-5.43,1-8.36,1.6a36,36,0,0,0,49.79,0Z"/><path class="cls-3" d="M36.5,73A36.29,36.29,0,0,1,11.26,62.85a.47.47,0,0,1-.13-.5.5.5,0,0,1,.38-.35c1.09-.21,2.24-.42,3.36-.61,1.91-.34,3.71-.65,5-1L26,58.75l.13,0H46.88l.13,0,6.14,1.66c1.25.33,3.05.64,5,1,1.13.19,2.29.4,3.38.61a.5.5,0,0,1,.38.35.47.47,0,0,1-.13.5A36.29,36.29,0,0,1,36.5,73ZM12.67,62.8a35.46,35.46,0,0,0,47.66,0l-2.39-.43c-1.93-.33-3.75-.65-5-1l-6.09-1.64H26.17l-6.08,1.64c-1.29.35-3.12.67-5,1Z"/><path class="cls-4" d="M44.25,41.15l2.63,18.08a17.45,17.45,0,0,1-20.78,0l2.63-18.08Z"/><path class="cls-3" d="M36.5,63.16a17.52,17.52,0,0,1-10.72-3.55.48.48,0,0,1-.17-.45l2.62-18.08a.51.51,0,0,1,.5-.43H44.25a.51.51,0,0,1,.5.42l2.63,18.09a.51.51,0,0,1-.17.45A17.51,17.51,0,0,1,36.5,63.16ZM26.64,59a17,17,0,0,0,19.7,0L43.82,41.65H29.16Z"/><path class="cls-4" d="M53.37,31.63a3.16,3.16,0,0,0-2.45.41c-5-4.17-3.42-8.5-3.42-8.5-8.57,6.37-13.49,1.1-19.45,1.05s-6,7.45-6,7.45a3.15,3.15,0,0,0-2.45-.41c-1.43.39-2.48,2.39-2.25,5s1.62,4.62,3.1,4.47A1.68,1.68,0,0,0,21,41C22.26,46,24,56.5,36.49,56.5S50.71,46,52,41a1.56,1.56,0,0,0,.52.15c1.48.15,2.86-1.85,3.1-4.47S54.8,32,53.37,31.63Z"/><path class="cls-3" d="M36.49,57C24.36,57,22,47.3,20.74,42.09l-.12-.5-.12,0A2.37,2.37,0,0,1,18.76,41a6.42,6.42,0,0,1-1.9-4.34c-.25-2.73.85-5.05,2.61-5.53a3.31,3.31,0,0,1,2.15.12c.23-2,1.33-7.18,6.37-7.18h.06a19.88,19.88,0,0,1,5.4,1c3.92,1.13,8,2.3,13.75-2a.51.51,0,0,1,.6,0,.48.48,0,0,1,.17.57c0,.16-1.31,3.93,3,7.73a3.34,3.34,0,0,1,2.51-.29h0c1.76.48,2.86,2.8,2.62,5.53A6.43,6.43,0,0,1,54.21,41a2.42,2.42,0,0,1-1.74.59l-.12,0-.12.5C51,47.3,48.61,57,36.49,57ZM21,40.46a.52.52,0,0,1,.21,0,.55.55,0,0,1,.27.33c.08.32.17.66.25,1C23,47.14,25.15,56,36.49,56S50,47.14,51.26,41.85l.25-1a.55.55,0,0,1,.27-.33.5.5,0,0,1,.43,0,1.2,1.2,0,0,0,.37.1,1.32,1.32,0,0,0,1-.36,5.52,5.52,0,0,0,1.55-3.66c.23-2.51-.8-4.18-1.88-4.48h0a2.42,2.42,0,0,0-1.91.29l-.26.12a.5.5,0,0,1-.47-.1c-3.59-3-4-6.08-3.81-7.77-5.66,3.74-9.87,2.52-13.62,1.44a19,19,0,0,0-5.13-1H28c-5.22,0-5.43,6.68-5.44,7a.51.51,0,0,1-.64.47l-.26-.12a2.45,2.45,0,0,0-1.92-.29c-1.08.3-2.1,2-1.88,4.48a5.56,5.56,0,0,0,1.55,3.66,1.39,1.39,0,0,0,1,.36,1.21,1.21,0,0,0,.36-.1A.42.42,0,0,1,21,40.46Z"/><path class="cls-3" d="M36.5,73A36.5,36.5,0,1,1,73,36.5,36.54,36.54,0,0,1,36.5,73Zm0-72A35.5,35.5,0,1,0,72,36.5,35.55,35.55,0,0,0,36.5,1Z"/><path class="cls-4" d="M64,53.3a.47.47,0,0,1-.25-.07.51.51,0,0,1-.18-.69,31.49,31.49,0,0,0-5.14-38.61.5.5,0,1,1,.7-.72,32.5,32.5,0,0,1,5.3,39.84A.5.5,0,0,1,64,53.3Z"/><path class="cls-4" d="M55,10.89a.46.46,0,0,1-.29-.1,31.44,31.44,0,0,0-8-4.09.51.51,0,0,1-.31-.64A.5.5,0,0,1,47,5.75,32.2,32.2,0,0,1,55.29,10a.51.51,0,0,1,.12.7A.52.52,0,0,1,55,10.89Z"/><path class="cls-2" d="M21,40C21,51.21,24.5,57.14,36.5,57.14S52,51.25,52,40c0,0-3.44,8.48-7,8.48s-3.09,2.77-8.49,2.77-5-2.77-8.49-2.77C23.74,48.44,21,40,21,40Z"/><path class="cls-3" d="M36.5,57.64c-11.38,0-16-5.12-16-17.68a.51.51,0,0,1,.42-.5.5.5,0,0,1,.55.34c0,.08,2.7,8.14,6.56,8.14a5.41,5.41,0,0,1,3.49,1.25,7.31,7.31,0,0,0,5,1.52,7.22,7.22,0,0,0,5-1.51A5.43,5.43,0,0,1,45,47.94c2.65,0,5.62-5.9,6.54-8.17a.5.5,0,0,1,1,.19C52.5,52.52,47.86,57.64,36.5,57.64ZM21.56,42.73c.64,10,5,13.91,14.94,13.91s14.37-4,14.93-14.26C50.1,45,47.67,48.94,45,48.94A4.43,4.43,0,0,0,42,50a8.19,8.19,0,0,1-5.54,1.69A8.22,8.22,0,0,1,30.93,50,4.4,4.4,0,0,0,28,48.94C25,48.94,22.79,45.34,21.56,42.73Z"/><path class="cls-2" d="M36.5,43.38c0-1.46-.76-2.65-3-2.65-4.18,0-7.8,4.09-6.89,9.32,2.29-3.36,4.67-4,6.89-4S36.5,44.85,36.5,43.38Z"/><path class="cls-3" d="M26.64,50.55h-.1a.49.49,0,0,1-.39-.4A8.81,8.81,0,0,1,28,42.9a7.3,7.3,0,0,1,5.57-2.67c2.2,0,3.47,1.15,3.47,3.15s-1.27,3.16-3.47,3.16c-1.93,0-4.2.45-6.48,3.79A.49.49,0,0,1,26.64,50.55Zm6.89-9.32a6.26,6.26,0,0,0-4.8,2.32A7.62,7.62,0,0,0,27,48.73a7.83,7.83,0,0,1,6.52-3.19c1.66,0,2.47-.71,2.47-2.16S35.19,41.23,33.53,41.23Z"/><path class="cls-2" d="M36.5,43.38c0-1.46.76-2.65,3-2.65,4.18,0,7.8,4.09,6.89,9.32-2.29-3.36-4.67-4-6.89-4S36.5,44.85,36.5,43.38Z"/><path class="cls-3" d="M46.36,50.55a.49.49,0,0,1-.41-.22c-2.28-3.34-4.55-3.79-6.48-3.79-2.2,0-3.47-1.15-3.47-3.16s1.27-3.15,3.47-3.15A7.3,7.3,0,0,1,45,42.9a8.81,8.81,0,0,1,1.81,7.24.49.49,0,0,1-.39.4Zm-6.89-9.32c-1.66,0-2.47.7-2.47,2.15s.81,2.16,2.47,2.16A7.83,7.83,0,0,1,46,48.73a7.62,7.62,0,0,0-1.72-5.18A6.26,6.26,0,0,0,39.47,41.23Z"/></g></g></svg>