<svg xmlns="http://www.w3.org/2000/svg" viewBox="0 0 72.99 72.99"><defs><style>.cls-1{fill:#f29e8c;}.cls-2{fill:#fff;}.cls-3{fill:#1b3249;}.cls-4{fill:#edc16b;}</style></defs><title>Asset 121</title><g id="Layer_2" data-name="Layer 2"><g id="_1" data-name="1"><path class="cls-1" d="M13.67,69.89,30.35,50.54l-7.9-7.9L3.1,59.32A7.49,7.49,0,1,0,13.67,69.89Z"/><rect class="cls-2" x="8.88" y="55" width="4" height="14.22" transform="translate(-40.73 25.88) rotate(-45)"/><path class="cls-3" d="M8,73a8,8,0,0,1-5.23-14L22.12,42.26a.5.5,0,0,1,.68,0l7.9,7.9a.5.5,0,0,1,0,.68L14.05,70.22h0A8,8,0,0,1,8.29,73ZM22.42,43.32,3.43,59.7A7,7,0,0,0,8.25,72a6.9,6.9,0,0,0,5-2.42l16.37-19ZM13.67,69.89h0Z"/><path class="cls-1" d="M66,7h0a22.36,22.36,0,0,0-31.6,0L22.06,19.32a22.37,22.37,0,0,0,0,31.61h0a22.36,22.36,0,0,0,31.6,0L66,38.64A22.35,22.35,0,0,0,66,7Z"/><path class="cls-3" d="M37.86,58A22.85,22.85,0,0,1,21.71,19L34,6.68A22.85,22.85,0,0,1,66.31,39L54,51.28A22.68,22.68,0,0,1,37.86,58ZM50.15,1a21.67,21.67,0,0,0-15.44,6.4L22.42,19.68A21.84,21.84,0,1,0,53.31,50.57L65.6,38.28a21.84,21.84,0,0,0,0-30.89A21.68,21.68,0,0,0,50.15,1Z"/><path class="cls-4" d="M61.3,11.69h0a15.72,15.72,0,0,0-22.23,0L26.72,24a15.72,15.72,0,0,0,0,22.23h0a15.72,15.72,0,0,0,22.23,0L61.3,33.92A15.72,15.72,0,0,0,61.3,11.69Z"/><path class="cls-3" d="M37.83,51.37A16.22,16.22,0,0,1,26.37,23.69L38.72,11.34A16.21,16.21,0,1,1,61.65,34.27L49.3,46.62A16.13,16.13,0,0,1,37.83,51.37ZM50.18,7.59A15.21,15.21,0,0,0,39.42,12L27.07,24.39A15.22,15.22,0,0,0,48.6,45.92L60.94,33.57a15.22,15.22,0,0,0-10.76-26Z"/><path class="cls-2" d="M29.74,29A1,1,0,0,1,29,27.26l3.52-3.52a1,1,0,0,1,1.41,0,1,1,0,0,1,0,1.42l-3.51,3.51A1,1,0,0,1,29.74,29Z"/><path class="cls-2" d="M37,21.73A1,1,0,0,1,36.27,20l5.49-5.48A11.73,11.73,0,0,1,54,11.72,1,1,0,0,1,54.58,13a1,1,0,0,1-1.27.61A9.75,9.75,0,0,0,43.17,16l-5.48,5.48A1,1,0,0,1,37,21.73Z"/></g></g></svg>